<svg width="808" height="320" viewBox="0 0 808 320" fill="none" xmlns="http://www.w3.org/2000/svg">
<path fill-rule="evenodd" clip-rule="evenodd" d="M410.232 167.624C442.023 166.029 474.902 164.578 504.42 168.586C538.393 173.198 579.853 179.863 584.677 191.306C589.613 203.013 536.446 209.326 526.395 220.712C515.444 233.115 554.041 249.064 525.479 258.356C498.248 267.215 448.681 261.153 410.232 258.503C378.733 256.331 355.249 249.475 326.92 244.668C292.748 238.869 242.103 238.676 227.326 227.465C212.654 216.334 238.278 203.73 259.782 193.734C277.468 185.513 308.031 181.865 335.787 177.048C359.773 172.885 383.123 168.985 410.232 167.624Z" fill="#694ED6" fill-opacity="0.08"/>
<path d="M401.669 223.758C400.588 224.11 369.685 223.831 368.517 223.076C368.067 222.791 367.845 218.287 367.731 212.837V212.666C367.731 211.544 368.16 192.695 368.16 192.695L388.364 192.824L387.671 212.619V212.961C387.671 212.961 399.451 218.359 400.651 219.326C401.85 220.293 402.755 223.406 401.669 223.758Z" fill="#AD6359"/>
<path d="M401.669 223.758C400.588 224.11 369.685 223.83 368.512 223.076C368.062 222.791 367.845 218.287 367.731 212.837V212.666C367.731 212.454 367.731 211.275 367.767 210.08L387.759 210.122L387.666 212.64V212.976C387.666 212.976 399.446 218.37 400.645 219.342C401.845 220.314 402.75 223.406 401.669 223.758Z" fill="white"/>
<path d="M401.985 223.867C400.878 224.229 369.406 224.022 368.186 223.256C367.731 222.967 367.493 218.38 367.364 212.826L387.671 212.899C387.671 212.899 399.694 218.37 400.919 219.352C402.145 220.335 403.086 223.505 401.985 223.867Z" fill="#694ED6"/>
<path d="M401.54 222.605C396.26 222.439 374.955 222.279 369.722 222.517C369.68 222.517 369.68 222.548 369.722 222.548C374.95 222.827 396.26 222.817 401.54 222.688C401.648 222.688 401.648 222.605 401.54 222.605Z" fill="#263238"/>
<path d="M398.897 218.204C398.311 218.185 397.726 218.288 397.181 218.507C396.637 218.726 396.143 219.056 395.733 219.476C394.985 220.222 394.555 221.228 394.533 222.284C394.533 222.315 394.595 222.32 394.595 222.284C394.782 221.24 395.303 220.285 396.078 219.562C396.854 218.838 397.843 218.385 398.897 218.271C398.904 218.269 398.91 218.264 398.914 218.258C398.918 218.252 398.92 218.245 398.92 218.238C398.92 218.23 398.918 218.223 398.914 218.217C398.91 218.211 398.904 218.207 398.897 218.204Z" fill="#263238"/>
<path d="M389.714 213.436C387.604 213.395 385.147 214.124 383.824 215.846C383.772 215.908 383.87 215.98 383.932 215.949C385.785 214.991 387.735 214.236 389.75 213.695C389.784 213.69 389.815 213.672 389.836 213.644C389.857 213.616 389.866 213.582 389.861 213.547C389.856 213.513 389.838 213.482 389.81 213.461C389.783 213.44 389.748 213.431 389.714 213.436Z" fill="#263238"/>
<path d="M391.342 214.083C389.233 214.042 386.776 214.771 385.453 216.493C385.401 216.555 385.494 216.627 385.556 216.596C387.411 215.639 389.363 214.883 391.379 214.342C391.407 214.33 391.43 214.31 391.445 214.284C391.46 214.258 391.466 214.228 391.462 214.198C391.458 214.168 391.444 214.141 391.422 214.12C391.4 214.099 391.372 214.086 391.342 214.083Z" fill="#263238"/>
<path d="M392.971 214.729C390.856 214.688 388.4 215.417 387.076 217.139C387.025 217.201 387.123 217.273 387.185 217.242C389.041 216.287 390.993 215.531 393.008 214.988C393.036 214.976 393.059 214.956 393.074 214.93C393.089 214.904 393.095 214.874 393.091 214.844C393.087 214.814 393.073 214.787 393.051 214.766C393.029 214.745 393.001 214.732 392.971 214.729Z" fill="#263238"/>
<path d="M394.61 215.376C392.495 215.334 390.039 216.063 388.715 217.785C388.664 217.848 388.762 217.92 388.824 217.889C390.668 216.936 392.608 216.18 394.61 215.634C394.645 215.634 394.678 215.621 394.702 215.596C394.726 215.572 394.74 215.539 394.74 215.505C394.74 215.471 394.726 215.438 394.702 215.414C394.678 215.389 394.645 215.376 394.61 215.376Z" fill="#263238"/>
<path d="M371.097 217.517C368.729 217.517 368.713 221.193 371.097 221.198C373.481 221.204 373.476 217.517 371.097 217.517Z" fill="white"/>
<path d="M392.025 207.81C390.96 206.921 389.61 207.779 388.922 208.694C387.81 210.288 387.136 212.146 386.968 214.083C386.967 214.092 386.968 214.1 386.971 214.109C386.974 214.117 386.979 214.125 386.986 214.131C386.992 214.137 387 214.141 387.009 214.144C387.017 214.146 387.026 214.146 387.035 214.145C387.043 214.184 387.06 214.222 387.085 214.254C387.11 214.285 387.143 214.311 387.179 214.328C387.216 214.345 387.256 214.353 387.297 214.352C387.337 214.351 387.377 214.34 387.412 214.321C388.922 213.286 390.665 212.371 391.818 210.908C392.542 210.054 393.059 208.658 392.025 207.81ZM389.44 212.288C388.71 212.805 387.955 213.297 387.247 213.84C387.597 212.786 388.001 211.75 388.457 210.737C388.685 210.246 388.946 209.771 389.238 209.315C389.703 208.622 391.787 206.869 391.984 209.17C392.066 210.427 390.288 211.663 389.44 212.288Z" fill="#263238"/>
<path d="M381.745 214.833C383.581 215.127 385.484 214.616 387.293 214.347C387.333 214.337 387.369 214.318 387.4 214.292C387.43 214.266 387.454 214.233 387.47 214.196C387.485 214.158 387.492 214.118 387.489 214.078C387.486 214.038 387.474 213.999 387.454 213.964C387.46 213.959 387.465 213.952 387.469 213.944C387.473 213.937 387.475 213.928 387.475 213.92C387.475 213.912 387.473 213.903 387.469 213.896C387.465 213.888 387.46 213.881 387.454 213.876C386.018 212.565 384.26 211.657 382.36 211.244C381.248 211.022 379.671 211.311 379.495 212.687C379.32 214.062 380.648 214.662 381.745 214.833ZM380.473 213.623C379.056 211.802 381.776 211.673 382.593 211.87C383.121 212.006 383.64 212.179 384.144 212.387C385.172 212.827 386.176 213.319 387.154 213.861C386.254 213.938 385.375 214.088 384.48 214.202C383.4 214.326 381.259 214.626 380.473 213.623Z" fill="#263238"/>
<path opacity="0.1" d="M379.17 223.882C373.378 223.753 368.636 223.546 368.186 223.257C367.736 222.967 367.586 219.864 367.441 215.65C370.756 217.941 376.295 221.85 379.17 223.882Z" fill="black"/>
<path d="M389.874 209.46L366.686 209.403C366.686 209.403 367.813 164.362 367.648 163.457C367.431 162.288 354.296 107.169 354.296 107.169L373.155 107.288C373.155 107.288 388.359 158.431 388.922 163.364C389.848 171.328 389.874 209.46 389.874 209.46Z" fill="#694ED6"/>
<path d="M388.328 205.416C384.837 205.147 370.415 205.09 368.357 205.416C368.35 205.419 368.344 205.423 368.34 205.429C368.336 205.435 368.334 205.442 368.334 205.45C368.334 205.457 368.336 205.464 368.34 205.47C368.344 205.476 368.35 205.48 368.357 205.483C369.908 205.742 382.319 205.855 388.328 205.483C388.336 205.474 388.34 205.462 388.34 205.45C388.34 205.437 388.336 205.425 388.328 205.416Z" fill="#263238"/>
<path d="M358.562 111.419C359.007 112.774 359.4 114.15 359.803 115.515C360.207 116.88 360.574 118.256 360.972 119.626C361.758 122.331 362.523 125.056 363.263 127.771C364.783 133.262 366.231 138.775 367.648 144.293C368.337 147.023 369.027 149.757 369.716 152.494C370.399 155.235 371.123 157.975 371.738 160.737C372.053 162.032 372.184 163.366 372.126 164.698C372.038 166.058 370.575 203.513 370.12 204.268C370.12 204.299 370.042 204.294 370.047 204.268C370.264 199.231 371.878 163.969 371.702 162.567C371.49 161.2 371.196 159.846 370.823 158.513C370.478 157.158 370.146 155.804 369.825 154.449C369.135 151.708 368.446 148.972 367.756 146.242C366.357 140.75 364.921 135.265 363.449 129.787C361.977 124.309 360.498 118.868 359.012 113.462C358.831 112.79 358.65 112.112 358.495 111.435C358.494 111.43 358.494 111.426 358.494 111.421C358.495 111.417 358.497 111.413 358.499 111.409C358.502 111.405 358.505 111.402 358.508 111.399C358.512 111.396 358.516 111.394 358.521 111.393C358.525 111.392 358.53 111.392 358.534 111.393C358.539 111.394 358.543 111.395 358.547 111.398C358.551 111.4 358.554 111.403 358.557 111.407C358.559 111.411 358.561 111.415 358.562 111.419Z" fill="#263238"/>
<path d="M354.306 107.169C354.306 107.169 362.099 139.876 365.771 155.431L371.671 107.272L354.306 107.169Z" fill="#263238"/>
<path d="M375.539 228.226C374.448 228.567 343.556 227.807 342.397 227.031C341.952 226.747 341.802 222.238 341.771 216.782C341.771 216.725 341.771 216.668 341.771 216.611C341.771 215.489 342.511 196.656 342.511 196.656L362.704 197.09L361.706 216.88V217.216C361.706 217.216 373.404 222.796 374.588 223.784C375.772 224.771 376.625 227.895 375.539 228.226Z" fill="#AD6359"/>
<path d="M375.539 228.231C374.448 228.562 343.556 227.812 342.397 227.031C341.952 226.742 341.802 222.238 341.777 216.782C341.777 216.725 341.777 216.668 341.777 216.611C341.777 216.399 341.818 215.22 341.854 214.026L361.841 214.378L361.717 216.891V217.227C361.717 217.227 373.414 222.807 374.593 223.794C375.772 224.782 376.625 227.895 375.539 228.231Z" fill="white"/>
<path d="M375.85 228.345C374.743 228.686 343.271 227.993 342.066 227.212C341.616 226.912 341.451 222.32 341.404 216.767L361.712 217.154C361.712 217.154 373.647 222.812 374.852 223.815C376.056 224.818 376.956 227.998 375.85 228.345Z" fill="#694ED6"/>
<path d="M375.425 227.073C370.151 226.83 348.846 226.333 343.612 226.493C343.571 226.493 343.571 226.524 343.612 226.524C348.835 226.886 370.141 227.202 375.425 227.161C375.534 227.161 375.539 227.078 375.425 227.073Z" fill="#263238"/>
<path d="M372.855 222.636C372.268 222.609 371.682 222.703 371.133 222.913C370.584 223.123 370.084 223.444 369.665 223.856C368.91 224.595 368.466 225.594 368.424 226.649C368.424 226.68 368.486 226.68 368.491 226.649C368.693 225.608 369.226 224.66 370.013 223.949C370.799 223.237 371.794 222.8 372.85 222.703C372.857 222.701 372.863 222.697 372.868 222.691C372.873 222.686 372.875 222.679 372.876 222.671C372.876 222.664 372.875 222.657 372.871 222.651C372.867 222.644 372.862 222.639 372.855 222.636Z" fill="#263238"/>
<path d="M363.744 217.723C361.634 217.651 359.167 218.344 357.818 220.04C357.766 220.107 357.859 220.18 357.921 220.149C359.79 219.223 361.753 218.498 363.775 217.987C363.806 217.978 363.832 217.959 363.85 217.932C363.868 217.906 363.876 217.874 363.872 217.842C363.868 217.81 363.853 217.781 363.83 217.759C363.806 217.737 363.776 217.725 363.744 217.723Z" fill="#263238"/>
<path d="M365.363 218.395C363.253 218.323 360.786 219.011 359.431 220.712C359.38 220.779 359.478 220.852 359.54 220.821C361.408 219.892 363.37 219.167 365.394 218.659C365.424 218.65 365.451 218.631 365.469 218.604C365.487 218.578 365.494 218.546 365.491 218.514C365.487 218.482 365.472 218.453 365.448 218.431C365.425 218.409 365.395 218.397 365.363 218.395Z" fill="#263238"/>
<path d="M366.981 219.068C364.866 218.995 362.399 219.683 361.05 221.385C360.998 221.452 361.091 221.524 361.158 221.493C363.026 220.564 364.988 219.839 367.012 219.332C367.043 219.323 367.069 219.304 367.087 219.277C367.105 219.25 367.113 219.218 367.109 219.187C367.105 219.155 367.09 219.125 367.067 219.104C367.043 219.082 367.013 219.069 366.981 219.068Z" fill="#263238"/>
<path d="M368.594 219.74C366.484 219.662 364.018 220.355 362.668 222.057C362.616 222.119 362.71 222.196 362.772 222.165C364.64 221.236 366.602 220.509 368.625 219.999C368.66 219.994 368.691 219.977 368.712 219.95C368.734 219.923 368.743 219.888 368.739 219.854C368.735 219.819 368.717 219.788 368.69 219.767C368.663 219.746 368.629 219.736 368.594 219.74Z" fill="#263238"/>
<path d="M345.071 221.508C342.697 221.462 342.625 225.128 344.998 225.196C347.372 225.263 347.444 221.555 345.071 221.508Z" fill="white"/>
<path d="M366.169 212.139C365.135 211.228 363.754 212.066 363.066 212.971C361.916 214.545 361.203 216.395 360.998 218.334C360.997 218.342 360.998 218.35 361.001 218.358C361.004 218.366 361.008 218.373 361.014 218.379C361.02 218.385 361.027 218.39 361.035 218.393C361.043 218.395 361.052 218.396 361.06 218.396C361.068 218.435 361.085 218.473 361.11 218.505C361.135 218.536 361.168 218.562 361.204 218.579C361.241 218.596 361.281 218.604 361.322 218.603C361.362 218.602 361.402 218.591 361.437 218.571C362.989 217.537 364.721 216.679 365.895 215.231C366.598 214.414 367.146 212.997 366.169 212.139ZM363.475 216.57C362.741 217.087 361.98 217.558 361.256 218.122C361.66 217.087 362.011 216.022 362.518 215.019C362.754 214.531 363.022 214.059 363.32 213.607C363.796 212.919 365.905 211.203 366.066 213.504C366.138 214.755 364.344 215.965 363.459 216.57H363.475Z" fill="#263238"/>
<path d="M355.749 219C357.585 219.321 359.493 218.84 361.308 218.597C361.348 218.589 361.385 218.571 361.416 218.546C361.447 218.52 361.472 218.488 361.488 218.451C361.504 218.414 361.511 218.374 361.509 218.333C361.506 218.293 361.494 218.254 361.474 218.219C361.474 218.194 361.515 218.157 361.474 218.126C360.053 216.797 358.31 215.863 356.416 215.417C355.31 215.179 353.732 215.443 353.536 216.818C353.339 218.194 354.679 218.809 355.749 219ZM354.503 217.77C353.112 215.923 355.837 215.841 356.644 216.048C357.173 216.183 357.691 216.356 358.195 216.565C359.217 217.018 360.215 217.524 361.184 218.08C360.284 218.142 359.4 218.287 358.505 218.38C357.414 218.519 355.268 218.783 354.503 217.77Z" fill="#263238"/>
<path d="M373.166 107.261C373.166 107.261 372.995 116.27 370.885 123.406C370.714 123.995 370.533 124.575 370.332 125.133C370.332 125.133 369.52 125.133 366.195 127.114L362.932 213.545L340.696 213.172C340.696 213.172 344.522 167.376 344.512 164.439C344.512 159.723 347.289 127.796 347.025 126.984C344.31 118.71 348.954 107.101 348.954 107.101L373.166 107.261Z" fill="#694ED6"/>
<path d="M362.213 209.423C355.951 209.005 343.804 208.839 342.247 209.067C342.24 209.069 342.235 209.074 342.231 209.08C342.227 209.086 342.224 209.093 342.224 209.1C342.224 209.107 342.227 209.115 342.231 209.12C342.235 209.126 342.24 209.131 342.247 209.134C343.799 209.418 358.547 209.791 362.213 209.522C362.223 209.518 362.232 209.512 362.239 209.503C362.245 209.494 362.249 209.483 362.249 209.473C362.249 209.462 362.245 209.451 362.239 209.442C362.232 209.433 362.223 209.427 362.213 209.423Z" fill="#263238"/>
<path d="M363.878 186.417C363.651 192.002 363.449 197.592 363.18 203.182C363.18 203.259 363.056 203.254 363.056 203.182C363.175 193.217 363.496 183.257 363.821 173.298C364.147 163.338 364.556 153.482 365.016 143.579C365.28 137.994 365.807 132.854 366.169 127.269C366.169 127.229 366.185 127.191 366.213 127.163C366.241 127.135 366.279 127.119 366.319 127.119C366.359 127.119 366.397 127.135 366.425 127.163C366.453 127.191 366.469 127.229 366.469 127.269C366.169 137.229 365.435 146.738 365.068 156.693" fill="#263238"/>
<path d="M346.343 187.006C346.86 180.511 347.377 174.016 347.894 167.521C348.411 161.026 348.928 154.531 349.446 148.036C349.709 144.789 349.963 141.541 350.237 138.294C350.371 136.67 350.511 135.046 350.645 133.422C350.842 131.821 350.949 130.211 350.966 128.598C350.914 126.84 350.185 125.267 349.787 123.582C349.422 121.976 349.262 120.33 349.311 118.685C349.378 115.292 349.978 112.386 351.033 108.756C351.085 108.575 351.204 108.559 351.157 108.756C350.347 111.774 349.828 114.864 349.606 117.981C349.523 119.539 349.622 121.101 349.901 122.635C350.185 124.109 350.785 125.479 351.126 126.933C351.467 128.386 351.266 129.984 351.126 131.499C350.992 133.122 350.873 134.746 350.749 136.37C350.5 139.555 350.232 142.736 349.983 145.921C348.949 158.849 347.915 171.777 346.829 184.705C346.214 191.976 345.691 199.262 344.936 206.522C344.936 206.574 344.848 206.574 344.854 206.522C345.262 200.012 345.841 193.517 346.343 187.006Z" fill="#263238"/>
<path d="M352.15 119.233C352.522 119.088 354.141 118.716 354.529 118.53C355.269 118.211 355.964 117.798 356.597 117.299C357.202 116.773 357.665 116.105 357.947 115.354C358.118 114.956 358.929 112.805 358.981 112.795C358.989 112.79 358.998 112.787 359.007 112.787C359.016 112.787 359.025 112.79 359.033 112.795C359.012 113.203 358.93 113.606 358.79 113.989C358.666 114.449 358.542 114.91 358.397 115.37C358.165 116.227 357.695 117.002 357.042 117.604C356.356 118.175 355.573 118.619 354.73 118.912C354.3 119.068 353.857 119.186 353.407 119.264C352.99 119.363 352.559 119.386 352.135 119.331C352.072 119.341 352.093 119.264 352.15 119.233Z" fill="#263238"/>
<path d="M369.194 122.015C369.251 121.234 369.318 120.464 369.391 119.683C369.556 117.909 369.753 116.13 370.073 114.382C370.073 114.243 370.29 114.294 370.28 114.429C370.151 115.804 369.985 117.18 369.846 118.566C369.706 119.952 369.536 121.307 369.504 122.703C369.504 123.116 369.504 123.82 370.022 123.933C370.704 124.094 371.056 123.199 371.201 122.713C371.597 121.49 371.889 120.236 372.075 118.964C372.307 117.521 372.437 116.058 372.592 114.605C372.592 114.553 372.68 114.558 372.68 114.605C372.68 117.49 372.612 120.51 371.516 123.23C371.438 123.51 371.285 123.764 371.074 123.963C370.862 124.163 370.6 124.301 370.316 124.363H370.306C370.308 124.378 370.308 124.394 370.306 124.409C370.306 124.492 370.27 124.57 370.254 124.652C370.239 124.735 370.228 124.787 370.213 124.854C370.197 124.921 370.161 125.133 370.125 125.273C370.122 125.3 370.107 125.325 370.086 125.342C370.064 125.359 370.036 125.367 370.009 125.363C369.981 125.36 369.956 125.346 369.939 125.324C369.922 125.302 369.915 125.274 369.918 125.247C369.9 125.241 369.885 125.231 369.874 125.216C369.863 125.201 369.856 125.183 369.856 125.164C369.87 124.882 369.936 124.605 370.053 124.347C369.886 124.311 369.731 124.235 369.601 124.125C369.471 124.015 369.371 123.875 369.308 123.716C369.135 123.166 369.096 122.583 369.194 122.015Z" fill="#263238"/>
<path d="M371.263 124.601C369.043 125.51 366.908 126.612 364.882 127.895C364.864 127.904 364.852 127.919 364.846 127.938C364.84 127.956 364.842 127.976 364.851 127.993C364.859 128.01 364.875 128.023 364.893 128.029C364.912 128.035 364.932 128.033 364.949 128.024C367.1 126.99 369.298 126.002 371.392 124.859C371.424 124.841 371.448 124.811 371.458 124.776C371.469 124.74 371.466 124.702 371.449 124.669C371.433 124.636 371.404 124.611 371.37 124.598C371.335 124.585 371.297 124.586 371.263 124.601Z" fill="#263238"/>
<path d="M360.233 63.415C360.233 63.415 364.008 59.4694 368.786 61.057C374.738 63.0376 374.598 79.3113 375.234 82.3157C375.87 85.3202 378.435 86.1372 375.452 88.8056C372.468 91.4739 368.32 92.2909 364.106 92.1203C359.891 91.9496 356.727 90.0984 356.116 88.2212C355.744 87.068 356.665 85.9717 356.846 84.0843C356.954 82.9673 354.513 64.0252 360.233 63.415Z" fill="#263238"/>
<path d="M355.827 85.9252C355.884 84.6375 356.241 83.412 356.23 82.1088C356.22 80.8057 356.054 73.354 355.946 72.0819C355.682 68.8189 356.029 63.808 360.238 63.5339C360.252 63.5379 360.264 63.5464 360.273 63.5581C360.282 63.5698 360.287 63.584 360.287 63.5986C360.287 63.6132 360.282 63.6274 360.273 63.6391C360.264 63.6507 360.252 63.6592 360.238 63.6632C355.067 64.5216 356.21 71.844 356.504 79.1095C356.579 80.9086 356.487 82.7106 356.23 84.4927C355.863 86.7525 356.122 88.7176 357.911 90.3207C357.916 90.3235 357.921 90.3275 357.925 90.3325C357.929 90.3374 357.931 90.3431 357.932 90.3492C357.934 90.3553 357.933 90.3616 357.932 90.3676C357.93 90.3736 357.928 90.3791 357.924 90.3839C357.92 90.3887 357.915 90.3925 357.909 90.395C357.903 90.3976 357.897 90.3989 357.891 90.3988C357.885 90.3987 357.879 90.3972 357.873 90.3944C357.868 90.3916 357.863 90.3876 357.859 90.3827C357.197 89.8493 356.668 89.1685 356.315 88.3946C355.962 87.6207 355.795 86.7751 355.827 85.9252Z" fill="#263238"/>
<path d="M361.055 63.317C363.201 61.5433 365.761 60.0385 368.651 60.8917C371.154 61.6312 372.788 63.9013 373.616 66.2284C374.769 69.4759 374.614 79.2391 375.891 82.4504C376.341 83.588 377.416 84.7671 377.365 86.0702C377.318 87.213 376.424 87.6216 375.426 87.8646C375.369 87.8646 375.338 87.7974 375.395 87.7819C377.82 87.0682 377.08 85.4083 376.258 83.8156C375.691 82.7046 375.265 81.5267 374.991 80.3095C374.422 77.879 374.293 69.1553 373.538 66.7662C372.783 64.3771 371.423 62.1121 369.018 61.202C366.004 60.0281 363.413 61.6105 361.086 63.3687C361.06 63.379 361.029 63.3377 361.055 63.317Z" fill="#263238"/>
<path d="M360.553 63.4151C359.519 64.2063 356.302 63.7409 355.123 62.0499C353.5 59.7177 356.494 55.8962 359.369 57.3027C362.244 58.7093 361.37 62.7945 360.553 63.4151Z" fill="#263238"/>
<path d="M355.827 57.9802C355.188 58.6595 354.727 59.4852 354.482 60.3848C354.37 60.8075 354.391 61.2545 354.543 61.6647C354.695 62.0748 354.97 62.4279 355.33 62.6757C355.693 62.9456 356.089 63.1665 356.509 63.3324C356.931 63.5107 357.372 63.6408 357.823 63.7202C358.742 63.8888 359.69 63.7808 360.548 63.41C359.735 63.9611 358.751 64.1998 357.776 64.0822C357.288 64.0287 356.809 63.914 356.349 63.7409C355.884 63.5674 355.446 63.3308 355.046 63.0376C354.627 62.7289 354.31 62.3021 354.136 61.8121C353.978 61.3194 353.978 60.7896 354.136 60.2969C354.446 59.3682 355.037 58.5587 355.827 57.9802Z" fill="#263238"/>
<path d="M367.203 85.8788C370.079 90.8225 382.495 101.584 386.916 101.91C390.117 102.137 401.033 93.3719 404.312 89.359C406.939 86.1529 396.969 79.2752 395.133 80.8835C392.547 83.1536 386.859 89.7107 385.623 89.902C384.754 90.0416 378.73 86.3391 370.627 82.7503C365.787 80.5991 365.487 82.9261 367.203 85.8788Z" fill="#AD6359"/>
<path d="M399.606 78.4115C400.506 76.3844 403.324 70.784 403.324 70.784C403.324 70.784 405.175 67.5831 403.965 66.6471C401.871 65.013 396.296 76.0328 396.245 77.2015C396.126 80.0094 399.058 79.6681 399.606 78.4115Z" fill="#AD6359"/>
<path d="M409.286 81.6485C408.728 84.1306 404.984 88.9864 403.805 89.8086C402.626 90.6308 394.579 85.5889 394.435 84.1203C394.29 82.6517 396.813 74.445 398.841 72.8264C400.868 71.2078 409.865 79.0784 409.286 81.6485Z" fill="#AD6359"/>
<path d="M403.872 83.9912L395.453 84.3222C395.345 84.3285 395.237 84.3098 395.138 84.2676C395.038 84.2253 394.95 84.1606 394.879 84.0786C394.808 83.9965 394.758 83.8993 394.731 83.7944C394.704 83.6896 394.702 83.5799 394.724 83.4741L397.129 65.8041C397.164 65.5638 397.279 65.3423 397.455 65.1753C397.632 65.0083 397.859 64.9055 398.101 64.8837L406.504 64.5527C406.612 64.5464 406.72 64.5651 406.82 64.6073C406.92 64.6496 407.008 64.7142 407.079 64.7963C407.149 64.8784 407.2 64.9756 407.227 65.0805C407.254 65.1853 407.256 65.2949 407.233 65.4008L404.844 83.0656C404.81 83.3068 404.696 83.5296 404.519 83.6976C404.343 83.8656 404.115 83.9691 403.872 83.9912Z" fill="#37474F"/>
<path d="M406.023 64.5683L397.605 64.9044C397.363 64.9251 397.136 65.0268 396.959 65.1929C396.783 65.3591 396.668 65.5799 396.632 65.8197L394.228 83.4948C394.205 83.6007 394.208 83.7103 394.234 83.8152C394.261 83.92 394.312 84.0172 394.382 84.0993C394.453 84.1814 394.542 84.2461 394.641 84.2883C394.741 84.3305 394.849 84.3492 394.957 84.3429L403.376 84.0119C403.617 83.9892 403.844 83.8862 404.02 83.7193C404.197 83.5525 404.312 83.3315 404.348 83.0915L406.752 65.4215C406.775 65.3154 406.772 65.2056 406.746 65.1006C406.719 64.9955 406.668 64.898 406.598 64.8156C406.527 64.7332 406.439 64.668 406.339 64.6251C406.24 64.5823 406.132 64.5628 406.023 64.5683ZM403.919 82.5485C403.886 82.7696 403.783 82.9742 403.624 83.1318C403.466 83.2893 403.261 83.3913 403.04 83.4224L395.51 83.7224C395.41 83.7244 395.31 83.7033 395.219 83.6608C395.128 83.6182 395.048 83.5553 394.985 83.4768C394.922 83.3984 394.878 83.3065 394.856 83.2083C394.834 83.1101 394.835 83.0082 394.859 82.9105L397.098 66.4558C397.227 65.5094 397.579 65.4474 397.998 65.4215L399.508 65.3595C399.596 65.3595 399.652 65.4577 399.637 65.5818V65.6387C399.601 65.9335 399.756 65.9283 399.952 65.918L403.438 65.7784C403.634 65.7784 403.795 65.7783 403.831 65.4681V65.4164C403.831 65.2923 403.929 65.1837 404.022 65.1837L405.527 65.1216C405.951 65.1216 406.277 65.2199 406.158 66.0886L403.919 82.5485Z" fill="#263238"/>
<path d="M406.132 66.109L403.919 82.5482C403.886 82.7693 403.783 82.9739 403.625 83.1315C403.466 83.289 403.261 83.391 403.04 83.4222L395.51 83.7221C395.41 83.7241 395.31 83.7031 395.219 83.6605C395.128 83.6179 395.048 83.555 394.985 83.4765C394.922 83.3981 394.878 83.3062 394.856 83.208C394.834 83.1098 394.835 83.0079 394.859 82.9102L397.098 66.4555C397.227 65.5092 397.579 65.4471 397.998 65.4213L399.508 65.3592C399.596 65.3592 399.652 65.4575 399.637 65.5816V65.6385C399.601 65.9332 399.756 65.928 399.952 65.9177L403.438 65.7781C403.634 65.7781 403.795 65.7781 403.831 65.4678V65.4161C403.831 65.292 403.934 65.1834 404.022 65.1834L405.527 65.1213C405.925 65.1317 406.251 65.2454 406.132 66.109Z" fill="white"/>
<path d="M406.132 66.1145L405.925 67.6038L396.87 67.9658L397.072 66.4713C397.201 65.525 397.553 65.4629 397.972 65.4371L399.482 65.375C399.57 65.375 399.627 65.4733 399.611 65.5974V65.6542C399.575 65.949 399.73 65.9438 399.927 65.9335L403.412 65.7939C403.609 65.7939 403.769 65.7939 403.805 65.4836V65.4319C403.805 65.3078 403.908 65.1992 403.996 65.1992L405.501 65.1371C405.925 65.132 406.251 65.2457 406.132 66.1145Z" fill="#694ED6"/>
<path d="M402.186 65.4836L401.235 65.5198C401.227 65.5209 401.22 65.5201 401.212 65.5175C401.205 65.5149 401.199 65.5107 401.194 65.5051C401.189 65.4995 401.185 65.4927 401.183 65.4853C401.181 65.478 401.181 65.4703 401.183 65.463C401.186 65.4468 401.194 65.4321 401.207 65.421C401.219 65.4098 401.234 65.4028 401.25 65.4009L402.202 65.3647C402.209 65.3637 402.217 65.3645 402.224 65.367C402.231 65.3696 402.238 65.3739 402.243 65.3795C402.248 65.3851 402.251 65.3919 402.253 65.3992C402.255 65.4065 402.255 65.4142 402.253 65.4216C402.25 65.4377 402.242 65.4524 402.23 65.4636C402.218 65.4747 402.203 65.4818 402.186 65.4836Z" fill="white"/>
<path d="M399.172 65.7527C399.156 65.7337 399.136 65.7186 399.114 65.7087C399.091 65.6988 399.067 65.6944 399.042 65.6958C398.986 65.6997 398.933 65.7235 398.892 65.763L398.939 65.732H399.001H399.073H399.12H399.156H399.187L399.172 65.7527Z" fill="white"/>
<path d="M398.908 65.8298C398.934 65.8027 398.969 65.7846 399.006 65.7781C399.03 65.7725 399.055 65.7733 399.079 65.7806C399.102 65.7879 399.124 65.8013 399.14 65.8194H399.115C399.104 65.8071 399.09 65.7975 399.075 65.7912C399.059 65.7849 399.043 65.7822 399.027 65.7832C399.004 65.781 398.982 65.784 398.961 65.7921C398.941 65.8002 398.922 65.8131 398.908 65.8298Z" fill="white"/>
<path d="M399.068 65.8507H399.042C399.027 65.8447 399.011 65.8447 398.996 65.8507C398.979 65.8458 398.961 65.8458 398.944 65.8507C398.961 65.8364 398.983 65.8286 399.006 65.8286C399.029 65.8286 399.051 65.8364 399.068 65.8507Z" fill="white"/>
<path d="M397.744 65.8561C397.747 65.8393 397.755 65.8239 397.767 65.8118C397.779 65.7998 397.795 65.7918 397.811 65.7888C397.819 65.7887 397.827 65.7903 397.834 65.7935C397.841 65.7967 397.847 65.8015 397.852 65.8074C397.857 65.8134 397.861 65.8204 397.863 65.8279C397.865 65.8354 397.865 65.8433 397.863 65.8509C397.862 65.8678 397.854 65.8836 397.842 65.8951C397.829 65.9066 397.813 65.913 397.796 65.9129C397.789 65.913 397.781 65.9115 397.775 65.9086C397.768 65.9057 397.762 65.9014 397.757 65.896C397.753 65.8907 397.749 65.8843 397.747 65.8774C397.744 65.8706 397.743 65.8633 397.744 65.8561Z" fill="white"/>
<path d="M397.936 65.8457C397.939 65.8296 397.947 65.8149 397.959 65.8037C397.971 65.7926 397.986 65.7856 398.003 65.7837C398.01 65.7837 398.017 65.7851 398.024 65.7881C398.03 65.791 398.036 65.7953 398.041 65.8006C398.046 65.806 398.05 65.8123 398.052 65.8192C398.054 65.8261 398.055 65.8334 398.054 65.8406C398.052 65.8571 398.044 65.8723 398.032 65.8836C398.02 65.8949 398.004 65.9016 397.987 65.9026C397.951 65.9078 397.93 65.8819 397.936 65.8457Z" fill="white"/>
<path d="M398.122 65.8404C398.125 65.8229 398.134 65.8069 398.147 65.7948C398.16 65.7827 398.177 65.7751 398.194 65.7732C398.225 65.7732 398.246 65.799 398.246 65.8352C398.243 65.8522 398.234 65.8675 398.221 65.8787C398.207 65.89 398.191 65.8965 398.174 65.8973C398.166 65.8973 398.159 65.8958 398.153 65.8929C398.146 65.89 398.14 65.8857 398.135 65.8804C398.13 65.875 398.127 65.8687 398.124 65.8618C398.122 65.8549 398.121 65.8476 398.122 65.8404Z" fill="white"/>
<path d="M398.313 65.8301C398.316 65.814 398.325 65.7993 398.337 65.7881C398.349 65.777 398.364 65.7699 398.38 65.7681C398.388 65.768 398.395 65.7695 398.402 65.7724C398.408 65.7753 398.414 65.7796 398.419 65.785C398.424 65.7904 398.428 65.7967 398.43 65.8036C398.432 65.8105 398.433 65.8177 398.432 65.825C398.429 65.8417 398.421 65.8571 398.409 65.8692C398.397 65.8812 398.382 65.8892 398.365 65.8922C398.357 65.8923 398.35 65.8907 398.342 65.8875C398.335 65.8843 398.329 65.8795 398.324 65.8736C398.319 65.8676 398.316 65.8606 398.314 65.8531C398.312 65.8456 398.312 65.8377 398.313 65.8301Z" fill="white"/>
<path d="M398.499 65.8248C398.502 65.8073 398.511 65.7913 398.524 65.7792C398.537 65.7671 398.554 65.7595 398.572 65.7576C398.579 65.7574 398.587 65.759 398.594 65.7622C398.601 65.7655 398.607 65.7702 398.612 65.7762C398.617 65.7821 398.621 65.7891 398.623 65.7967C398.625 65.8042 398.625 65.812 398.623 65.8196C398.62 65.8366 398.611 65.8519 398.598 65.8631C398.585 65.8743 398.568 65.8809 398.551 65.8817C398.544 65.8817 398.536 65.8802 398.53 65.8773C398.523 65.8744 398.517 65.8701 398.512 65.8648C398.507 65.8594 398.504 65.8531 398.502 65.8462C398.499 65.8393 398.498 65.832 398.499 65.8248Z" fill="white"/>
<path d="M405.511 65.6802H405.025L405.056 65.4526H405.574L405.511 65.6802ZM405.051 65.6802H405.491L405.517 65.4992H405.077L405.051 65.6802Z" fill="white"/>
<path d="M405.408 65.4939L405.092 65.5042L405.072 65.6594L405.387 65.6439L405.408 65.4939Z" fill="white"/>
<path d="M405.563 65.6234H405.522L405.537 65.4993H405.584L405.563 65.6234Z" fill="white"/>
<path d="M397.806 67.3606L397.574 67.1124L397.874 66.8486L397.91 66.89L397.662 67.1124L397.853 67.3089L397.806 67.3606Z" fill="white"/>
<path d="M404.798 67.2729V67.1798L404.731 67.0867L404.596 66.8178L404.901 66.3731L404.953 66.4041L405.067 66.3679L405.408 66.342V66.3886L405.594 66.8074L405.548 66.8385L405.491 66.9677L405.3 67.247L405.248 67.216L405.129 67.247L404.798 67.2729Z" fill="white"/>
<path d="M400.754 66.8333C400.754 66.825 400.757 66.8172 400.763 66.8113C400.769 66.8055 400.777 66.8022 400.785 66.8022L400.811 66.8333L400.77 67.1487C400.768 67.1574 400.764 67.1653 400.757 67.171C400.751 67.1767 400.742 67.1798 400.733 67.1797C400.733 67.1797 400.707 67.1797 400.733 67.1539L400.754 66.8333Z" fill="white"/>
<path d="M400.925 67.1434C400.925 67.1517 400.921 67.1596 400.916 67.1654C400.91 67.1712 400.902 67.1745 400.894 67.1745L400.868 67.1486L400.914 66.8332C400.912 66.8248 400.912 66.8157 400.914 66.8073C400.914 66.8073 400.951 66.8073 400.956 66.8073L401.095 67.04L401.126 66.8176C401.126 66.8094 401.13 66.8015 401.135 66.7957C401.141 66.7899 401.149 66.7866 401.157 66.7866C401.16 66.7913 401.162 66.7967 401.162 66.8021C401.162 66.8076 401.16 66.8129 401.157 66.8176L401.116 67.1331C401.113 67.1406 401.108 67.1472 401.101 67.1526C401.095 67.1579 401.088 67.1619 401.08 67.1641L400.94 66.9314L400.925 67.1434Z" fill="white"/>
<path d="M401.276 67.1334L401.323 66.8128C401.323 66.8046 401.326 66.7967 401.332 66.7909C401.338 66.785 401.345 66.7818 401.354 66.7818H401.431C401.444 66.7807 401.457 66.7827 401.469 66.7874C401.48 66.7921 401.491 66.7996 401.5 66.8091C401.508 66.8186 401.514 66.8299 401.518 66.8422C401.521 66.8546 401.522 66.8675 401.519 66.88C401.515 66.9033 401.504 66.9249 401.488 66.9421C401.504 66.9527 401.516 66.9677 401.523 66.9851C401.531 67.0025 401.533 67.0217 401.53 67.0403C401.524 67.0716 401.508 67.1001 401.485 67.1216C401.462 67.1431 401.432 67.1564 401.4 67.1593H401.302L401.276 67.1334ZM401.364 66.9266H401.411C401.411 66.9266 401.457 66.9266 401.457 66.88C401.457 66.8335 401.457 66.8386 401.421 66.8386H401.374L401.364 66.9266ZM401.364 67.0972H401.426C401.442 67.096 401.457 67.0891 401.469 67.0777C401.48 67.0663 401.487 67.0512 401.488 67.0352C401.49 67.0285 401.49 67.0214 401.488 67.0147C401.487 67.008 401.484 67.0017 401.479 66.9966C401.474 66.9915 401.469 66.9876 401.462 66.9853C401.455 66.983 401.448 66.9823 401.442 66.9834H401.38L401.364 67.0972Z" fill="white"/>
<path d="M401.928 66.8025C401.957 66.8429 401.969 66.8927 401.964 66.9421C401.954 66.9931 401.928 67.0398 401.892 67.0765C401.856 67.1146 401.809 67.1385 401.757 67.1438C401.733 67.1448 401.71 67.1401 401.688 67.1302C401.667 67.1204 401.648 67.1055 401.633 67.0869C401.618 67.0682 401.608 67.0464 401.602 67.0232C401.597 66.9999 401.597 66.9757 401.602 66.9524C401.609 66.9 401.633 66.8512 401.669 66.8128C401.708 66.7776 401.757 66.7559 401.809 66.7507C401.831 66.7506 401.853 66.7551 401.874 66.764C401.894 66.7729 401.913 66.786 401.928 66.8025ZM401.902 66.9421C401.913 66.912 401.913 66.879 401.902 66.849C401.892 66.8368 401.879 66.8271 401.865 66.8208C401.851 66.8145 401.835 66.8118 401.819 66.8128C401.786 66.8146 401.754 66.8295 401.731 66.8542C401.704 66.8807 401.686 66.9151 401.68 66.9524C401.677 66.9689 401.678 66.9858 401.682 67.0018C401.687 67.0179 401.694 67.0328 401.705 67.0455C401.715 67.0567 401.727 67.0657 401.74 67.072C401.754 67.0782 401.768 67.0815 401.783 67.0817C401.808 67.0712 401.831 67.0553 401.85 67.0352C401.875 67.0089 401.893 66.9769 401.902 66.9421Z" fill="white"/>
<path d="M402.326 66.7917L402.207 66.9365L402.285 67.0761C402.29 67.0818 402.293 67.0892 402.293 67.0968C402.293 67.1044 402.29 67.1118 402.285 67.1175L402.212 66.9934L402.109 67.1227H402.083C402.078 67.117 402.075 67.1096 402.075 67.102C402.075 67.0943 402.078 67.087 402.083 67.0813L402.202 66.9365L402.119 66.7969C402.116 66.7906 402.114 66.7835 402.114 66.7762C402.114 66.7689 402.116 66.7618 402.119 66.7555C402.125 66.7504 402.132 66.7476 402.14 66.7476C402.148 66.7476 402.155 66.7504 402.161 66.7555L402.233 66.8796L402.342 66.7503C402.344 66.7471 402.347 66.7445 402.351 66.7427C402.354 66.7409 402.358 66.74 402.362 66.74C402.366 66.74 402.37 66.7409 402.374 66.7427C402.377 66.7445 402.381 66.7471 402.383 66.7503C402.389 66.7579 402.391 66.7673 402.389 66.7765C402.388 66.7857 402.383 66.794 402.375 66.7995C402.372 66.8022 402.367 66.8041 402.363 66.8052C402.358 66.8063 402.354 66.8065 402.349 66.8058C402.34 66.8043 402.332 66.7992 402.326 66.7917Z" fill="white"/>
<path d="M403.143 68.9586L397.594 69.1758L397.641 68.819L403.195 68.6018L403.143 68.9586Z" fill="white"/>
<path d="M403.148 68.9588L397.589 69.1811L397.641 68.8191L403.195 68.5864L403.148 68.9588Z" fill="#EBEBEB"/>
<path d="M403.148 68.9587L402.791 68.9742L402.843 68.6122L403.195 68.5967L403.148 68.9587Z" fill="#694ED6"/>
<path d="M403.091 68.8811L403.055 68.9069L403.009 68.8294V68.7983L403.091 68.8811Z" fill="white"/>
<path d="M403.055 68.695C403.047 68.6862 403.038 68.6792 403.027 68.6743C403.016 68.6695 403.005 68.667 402.993 68.667C402.981 68.667 402.97 68.6695 402.959 68.6743C402.948 68.6792 402.939 68.6862 402.931 68.695C402.911 68.7078 402.897 68.7278 402.891 68.7509C402.885 68.774 402.888 68.7984 402.9 68.8191C402.914 68.8333 402.934 68.8413 402.954 68.8413C402.975 68.8413 402.994 68.8333 403.009 68.8191C403.02 68.8147 403.031 68.8078 403.04 68.799C403.049 68.7901 403.056 68.7794 403.06 68.7677C403.064 68.7559 403.066 68.7433 403.065 68.7308C403.065 68.7183 403.061 68.7061 403.055 68.695ZM403.003 68.7933C402.995 68.7995 402.985 68.803 402.975 68.803C402.965 68.803 402.955 68.7995 402.947 68.7933C402.938 68.7823 402.933 68.7686 402.933 68.7545C402.933 68.7404 402.938 68.7267 402.947 68.7157C402.956 68.7062 402.969 68.7009 402.983 68.7009C402.996 68.7009 403.009 68.7062 403.019 68.7157C403.024 68.7243 403.027 68.7341 403.027 68.7441C403.027 68.7541 403.024 68.7639 403.019 68.7726L403.003 68.7933Z" fill="white"/>
<path d="M397.693 69.1034H397.677L397.703 68.8862H397.724L397.693 69.1034Z" fill="#C7C7C7"/>
<path d="M405.418 68.3328C405.397 68.3483 405.372 68.3589 405.346 68.3638C405.318 68.3771 405.288 68.384 405.258 68.384C405.227 68.384 405.197 68.3771 405.17 68.3638C405.146 68.347 405.126 68.3255 405.111 68.3006C405.096 68.2757 405.086 68.2479 405.082 68.219C405.08 68.1519 405.1 68.0859 405.139 68.0316C405.178 67.9772 405.235 67.9376 405.299 67.9191C405.327 67.9096 405.357 67.9066 405.386 67.9101C405.415 67.9137 405.444 67.9238 405.468 67.9397C405.493 67.9556 405.514 67.9769 405.53 68.0019C405.545 68.027 405.555 68.0553 405.558 68.0846C405.558 68.1345 405.545 68.1836 405.521 68.227C405.496 68.2705 405.461 68.307 405.418 68.3328Z" fill="#694ED6"/>
<path d="M405.398 68.1003C405.395 68.1209 405.385 68.14 405.37 68.1542C405.355 68.1684 405.336 68.1768 405.315 68.1779C405.306 68.1788 405.297 68.1777 405.289 68.1746C405.28 68.1715 405.273 68.1664 405.267 68.1599C405.261 68.1533 405.256 68.1455 405.254 68.1369C405.251 68.1284 405.251 68.1194 405.253 68.1106C405.255 68.09 405.265 68.0709 405.28 68.0567C405.295 68.0425 405.315 68.0341 405.335 68.0331C405.344 68.0321 405.353 68.0332 405.362 68.0363C405.37 68.0394 405.377 68.0445 405.383 68.051C405.389 68.0576 405.394 68.0654 405.396 68.074C405.399 68.0825 405.399 68.0915 405.398 68.1003Z" fill="white"/>
<path d="M405.424 68.302V68.333C405.402 68.3486 405.377 68.3592 405.351 68.3641C405.324 68.3773 405.294 68.3842 405.263 68.3842C405.233 68.3842 405.203 68.3773 405.175 68.3641V68.333C405.18 68.2987 405.197 68.267 405.222 68.2434C405.248 68.2198 405.28 68.2058 405.315 68.2037C405.329 68.2031 405.342 68.205 405.355 68.2096C405.368 68.2142 405.38 68.2212 405.39 68.2303C405.4 68.2395 405.408 68.2505 405.414 68.2628C405.42 68.2751 405.423 68.2884 405.424 68.302Z" fill="white"/>
<path d="M405.579 70.1584L396.524 70.5152L396.622 69.7809L405.682 69.4241L405.579 70.1584Z" fill="#EBEBEB"/>
<path d="M397.336 70.2307L397.119 70.2358L397.15 70.0186L397.367 70.0083L397.336 70.2307Z" fill="white"/>
<path d="M398.251 70.1894L398.039 70.1997L398.137 70.0859L398.065 69.9825L398.282 69.9722L398.354 70.0756L398.251 70.1894Z" fill="white"/>
<path d="M397.729 69.9927L397.755 70.0651L397.832 70.0754L397.765 70.1323L397.77 70.2099L397.703 70.1737L397.631 70.215L397.651 70.1375L397.605 70.0806L397.682 70.0702L397.729 69.9927Z" fill="#694ED6"/>
<path d="M400.221 70.0498L398.505 70.1171L398.515 70.0291L400.237 69.9619L400.221 70.0498Z" fill="#263238"/>
<path d="M404.7 69.8741L403.138 69.931L403.153 69.8431L404.71 69.781L404.7 69.8741Z" fill="#263238"/>
<path d="M402.486 69.962L400.749 70.0292L400.759 69.9413L402.497 69.8689L402.486 69.962Z" fill="#455A64"/>
<path d="M397.238 70.9601L397.02 70.9705L397.051 70.7481L397.269 70.7429L397.238 70.9601Z" fill="white"/>
<path d="M396.87 71.1046L396.938 70.6237L397.413 70.603L397.351 71.084L396.87 71.1046Z" fill="#EBEBEB"/>
<path d="M398.153 70.9237L397.936 70.9341L398.039 70.8203L397.967 70.7117L398.184 70.7065L398.256 70.81L398.153 70.9237Z" fill="white"/>
<path d="M397.636 71.0736L397.874 70.8099L397.729 70.5927L398.251 70.572L398.422 70.8202L398.215 71.0529L397.636 71.0736Z" fill="#EBEBEB"/>
<path d="M397.631 70.7273L397.651 70.7997L397.729 70.8049L397.667 70.8669V70.9445L397.605 70.9083L397.527 70.9497L397.553 70.8669L397.501 70.8152L397.584 70.7997L397.631 70.7273Z" fill="#694ED6"/>
<path d="M400.123 70.7788L398.406 70.8512L398.416 70.7581L400.133 70.6909L400.123 70.7788Z" fill="#263238"/>
<path d="M404.601 70.603L403.04 70.6651L403.05 70.5772L404.612 70.5151L404.601 70.603Z" fill="#263238"/>
<path d="M402.383 70.6909L400.645 70.7582L400.661 70.6703L402.398 70.603L402.383 70.6909Z" fill="#455A64"/>
<path d="M405.382 71.6218L396.322 71.9786L396.426 71.2494L405.481 70.8875L405.382 71.6218Z" fill="#EBEBEB"/>
<path d="M397.139 71.6943L396.922 71.6995L396.953 71.4823L397.165 71.4719L397.139 71.6943Z" fill="white"/>
<path d="M398.055 71.6579L397.838 71.6631L397.941 71.5493L397.869 71.4459L398.086 71.4355L398.158 71.5441L398.055 71.6579Z" fill="white"/>
<path d="M397.527 71.4565L397.553 71.5289L397.631 71.5393L397.568 71.5962V71.6737L397.506 71.6427L397.429 71.6841L397.455 71.6013L397.403 71.5445L397.486 71.5341L397.527 71.4565Z" fill="white"/>
<path d="M400.025 71.5132L398.303 71.5804L398.318 71.4925L400.035 71.4253L400.025 71.5132Z" fill="#DBDBDB"/>
<path d="M404.503 71.3372L402.941 71.3993L402.952 71.3062L404.513 71.2441L404.503 71.3372Z" fill="#DBDBDB"/>
<path d="M402.285 71.4251L400.547 71.4923L400.557 71.4044L402.295 71.332L402.285 71.4251Z" fill="#C7C7C7"/>
<path d="M397.036 72.4232L396.824 72.4336L396.85 72.2112L397.067 72.2061L397.036 72.4232Z" fill="white"/>
<path d="M396.674 72.5682L396.741 72.0873L397.217 72.0718L397.15 72.5475L396.674 72.5682Z" fill="#EBEBEB"/>
<path d="M397.956 72.3869L397.739 72.3972L397.843 72.2834L397.765 72.1749L397.982 72.1697L398.055 72.2731L397.956 72.3869Z" fill="white"/>
<path d="M397.434 72.537L397.677 72.2733L397.527 72.0561L398.049 72.0354L398.22 72.2888L398.013 72.5163L397.434 72.537Z" fill="#EBEBEB"/>
<path d="M397.429 72.1904L397.455 72.2628L397.532 72.268L397.465 72.3301L397.47 72.4076L397.403 72.3714L397.331 72.4128L397.351 72.3352L397.305 72.2783L397.382 72.2628L397.429 72.1904Z" fill="#694ED6"/>
<path d="M399.921 72.2476L398.205 72.3149L398.215 72.2218L399.937 72.1545L399.921 72.2476Z" fill="#DBDBDB"/>
<path d="M404.4 72.0667L402.843 72.1287L402.853 72.0408L404.415 71.9788L404.4 72.0667Z" fill="#DBDBDB"/>
<path d="M402.186 72.1546L400.449 72.227L400.459 72.1339L402.197 72.0667L402.186 72.1546Z" fill="#C7C7C7"/>
<path d="M405.18 73.0854L396.126 73.4422L396.224 72.7131L405.279 72.3511L405.18 73.0854Z" fill="#EBEBEB"/>
<path d="M396.938 73.1574L396.721 73.1678L396.752 72.9454L396.969 72.9351L396.938 73.1574Z" fill="white"/>
<path d="M397.853 73.1215L397.636 73.1267L397.739 73.0181L397.667 72.9095L397.884 72.8992L397.956 73.0078L397.853 73.1215Z" fill="white"/>
<path d="M397.331 72.925L397.357 72.9923L397.434 73.0026L397.367 73.0595L397.372 73.1422L397.305 73.106L397.227 73.1474L397.253 73.0647L397.207 73.013L397.284 72.9974L397.331 72.925Z" fill="#694ED6"/>
<path d="M399.823 72.9766L398.106 73.0438L398.117 72.9559L399.834 72.8887L399.823 72.9766Z" fill="#DBDBDB"/>
<path d="M404.301 72.8008L402.74 72.8629L402.755 72.775L404.312 72.7129L404.301 72.8008Z" fill="#DBDBDB"/>
<path d="M402.088 72.8887L400.345 72.9559L400.361 72.868L402.098 72.8008L402.088 72.8887Z" fill="#C7C7C7"/>
<path d="M396.839 73.8869L396.622 73.8972L396.653 73.68L396.87 73.6697L396.839 73.8869Z" fill="white"/>
<path d="M396.472 74.0316L396.539 73.5507L397.015 73.5352L396.953 74.0161L396.472 74.0316Z" fill="#EBEBEB"/>
<path d="M397.755 73.8557L397.538 73.8608L397.641 73.7471L397.569 73.6436L397.786 73.6333L397.858 73.7419L397.755 73.8557Z" fill="white"/>
<path d="M397.238 74.0004L397.475 73.7367L397.331 73.5195L397.848 73.4988L398.024 73.7522L397.812 73.9797L397.238 74.0004Z" fill="#EBEBEB"/>
<path d="M397.227 73.6541L397.253 73.7264L397.331 73.7368L397.269 73.7937V73.8712L397.207 73.8402L397.129 73.8764L397.155 73.7988L397.103 73.742L397.186 73.7264L397.227 73.6541Z" fill="white"/>
<path d="M396.917 74.14L397.01 73.8298L396.855 73.6591L397.103 73.6126L397.263 73.354L397.351 73.6074L397.631 73.6384L397.398 73.8504L397.408 74.0935L397.207 73.9849L396.917 74.14Z" fill="#EBEBEB"/>
<path d="M399.725 73.711L398.008 73.7782L398.018 73.6903L399.735 73.623L399.725 73.711Z" fill="#DBDBDB"/>
<path d="M404.203 73.5298L402.641 73.597L402.652 73.5039L404.213 73.4419L404.203 73.5298Z" fill="#DBDBDB"/>
<path d="M401.985 73.6229L400.247 73.6901L400.263 73.597L402 73.5298L401.985 73.6229Z" fill="#C7C7C7"/>
<path d="M404.984 74.5487L395.924 74.9107L396.028 74.1764L405.082 73.8196L404.984 74.5487Z" fill="#EBEBEB"/>
<path d="M396.741 74.621L396.524 74.6313L396.555 74.409L396.767 74.4038L396.741 74.621Z" fill="white"/>
<path d="M397.656 74.5851L397.439 74.5955L397.542 74.4817L397.47 74.3731L397.682 74.3679L397.76 74.4713L397.656 74.5851Z" fill="white"/>
<path d="M397.129 74.3884L397.155 74.4557L397.232 74.466L397.165 74.5281L397.17 74.6056L397.103 74.5694L397.031 74.6108L397.056 74.5281L397.005 74.4763L397.087 74.4608L397.129 74.3884Z" fill="#694ED6"/>
<path d="M399.627 74.4402L397.905 74.5126L397.92 74.4195L399.637 74.3523L399.627 74.4402Z" fill="#DBDBDB"/>
<path d="M404.1 74.2644L402.543 74.3265L402.553 74.2386L404.115 74.1765L404.1 74.2644Z" fill="#DBDBDB"/>
<path d="M401.886 74.3523L400.149 74.4195L400.159 74.3316L401.897 74.2644L401.886 74.3523Z" fill="#C7C7C7"/>
<path d="M396.638 75.3552L396.42 75.3603L396.451 75.1431L396.669 75.1328L396.638 75.3552Z" fill="white"/>
<path d="M396.276 75.5001L396.338 75.0192L396.819 74.9985L396.751 75.4795L396.276 75.5001Z" fill="#EBEBEB"/>
<path d="M397.553 75.3193L397.341 75.3245L397.444 75.2107L397.372 75.1073L397.584 75.0969L397.656 75.2055L397.553 75.3193Z" fill="white"/>
<path d="M397.036 75.4691L397.279 75.2002L397.129 74.9882L397.651 74.9675L397.822 75.2158L397.615 75.4433L397.036 75.4691Z" fill="#EBEBEB"/>
<path d="M397.031 75.1177L397.056 75.1901L397.134 75.2004L397.067 75.2573L397.072 75.3349L397.005 75.3038L396.932 75.34L396.953 75.2625L396.906 75.2108L396.984 75.1952L397.031 75.1177Z" fill="white"/>
<path d="M396.715 75.6036L396.808 75.2933L396.653 75.1227L396.907 75.0761L397.062 74.8228L397.15 75.071L397.429 75.102L397.201 75.314L397.207 75.5571L397.005 75.4485L396.715 75.6036Z" fill="#EBEBEB"/>
<path d="M399.523 75.1743L397.806 75.2416L397.817 75.1536L399.539 75.0864L399.523 75.1743Z" fill="#DBDBDB"/>
<path d="M404.001 74.9986L402.445 75.0607L402.455 74.9676L404.012 74.9055L404.001 74.9986Z" fill="#DBDBDB"/>
<path d="M401.788 75.0865L400.051 75.1537L400.061 75.0658L401.798 74.9934L401.788 75.0865Z" fill="#C7C7C7"/>
<path d="M404.782 76.0119L395.728 76.3738L395.826 75.6395L404.881 75.2827L404.782 76.0119Z" fill="#EBEBEB"/>
<path d="M396.54 76.0846L396.322 76.095L396.353 75.8726L396.571 75.8674L396.54 76.0846Z" fill="white"/>
<path d="M397.455 76.0482L397.238 76.0586L397.341 75.9448L397.269 75.8362L397.486 75.8311L397.558 75.9345L397.455 76.0482Z" fill="white"/>
<path d="M396.933 75.8518L396.958 75.9242L397.031 75.9294L396.969 75.9914V76.069L396.907 76.0328L396.829 76.0742L396.855 75.9966L396.809 75.9397L396.886 75.9242L396.933 75.8518Z" fill="white"/>
<path d="M399.425 75.9088L397.708 75.976L397.718 75.8881L399.435 75.8157L399.425 75.9088Z" fill="#DBDBDB"/>
<path d="M403.903 75.7278L402.341 75.7899L402.352 75.7019L403.914 75.6399L403.903 75.7278Z" fill="#DBDBDB"/>
<path d="M401.69 75.8157L399.947 75.8881L399.963 75.795L401.7 75.7278L401.69 75.8157Z" fill="#C7C7C7"/>
<path d="M396.441 76.8188L396.224 76.8291L396.255 76.6068L396.467 76.5964L396.441 76.8188Z" fill="white"/>
<path d="M396.074 76.9638L396.141 76.4828L396.617 76.4622L396.555 76.9431L396.074 76.9638Z" fill="#EBEBEB"/>
<path d="M397.357 76.7824L397.139 76.7928L397.243 76.679L397.17 76.5704L397.388 76.5601L397.46 76.6687L397.357 76.7824Z" fill="white"/>
<path d="M396.839 76.9328L397.077 76.669L396.932 76.4518L397.45 76.4312L397.62 76.6794L397.413 76.9069L396.839 76.9328Z" fill="#EBEBEB"/>
<path d="M396.829 76.5862L396.855 76.6534L396.933 76.6637L396.871 76.7206V76.8034L396.808 76.7672L396.731 76.8085L396.757 76.7258L396.705 76.6741L396.788 76.6586L396.829 76.5862Z" fill="white"/>
<path d="M396.519 77.067L396.612 76.7619L396.457 76.5861L396.705 76.5395L396.86 76.2861L396.953 76.5343L397.232 76.5654L397 76.7774L397.01 77.0204L396.808 76.9118L396.519 77.067Z" fill="#EBEBEB"/>
<path d="M399.327 76.638L397.605 76.7052L397.62 76.6173L399.337 76.55L399.327 76.638Z" fill="#DBDBDB"/>
<path d="M403.805 76.4619L402.243 76.524L402.254 76.4361L403.815 76.374L403.805 76.4619Z" fill="#DBDBDB"/>
<path d="M401.587 76.5501L399.849 76.6173L399.865 76.5294L401.597 76.4622L401.587 76.5501Z" fill="#C7C7C7"/>
<path d="M404.586 77.4809L395.526 77.8377L395.629 77.1034L404.684 76.7466L404.586 77.4809Z" fill="#EBEBEB"/>
<path d="M396.338 77.5532L396.126 77.5583L396.157 77.3411L396.369 77.3308L396.338 77.5532Z" fill="white"/>
<path d="M397.258 77.5119L397.041 77.5222L397.144 77.4084L397.072 77.305L397.284 77.2947L397.356 77.4033L397.258 77.5119Z" fill="white"/>
<path d="M396.731 77.3154L396.756 77.3878L396.834 77.3982L396.767 77.455L396.772 77.5326L396.705 77.5016L396.632 77.5378L396.658 77.4602L396.607 77.4033L396.684 77.393L396.731 77.3154Z" fill="white"/>
<path d="M396.415 77.8014L396.514 77.4911L396.358 77.3205L396.607 77.2739L396.762 77.0154L396.85 77.2688L397.134 77.2998L396.901 77.5118L396.907 77.7549L396.705 77.6463L396.415 77.8014Z" fill="#EBEBEB"/>
<path d="M399.228 77.3721L397.506 77.4393L397.522 77.3514L399.239 77.2842L399.228 77.3721Z" fill="#DBDBDB"/>
<path d="M403.701 77.1963L402.145 77.2532L402.155 77.1653L403.717 77.1033L403.701 77.1963Z" fill="#DBDBDB"/>
<path d="M401.488 77.2791L399.751 77.3515L399.761 77.2636L401.499 77.1912L401.488 77.2791Z" fill="#C7C7C7"/>
<path d="M396.24 78.2821L396.022 78.2925L396.053 78.0701L396.271 78.0649L396.24 78.2821Z" fill="white"/>
<path d="M395.878 78.4271L395.94 77.9462L396.42 77.9255L396.353 78.4065L395.878 78.4271Z" fill="#EBEBEB"/>
<path d="M397.155 78.246L396.943 78.2563L397.046 78.1426L396.969 78.034L397.186 78.0288L397.258 78.1322L397.155 78.246Z" fill="white"/>
<path d="M396.638 78.3959L396.881 78.1322L396.731 77.915L397.253 77.8943L397.424 78.1425L397.217 78.3752L396.638 78.3959Z" fill="#EBEBEB"/>
<path d="M396.633 78.0496L396.659 78.122L396.736 78.1271L396.669 78.1892L396.674 78.2667L396.607 78.2305L396.534 78.2719L396.555 78.1892L396.509 78.1375L396.586 78.122L396.633 78.0496Z" fill="white"/>
<path d="M396.317 78.5358L396.41 78.2255L396.255 78.0549L396.508 78.0083L396.664 77.7498L396.751 78.0031L397.031 78.029L396.803 78.241L396.808 78.4841L396.607 78.3806L396.317 78.5358Z" fill="#EBEBEB"/>
<path d="M399.125 78.1065L397.408 78.1737L397.419 78.0807L399.135 78.0134L399.125 78.1065Z" fill="#DBDBDB"/>
<path d="M403.603 77.9256L402.042 77.9876L402.057 77.8997L403.614 77.8376L403.603 77.9256Z" fill="#DBDBDB"/>
<path d="M401.39 78.0134L399.652 78.0858L399.663 77.9928L401.4 77.9255L401.39 78.0134Z" fill="#C7C7C7"/>
<path d="M404.384 78.9443L395.329 79.3011L395.428 78.5719L404.482 78.21L404.384 78.9443Z" fill="#EBEBEB"/>
<path d="M396.141 79.0165L395.924 79.0217L395.955 78.8045L396.172 78.7942L396.141 79.0165Z" fill="white"/>
<path d="M397.057 78.9804L396.839 78.9856L396.943 78.877L396.87 78.7684L397.088 78.7581L397.16 78.8667L397.057 78.9804Z" fill="white"/>
<path d="M396.534 78.7839L396.555 78.8512L396.633 78.8615L396.571 78.9184V78.996L396.509 78.9649L396.431 79.0063L396.457 78.9236L396.405 78.8718L396.488 78.8563L396.534 78.7839Z" fill="white"/>
<path d="M396.219 79.2648L396.312 78.9545L396.157 78.7839L396.405 78.7373L396.565 78.4788L396.653 78.7321L396.932 78.7632L396.7 78.9752L396.71 79.2182L396.508 79.1096L396.219 79.2648Z" fill="#EBEBEB"/>
<path d="M399.027 78.8357L397.31 78.9029L397.32 78.815L399.037 78.7478L399.027 78.8357Z" fill="#DBDBDB"/>
<path d="M403.505 78.6597L401.943 78.7217L401.954 78.6287L403.515 78.5718L403.505 78.6597Z" fill="#DBDBDB"/>
<path d="M401.286 78.7476L399.549 78.8148L399.564 78.7269L401.302 78.6545L401.286 78.7476Z" fill="#C7C7C7"/>
<path d="M396.043 79.7458L395.826 79.7561L395.857 79.5389L396.069 79.5286L396.043 79.7458Z" fill="white"/>
<path d="M395.676 79.8907L395.743 79.4098L396.219 79.3943L396.157 79.87L395.676 79.8907Z" fill="#EBEBEB"/>
<path d="M396.958 79.7096L396.741 79.72L396.845 79.6062L396.772 79.4976L396.984 79.4924L397.062 79.5959L396.958 79.7096Z" fill="white"/>
<path d="M396.436 79.8595L396.679 79.5958L396.534 79.3786L397.051 79.3579L397.222 79.6113L397.015 79.8388L396.436 79.8595Z" fill="#EBEBEB"/>
<path d="M396.431 79.5129L396.457 79.5853L396.534 79.5905L396.472 79.6526V79.7301L396.405 79.6939L396.333 79.7353L396.359 79.6577L396.307 79.6008L396.39 79.5853L396.431 79.5129Z" fill="white"/>
<path d="M396.121 79.9992L396.214 79.6889L396.053 79.5182L396.307 79.4717L396.462 79.2131L396.55 79.4665L396.834 79.4976L396.601 79.7044L396.612 79.9474L396.41 79.844L396.121 79.9992Z" fill="#EBEBEB"/>
<path d="M398.929 79.5699L397.207 79.6371L397.222 79.5492L398.939 79.4768L398.929 79.5699Z" fill="#DBDBDB"/>
<path d="M403.401 79.3889L401.845 79.451L401.855 79.3631L403.417 79.301L403.401 79.3889Z" fill="#DBDBDB"/>
<path d="M401.188 79.4768L399.451 79.5492L399.461 79.4561L401.199 79.3889L401.188 79.4768Z" fill="#C7C7C7"/>
<path d="M404.182 80.4076L395.128 80.7696L395.226 80.0353L404.286 79.6733L404.182 80.4076Z" fill="#EBEBEB"/>
<path d="M395.94 80.4799L395.728 80.4903L395.753 80.2679L395.971 80.2576L395.94 80.4799Z" fill="white"/>
<path d="M396.855 80.4438L396.643 80.4541L396.746 80.3404L396.674 80.2318L396.886 80.2214L396.958 80.33L396.855 80.4438Z" fill="white"/>
<path d="M396.332 80.2473L396.358 80.3145L396.436 80.3249L396.369 80.3818L396.374 80.4645L396.307 80.4283L396.234 80.4697L396.255 80.3869L396.208 80.3352L396.286 80.3197L396.332 80.2473Z" fill="#694ED6"/>
<path d="M398.825 80.2991L397.108 80.3663L397.119 80.2784L398.841 80.2112L398.825 80.2991Z" fill="#DBDBDB"/>
<path d="M403.303 80.1233L401.742 80.1854L401.757 80.0975L403.319 80.0354L403.303 80.1233Z" fill="#DBDBDB"/>
<path d="M401.09 80.2112L399.353 80.2784L399.363 80.1905L401.101 80.1233L401.09 80.2112Z" fill="#C7C7C7"/>
<path d="M395.841 81.2143L395.624 81.2195L395.655 81.0023L395.872 80.9919L395.841 81.2143Z" fill="white"/>
<path d="M395.479 81.3541L395.541 80.8732L396.022 80.8577L395.955 81.3386L395.479 81.3541Z" fill="#EBEBEB"/>
<path d="M396.757 81.1782L396.545 81.1833L396.643 81.0696L396.57 80.9662L396.788 80.9558L396.86 81.0644L396.757 81.1782Z" fill="white"/>
<path d="M396.24 81.3283L396.483 81.0594L396.333 80.8422L396.855 80.8215L397.026 81.0749L396.819 81.3024L396.24 81.3283Z" fill="#EBEBEB"/>
<path d="M396.234 80.9766L396.26 81.049L396.338 81.0593L396.271 81.1162L396.276 81.1938L396.209 81.1575L396.131 81.1989L396.157 81.1214L396.11 81.0645L396.188 81.049L396.234 80.9766Z" fill="white"/>
<path d="M395.919 81.4625L396.012 81.1523L395.857 80.9816L396.11 80.9351L396.266 80.6765L396.353 80.9299L396.633 80.9609L396.4 81.1729L396.41 81.416L396.209 81.3074L395.919 81.4625Z" fill="#EBEBEB"/>
<path d="M398.727 81.0332L397.01 81.1004L397.02 81.0125L398.737 80.9453L398.727 81.0332Z" fill="#DBDBDB"/>
<path d="M403.205 80.8575L401.643 80.9195L401.659 80.8265L403.215 80.7644L403.205 80.8575Z" fill="#DBDBDB"/>
<path d="M400.992 80.9454L399.249 81.0126L399.265 80.9247L401.002 80.8523L400.992 80.9454Z" fill="#C7C7C7"/>
<path d="M403.986 81.871L394.931 82.233L395.029 81.4987L404.084 81.1418L403.986 81.871Z" fill="#EBEBEB"/>
<path d="M395.743 81.9435L395.526 81.9539L395.557 81.7315L395.774 81.7263L395.743 81.9435Z" fill="white"/>
<path d="M396.658 81.9074L396.441 81.9177L396.545 81.804L396.472 81.6954L396.689 81.6902L396.762 81.7936L396.658 81.9074Z" fill="white"/>
<path d="M396.131 81.7109L396.157 81.7833L396.234 81.7885L396.172 81.8506V81.9281L396.11 81.8919L396.033 81.9333L396.059 81.8506L396.007 81.7988L396.09 81.7833L396.131 81.7109Z" fill="#694ED6"/>
<path d="M398.629 81.7676L396.912 81.8349L396.922 81.7418L398.639 81.6746L398.629 81.7676Z" fill="#DBDBDB"/>
<path d="M403.107 81.5867L401.545 81.6487L401.556 81.5608L403.117 81.4988L403.107 81.5867Z" fill="#DBDBDB"/>
<path d="M400.888 81.6746L399.151 81.7418L399.166 81.6539L400.904 81.5867L400.888 81.6746Z" fill="#C7C7C7"/>
<path d="M395.645 82.6777L395.428 82.6828L395.454 82.4657L395.671 82.4553L395.645 82.6777Z" fill="white"/>
<path d="M395.278 82.8227L395.345 82.3417L395.821 82.321L395.753 82.802L395.278 82.8227Z" fill="#EBEBEB"/>
<path d="M396.56 82.6415L396.343 82.6467L396.446 82.533L396.374 82.4295L396.586 82.4192L396.663 82.5278L396.56 82.6415Z" fill="white"/>
<path d="M396.038 82.7914L396.281 82.5225L396.131 82.3105L396.653 82.2898L396.824 82.538L396.617 82.7655L396.038 82.7914Z" fill="#EBEBEB"/>
<path d="M396.033 82.4399L396.059 82.5123L396.136 82.5227L396.069 82.5796L396.074 82.6623L396.007 82.6261L395.934 82.6675L395.96 82.5847L395.909 82.533L395.991 82.5175L396.033 82.4399Z" fill="white"/>
<path d="M395.722 82.9259L395.815 82.6156L395.655 82.4449L395.908 82.3984L396.064 82.145L396.151 82.3932L396.436 82.4243L396.203 82.6363L396.208 82.8793L396.012 82.7707L395.722 82.9259Z" fill="#EBEBEB"/>
<path d="M398.525 82.4968L396.809 82.5641L396.824 82.4762L398.541 82.4089L398.525 82.4968Z" fill="#DBDBDB"/>
<path d="M403.004 82.3211L401.447 82.3832L401.457 82.2901L403.019 82.228L403.004 82.3211Z" fill="#DBDBDB"/>
<path d="M400.79 82.409L399.053 82.4762L399.063 82.3883L400.801 82.321L400.79 82.409Z" fill="#C7C7C7"/>
<path d="M403.883 82.6055C403.855 82.765 403.791 82.916 403.695 83.0462C403.599 83.1765 403.474 83.2823 403.329 83.3553L395.19 83.6759C395.062 83.6106 394.958 83.5062 394.894 83.3777C394.83 83.2493 394.808 83.1037 394.833 82.9623L403.883 82.6055Z" fill="#EBEBEB"/>
<path d="M395.541 83.4069L395.324 83.4172L395.355 83.1949L395.572 83.1897L395.541 83.4069Z" fill="white"/>
<path d="M396.457 83.3708L396.245 83.3811L396.348 83.2673L396.27 83.1639L396.488 83.1536L396.56 83.257L396.457 83.3708Z" fill="white"/>
<path d="M395.934 83.1743L395.96 83.2467L396.038 83.257L395.971 83.3139L395.976 83.3915L395.909 83.3553L395.836 83.3967L395.857 83.3191L395.81 83.2622L395.888 83.2467L395.934 83.1743Z" fill="#694ED6"/>
<path d="M398.427 83.231L396.71 83.2982L396.72 83.2103L398.442 83.1379L398.427 83.231Z" fill="#DBDBDB"/>
<path d="M402.905 83.0501L401.344 83.1121L401.359 83.0242L402.916 82.9622L402.905 83.0501Z" fill="#DBDBDB"/>
<path d="M400.692 83.138L398.954 83.2104L398.965 83.1173L400.702 83.05L400.692 83.138Z" fill="#C7C7C7"/>
<path opacity="0.7" d="M406.132 66.109L403.919 82.5482C403.886 82.7693 403.783 82.9739 403.625 83.1315C403.466 83.289 403.261 83.391 403.04 83.4222L395.51 83.7221C395.41 83.7241 395.31 83.7031 395.219 83.6605C395.128 83.6179 395.048 83.555 394.985 83.4765C394.922 83.3981 394.878 83.3062 394.856 83.208C394.834 83.1098 394.835 83.0079 394.859 82.9102L397.098 66.4555C397.227 65.5092 397.579 65.4471 397.998 65.4213L399.508 65.3592C399.596 65.3592 399.652 65.4575 399.637 65.5816V65.6385C399.601 65.9332 399.756 65.928 399.952 65.9177L403.438 65.7781C403.634 65.7781 403.795 65.7781 403.831 65.4678V65.4161C403.831 65.292 403.934 65.1834 404.022 65.1834L405.527 65.1213C405.925 65.1317 406.251 65.2454 406.132 66.109Z" fill="white"/>
<path d="M403.205 78.2201L396.741 78.4734L397.501 72.8989L401.018 70.6753L403.965 72.6403L403.205 78.2201Z" fill="#694ED6"/>
<path opacity="0.2" d="M403.205 78.2201L396.741 78.4734L397.501 72.8989L401.018 70.6753L403.965 72.6403L403.205 78.2201Z" fill="black"/>
<path d="M402.869 78.0133L397.134 78.2409L397.956 72.2216L403.686 71.9993L402.869 78.0133Z" fill="#EBEBEB"/>
<path d="M398.406 72.9974L403.076 72.8113L403.05 73.0078L398.38 73.1888L398.406 72.9974Z" fill="#DBDBDB"/>
<path d="M398.339 73.4835L403.009 73.2974L402.983 73.4939L398.313 73.6749L398.339 73.4835Z" fill="#DBDBDB"/>
<path d="M398.272 73.9696L402.946 73.7886L402.915 73.9799L398.246 74.1609L398.272 73.9696Z" fill="#DBDBDB"/>
<path d="M398.205 74.4557L402.879 74.2747L402.853 74.466L398.179 74.6522L398.205 74.4557Z" fill="#DBDBDB"/>
<path d="M398.143 74.9415L402.812 74.7605L402.786 74.9518L398.117 75.138L398.143 74.9415Z" fill="#DBDBDB"/>
<path d="M398.075 75.433L402.745 75.2468L402.719 75.4382L398.049 75.6243L398.075 75.433Z" fill="#DBDBDB"/>
<path d="M398.008 75.9191L402.678 75.7329L402.652 75.9242L397.982 76.1104L398.008 75.9191Z" fill="#DBDBDB"/>
<path d="M397.941 76.4052L402.61 76.219L402.585 76.4103L397.915 76.5965L397.941 76.4052Z" fill="#DBDBDB"/>
<path d="M397.874 76.8912L402.549 76.7051L402.523 76.8964L397.848 77.0826L397.874 76.8912Z" fill="#DBDBDB"/>
<path d="M397.812 77.3773L402.481 77.1912L402.455 77.3825L397.78 77.5687L397.812 77.3773Z" fill="#DBDBDB"/>
<path d="M403.774 74.0369L403.205 78.2204L396.741 78.4737L397.31 74.2954L398.07 74.7557L398.82 75.2262L399.647 75.7434L400.268 76.1467L401.007 75.6917C401.338 75.49 401.664 75.2831 401.995 75.0866L402.879 74.5695C403.179 74.3885 403.474 74.2075 403.774 74.0369Z" fill="#694ED6"/>
<g opacity="0.2">
<path d="M403.774 74.0369L402.91 74.6212L402.036 75.19L401.126 75.7744H401.095L400.288 76.2915H400.247H400.211L399.533 75.8364L398.747 75.309L398.023 74.7919L397.31 74.2747L398.07 74.735L398.82 75.2056L399.647 75.7227L400.268 76.126L401.007 75.671C401.338 75.4693 401.664 75.2624 401.995 75.0659L402.879 74.5488C403.179 74.3885 403.474 74.2075 403.774 74.0369Z" fill="black"/>
<path d="M399.657 75.7585L399.544 75.8516C399.363 75.9964 399.182 76.136 398.995 76.2705C398.809 76.4049 398.535 76.6014 398.303 76.7618L397.599 77.2323C397.361 77.3823 397.124 77.5271 396.875 77.6667C397.098 77.4857 397.32 77.3099 397.548 77.1496C397.775 76.9893 398.008 76.8186 398.24 76.6583C398.473 76.498 398.706 76.3429 398.944 76.1929C399.182 76.043 399.326 75.9499 399.523 75.8413L399.657 75.7637V75.7585Z" fill="black"/>
<path d="M403.298 77.4187C403.086 77.2997 402.884 77.1653 402.688 77.0308C402.491 76.8964 402.295 76.7619 402.103 76.6171C401.912 76.4723 401.721 76.3275 401.535 76.1776C401.349 76.0276 401.24 75.9293 401.095 75.7949L401.007 75.7122L401.126 75.7794C401.292 75.8776 401.452 75.9862 401.612 76.0897C401.773 76.1931 402 76.3637 402.197 76.5085C402.393 76.6533 402.574 76.7981 402.76 76.9481C402.946 77.098 403.127 77.248 403.298 77.4187Z" fill="black"/>
</g>
<path d="M403.371 74.5282C403.339 74.7452 403.233 74.9449 403.073 75.0943C402.912 75.2437 402.705 75.334 402.487 75.3504C402.388 75.358 402.29 75.3427 402.199 75.3057C402.108 75.2688 402.026 75.2113 401.961 75.1376C401.896 75.0639 401.849 74.9762 401.823 74.8812C401.798 74.7862 401.795 74.6866 401.814 74.5903C401.849 74.373 401.956 74.1735 402.117 74.0237C402.278 73.8738 402.484 73.782 402.704 73.7629C402.802 73.757 402.9 73.7737 402.99 73.8116C403.08 73.8495 403.161 73.9077 403.225 73.9816C403.29 74.0555 403.336 74.1432 403.362 74.238C403.387 74.3328 403.39 74.432 403.371 74.5282Z" fill="#455A64"/>
<path d="M402.735 74.2075L402.641 74.9004C402.638 74.9179 402.629 74.9339 402.616 74.946C402.603 74.9581 402.587 74.9657 402.569 74.9677C402.561 74.9677 402.553 74.9661 402.546 74.9629C402.539 74.9597 402.532 74.9551 402.527 74.9492C402.521 74.9434 402.517 74.9365 402.515 74.929C402.512 74.9214 402.511 74.9135 402.512 74.9056L402.595 74.3316H402.543C402.538 74.3339 402.533 74.3351 402.528 74.3351C402.522 74.3351 402.517 74.3339 402.512 74.3316C402.501 74.3325 402.491 74.33 402.481 74.3244C402.472 74.3188 402.465 74.3105 402.46 74.3006C402.454 74.2846 402.454 74.267 402.46 74.251C402.466 74.2349 402.477 74.2213 402.491 74.2127L402.647 74.1248H402.719L402.735 74.2075Z" fill="white"/>
<path d="M395.645 85.6046C395.645 85.6046 390.137 80.4334 392.945 76.5602C393.98 75.1381 397.3 72.9714 398.298 73.6747C399.849 74.7658 396.576 77.8685 395.412 78.5718C395.412 78.5718 396.963 79.8077 396.648 82.5277C396.497 83.6043 396.157 84.6459 395.645 85.6046Z" fill="#AD6359"/>
<path d="M400.713 73.4677C400.713 73.4677 398.551 74.9311 398.954 76.3635C399.358 77.796 401.318 76.9272 401.457 76.8807C401.343 76.9582 399.389 78.3545 399.947 79.7559C400.506 81.1572 402.362 80.0454 402.476 79.973C402.393 80.0765 401.302 81.5244 401.959 82.4862C403.096 84.1462 405.982 80.5315 407.611 80.4178C407.611 80.4178 408.128 83.1533 408.128 83.2309C408.128 83.2309 410.941 79.8489 410.667 77.6615C410.631 77.3438 410.488 77.0478 410.262 76.8222C410.035 76.5966 409.739 76.4549 409.421 76.4204C409.421 76.4204 410.455 75.4276 410.047 74.3158C409.84 73.7418 408.743 73.5659 408.743 73.5659C408.964 73.33 409.116 73.0377 409.182 72.7211C409.247 72.4045 409.225 72.076 409.116 71.7715C408.956 71.4714 408.71 71.2259 408.41 71.0665C408.109 70.9071 407.768 70.8411 407.43 70.8769C405.61 71.1407 400.713 73.4677 400.713 73.4677Z" fill="#AD6359"/>
<path d="M407.595 70.8978V70.8564C405.056 71.0078 402.623 71.9275 400.619 73.4938C400.557 73.5455 400.449 73.9023 400.521 73.8506C402.671 72.4278 405.072 71.4258 407.595 70.8978Z" fill="#263238"/>
<path d="M408.8 73.5298C408.831 73.5298 408.8 73.4781 408.8 73.4833C406.005 73.677 403.371 74.8637 401.374 76.829C401.307 76.9014 401.318 77.0307 401.4 76.9583C402.807 75.6862 406.504 74.0366 408.8 73.5298Z" fill="#263238"/>
<path d="M402.367 80.1541C404.338 78.2459 406.721 77.1651 409.328 76.4102C409.359 76.4102 409.328 76.3533 409.328 76.3533C407.952 76.3533 406.344 77.0307 405.134 77.6512C403.998 78.2005 403.026 79.0387 402.316 80.0817C402.295 80.1231 402.367 80.1903 402.367 80.1541Z" fill="#263238"/>
<path d="M400.671 73.4575C400.594 73.5196 400.889 73.5816 400.816 73.6489C400.03 74.347 398.691 75.676 399.115 76.4413C399.456 77.0567 400.521 77.0205 400.925 76.8498L401.959 76.4103L401.157 77.1756C400.799 77.5096 400.498 77.9011 400.268 78.3339C400.149 78.5276 400.072 78.7443 400.042 78.9698C400.013 79.1953 400.032 79.4245 400.097 79.6423C400.161 79.8438 400.292 80.0176 400.467 80.1351C400.643 80.2526 400.854 80.3067 401.064 80.2887C401.537 80.2283 401.987 80.0506 402.373 79.7715L403.459 79.0476L402.673 80.0818C402.45 80.3679 402.268 80.6828 402.13 81.0178C401.985 81.3292 401.935 81.6761 401.985 82.0158C402.014 82.1676 402.085 82.3081 402.19 82.4214C402.296 82.5348 402.43 82.6164 402.579 82.6571C402.933 82.7047 403.293 82.6472 403.614 82.4916C404.301 82.1745 404.961 81.8027 405.589 81.3798C405.915 81.1781 406.241 80.9764 406.577 80.7903C406.905 80.5823 407.273 80.4466 407.658 80.3921C407.284 80.4863 406.932 80.6532 406.623 80.8833C406.303 81.0902 405.998 81.3177 405.687 81.5401C405.075 82.0145 404.418 82.43 403.727 82.7812C403.354 82.9776 402.932 83.0603 402.512 83.019C402.288 82.9727 402.082 82.862 401.919 82.7004C401.756 82.5387 401.645 82.3332 401.597 82.1089C401.523 81.6883 401.573 81.2551 401.742 80.8627C401.897 80.4958 402.095 80.1487 402.331 79.8284L402.631 80.1439C402.177 80.4809 401.642 80.6915 401.08 80.7541C400.77 80.7793 400.462 80.6971 400.206 80.5214C399.966 80.3386 399.786 80.0883 399.689 79.8026C399.604 79.5267 399.579 79.236 399.616 78.9498C399.653 78.6635 399.75 78.3884 399.901 78.1426C400.162 77.6705 400.502 77.2457 400.904 76.886L401.116 77.2118C400.599 77.4135 399.41 77.5841 398.758 76.6947C398.055 75.4071 400.247 73.7574 400.671 73.4575Z" fill="#263238"/>
<path d="M381.419 87.3421L374.96 94.8352C374.96 94.8352 369.339 89.6071 366.562 85.8838C363.785 82.1606 364.266 79.8491 370.585 82.3364C374.295 83.7836 377.913 85.4553 381.419 87.3421Z" fill="#D2CAF3"/>
<path d="M374.05 93.3148C374.857 92.1771 375.689 91.0653 376.553 89.9691C376.977 89.4519 377.396 88.8831 377.83 88.3556C378.265 87.8282 378.771 87.2904 379.216 86.7422C379.247 86.7009 379.314 86.7422 379.283 86.7836C378.87 87.3317 378.492 87.9057 378.078 88.4539C377.665 89.002 377.21 89.5657 376.77 90.1242C375.912 91.2205 375.017 92.2961 374.102 93.351C374.076 93.3769 374.024 93.3458 374.05 93.3148Z" fill="#263238"/>
<path opacity="0.1" d="M378.384 90.8693L374.96 94.8407C374.96 94.8407 369.344 89.6075 366.562 85.8843C365.068 83.883 364.494 82.2903 365.311 81.6335L378.384 90.8693Z" fill="black"/>
<path d="M348.965 107.101L373.166 107.287L373.549 100.239C373.549 100.239 375.617 97.4983 375.534 94.4266C375.42 91.1533 369.267 82.5071 368.77 82.0158C366.769 80.0663 363.449 79.8749 361.794 81.2246C352.967 88.4436 348.965 107.101 348.965 107.101Z" fill="#263238"/>
<path d="M348.965 107.101L373.166 107.287L373.549 100.239C373.549 100.239 375.617 97.4983 375.534 94.4266C375.42 91.1533 369.267 82.5071 368.77 82.0158C366.769 80.0663 363.449 79.8749 361.794 81.2246C352.967 88.4436 348.965 107.101 348.965 107.101Z" fill="#D2CAF3"/>
<path d="M375.539 94.4422C375.648 97.519 373.549 100.265 373.549 100.265L373.171 107.303L348.965 107.122C349.965 102.812 351.323 98.5936 353.024 94.5094C353.495 94.5404 356.985 96.8158 361.469 93.9923C364.168 92.291 364.318 87.0577 364.318 87.0577L371.604 86.1011C373.435 88.9297 375.477 92.5547 375.539 94.4422Z" fill="#694ED6"/>
<path d="M365.419 87.8232C365.422 87.8804 365.413 87.9376 365.394 87.9914C365.374 88.0452 365.344 88.0945 365.305 88.1364C365.266 88.1784 365.219 88.2121 365.167 88.2355C365.114 88.259 365.058 88.2718 365.001 88.2731C364.944 88.2751 364.887 88.2659 364.833 88.2459C364.78 88.226 364.731 88.1957 364.689 88.1568C364.647 88.1179 364.613 88.0712 364.59 88.0193C364.566 87.9673 364.553 87.9112 364.551 87.8542C364.549 87.7972 364.558 87.7403 364.578 87.6868C364.598 87.6333 364.628 87.5843 364.667 87.5425C364.706 87.5007 364.753 87.467 364.804 87.4433C364.856 87.4196 364.912 87.4064 364.97 87.4043C365.027 87.4015 365.084 87.4102 365.138 87.4299C365.192 87.4496 365.241 87.4798 365.283 87.5189C365.325 87.5579 365.358 87.605 365.382 87.6572C365.405 87.7095 365.418 87.7659 365.419 87.8232Z" fill="#694ED6"/>
<path d="M371.733 86.6079C371.792 86.6956 371.815 86.8028 371.797 86.907C371.778 87.0111 371.72 87.1041 371.635 87.1664C371.538 87.2025 371.432 87.2013 371.336 87.163C371.241 87.1248 371.163 87.0522 371.118 86.9596C371.059 86.8719 371.036 86.7647 371.054 86.6605C371.073 86.5563 371.131 86.4633 371.216 86.4011C371.312 86.3625 371.42 86.3624 371.516 86.4009C371.612 86.4394 371.69 86.5136 371.733 86.6079Z" fill="#694ED6"/>
<path d="M348.965 107.101C350.987 107.101 353.003 107.148 355.02 107.179L361.07 107.277C363.087 107.323 365.104 107.334 367.121 107.344C369.137 107.354 371.149 107.344 373.171 107.282C371.159 107.504 369.143 107.587 367.121 107.644C365.099 107.701 363.082 107.68 361.065 107.644C359.049 107.608 357.027 107.551 355.01 107.458C352.993 107.365 350.981 107.272 348.965 107.101Z" fill="#263238"/>
<path d="M349.544 104.785C351.524 104.785 353.505 104.826 355.485 104.852L361.422 104.935C363.402 104.976 365.378 104.986 367.358 104.992C369.339 104.997 371.314 104.992 373.3 104.924C371.325 105.147 369.344 105.229 367.364 105.286C365.383 105.343 363.397 105.333 361.417 105.322C359.436 105.312 357.456 105.24 355.475 105.147C353.494 105.054 351.519 104.935 349.544 104.785Z" fill="#263238"/>
<path d="M351.059 104.831C350.949 105.204 350.864 105.584 350.805 105.969C350.773 106.157 350.754 106.347 350.749 106.538C350.749 106.729 350.749 106.92 350.749 107.127C350.557 106.76 350.49 106.341 350.557 105.933C350.611 105.524 350.786 105.14 351.059 104.831Z" fill="#263238"/>
<path d="M351.586 104.816C351.476 105.187 351.391 105.565 351.333 105.948C351.301 106.136 351.282 106.326 351.276 106.517C351.276 106.708 351.276 106.905 351.276 107.107C351.083 106.74 351.016 106.32 351.085 105.912C351.139 105.505 351.314 105.123 351.586 104.816Z" fill="#263238"/>
<path d="M357.957 105.043C357.845 105.414 357.759 105.793 357.699 106.176C357.668 106.367 357.657 106.553 357.642 106.745C357.626 106.936 357.642 107.132 357.642 107.334C357.45 106.967 357.383 106.548 357.451 106.14C357.504 105.731 357.68 105.348 357.957 105.043Z" fill="#263238"/>
<path d="M358.485 105.022C358.373 105.395 358.287 105.776 358.226 106.16C358.195 106.346 358.185 106.538 358.169 106.729C358.154 106.92 358.169 107.112 358.169 107.318C357.977 106.95 357.91 106.529 357.978 106.119C358.031 105.71 358.208 105.328 358.485 105.022Z" fill="#263238"/>
<path d="M365.269 107.525C365.381 107.152 365.467 106.772 365.528 106.388C365.559 106.201 365.569 106.01 365.585 105.819C365.6 105.627 365.585 105.436 365.585 105.229C365.779 105.595 365.846 106.015 365.776 106.424C365.726 106.835 365.549 107.22 365.269 107.525Z" fill="#263238"/>
<path d="M364.742 107.541C364.854 107.17 364.94 106.791 365.001 106.408C365.032 106.217 365.042 106.031 365.057 105.84C365.073 105.648 365.057 105.452 365.057 105.25C365.249 105.617 365.316 106.036 365.249 106.445C365.198 106.854 365.021 107.237 364.742 107.541Z" fill="#263238"/>
<path d="M370.534 107.339C370.643 106.966 370.728 106.586 370.787 106.202C370.816 106.013 370.835 105.823 370.844 105.633C370.844 105.441 370.844 105.25 370.844 105.043C371.04 105.409 371.109 105.829 371.04 106.238C370.985 106.647 370.809 107.031 370.534 107.339Z" fill="#263238"/>
<path d="M370.006 107.37C370.116 106.999 370.201 106.62 370.259 106.237C370.289 106.049 370.308 105.859 370.316 105.669C370.316 105.477 370.316 105.281 370.316 105.079C370.512 105.445 370.581 105.865 370.513 106.274C370.457 106.681 370.28 107.063 370.006 107.37Z" fill="#263238"/>
<path d="M365.9 98.641C367.184 98.6697 368.462 98.8098 369.722 99.0599C370.353 99.1943 370.973 99.3598 371.594 99.5408C371.899 99.6339 372.209 99.7115 372.519 99.789C372.841 99.8796 373.173 99.9249 373.507 99.9235C373.513 99.9259 373.517 99.9299 373.521 99.9349C373.524 99.94 373.526 99.9459 373.526 99.9519C373.526 99.958 373.524 99.9639 373.521 99.9689C373.517 99.974 373.513 99.978 373.507 99.9804C373.197 100.021 372.884 100.038 372.571 100.032C372.267 100.014 371.964 99.9725 371.666 99.908C371.025 99.7787 370.394 99.6184 369.758 99.4788C368.47 99.2047 367.172 98.9306 365.89 98.76C365.833 98.7548 365.838 98.6359 365.9 98.641Z" fill="#263238"/>
<path d="M362.875 100.192C363.908 99.9842 364.953 99.8426 366.004 99.7684C366.521 99.7322 367.038 99.7374 367.555 99.7684L368.315 99.8046C368.589 99.8046 368.869 99.8873 369.143 99.9029C369.174 99.9029 369.179 99.9546 369.143 99.9546C368.879 99.9546 368.626 99.9959 368.357 100.011L367.571 100.048C367.053 100.074 366.536 100.11 366.019 100.13C364.985 100.172 363.92 100.223 362.87 100.311C362.823 100.301 362.818 100.203 362.875 100.192Z" fill="#263238"/>
<path d="M360.698 86.2356C358.723 88.935 348.21 99.9289 347.832 100.968C347.455 102.008 349.782 104.299 349.745 104.723C349.58 106.465 345.769 118.075 344.264 116.89C342.283 115.339 333.922 104.164 335.116 99.3497C336.311 94.5354 356.396 83.1484 359.519 82.1555C362.642 81.1627 362.653 83.5828 360.698 86.2356Z" fill="#AD6359"/>
<path d="M353.122 96.5779L347.434 88.5057C347.434 88.5057 353.867 84.3222 358.154 82.5226C362.441 80.723 364.561 81.7521 360.621 87.2853C358.312 90.5318 355.808 93.6351 353.122 96.5779Z" fill="#D2CAF3"/>
<path d="M349.104 87.9885C350.011 89.0434 350.89 90.1224 351.742 91.2256C352.16 91.7686 352.59 92.3064 352.998 92.8545C353.407 93.4027 353.805 94.0232 354.234 94.5921C354.234 94.6334 354.203 94.6852 354.172 94.6438C353.743 94.1267 353.277 93.6095 352.843 93.0924C352.409 92.5753 351.974 91.9806 351.54 91.4221C350.687 90.3207 349.854 89.1934 349.058 88.0505C349.042 87.9988 349.104 87.9574 349.104 87.9885Z" fill="#263238"/>
<path d="M353.112 96.6193C353.996 95.4558 355.03 94.4216 355.987 93.3149C356.944 92.2083 357.885 91.0758 358.795 89.9278C358.795 89.902 358.862 89.9278 358.841 89.9588C358.417 90.5587 358.009 91.1637 357.564 91.7429C357.347 92.0325 357.114 92.3169 356.887 92.5961L357.223 92.3221C357.569 92.0607 357.93 91.819 358.304 91.5981C358.304 91.5981 358.34 91.5981 358.304 91.6291C357.984 91.9252 357.649 92.2048 357.3 92.4669C357.047 92.653 356.783 92.8288 356.525 92.984L356.116 93.4701C355.226 94.619 354.233 95.6836 353.148 96.6504C353.132 96.6969 353.081 96.6555 353.112 96.6193Z" fill="#263238"/>
<path d="M349.192 121.332C350.542 120.427 348.675 119.352 348.675 119.352C348.675 119.352 351.705 120.257 352.734 118.783C353.763 117.309 351.452 116.14 351.292 116.047C351.452 116.094 354.255 116.854 355.139 115.266C356.023 113.679 353.588 112.784 353.401 112.727C353.567 112.727 355.754 112.639 356.153 111.279C356.835 108.942 350.557 108.652 349.208 107.215C349.208 107.215 349.828 104.112 349.875 104.04C349.464 104.731 348.832 105.263 348.08 105.55C346.725 105.932 345.495 106.15 344.947 106.801C344.689 107.086 344.53 107.445 344.493 107.827C344.456 108.209 344.542 108.592 344.74 108.921C344.74 108.921 343.023 108.715 342.289 109.956C341.911 110.587 342.588 111.75 342.588 111.75C342.197 111.724 341.807 111.807 341.46 111.989C341.113 112.172 340.823 112.447 340.623 112.784C340.153 113.684 340.903 114.713 340.903 114.713C340.903 114.713 339.527 115.23 339.351 116.306C339 118.452 346.291 123.261 349.192 121.332Z" fill="#AD6359"/>
<path d="M342.563 111.714C342.563 111.714 342.501 111.714 342.527 111.766C344.849 114.236 347.978 115.794 351.349 116.162C351.467 116.162 351.581 116.058 351.447 116.037C349.171 115.681 344.776 113.467 342.563 111.714Z" fill="#263238"/>
<path d="M353.67 112.65C350.382 112.262 347.543 110.861 344.838 108.999C344.802 108.999 344.771 109.03 344.797 109.056C345.872 110.328 347.718 111.331 349.223 111.993C350.61 112.632 352.139 112.898 353.66 112.764C353.717 112.758 353.758 112.66 353.67 112.65Z" fill="#263238"/>
<path d="M340.83 114.672C340.559 114.394 340.37 114.046 340.285 113.667C340.201 113.288 340.223 112.893 340.349 112.526C340.503 112.178 340.779 111.898 341.125 111.74C341.538 111.603 341.977 111.564 342.408 111.626C342.174 111.283 342.049 110.878 342.049 110.463C342.049 110.048 342.174 109.642 342.408 109.299C342.664 109.008 343.02 108.823 343.406 108.782C343.854 108.739 344.307 108.759 344.75 108.839C344.566 108.621 344.436 108.365 344.368 108.088C344.301 107.812 344.299 107.523 344.362 107.246C344.447 106.946 344.601 106.669 344.812 106.439C345.023 106.209 345.285 106.032 345.577 105.922C346.267 105.68 346.982 105.517 347.708 105.436C348.08 105.38 348.445 105.281 348.794 105.141C349.169 104.969 349.485 104.688 349.699 104.335C349.74 104.273 349.735 104.335 349.699 104.392C349.561 104.629 349.387 104.844 349.182 105.028C348.958 105.217 348.712 105.377 348.447 105.503C347.789 105.747 347.113 105.943 346.426 106.088C345.811 106.237 345.265 106.589 344.874 107.086C344.701 107.347 344.604 107.651 344.593 107.964C344.582 108.277 344.658 108.587 344.812 108.859C344.812 108.859 344.812 108.927 344.766 108.922C344.363 108.919 343.963 108.964 343.571 109.056C343.244 109.14 342.951 109.32 342.728 109.573C342.523 109.893 342.405 110.26 342.386 110.639C342.367 111.019 342.448 111.396 342.62 111.735C342.182 111.755 341.751 111.853 341.347 112.024C341.088 112.18 340.879 112.408 340.748 112.681C340.595 112.993 340.533 113.34 340.566 113.685C340.6 114.031 340.729 114.36 340.939 114.636C340.939 114.636 340.939 114.636 340.939 114.662C340.939 114.662 340.499 114.843 340.479 114.843C340.458 114.843 340.479 114.843 340.479 114.843C340.592 114.778 340.71 114.721 340.83 114.672Z" fill="#263238"/>
<path d="M364.313 87.0318L361.365 81.5297L361.794 81.2246L364.845 86.9646L364.313 87.0318Z" fill="#455A64"/>
<path d="M370.932 86.1683L367.798 81.3022L368.46 81.5298L371.444 86.1011L370.932 86.1683Z" fill="#455A64"/>
<path d="M362.549 81.6643C362.73 82.1452 365.497 85.0359 367.721 84.6429C368.45 84.5084 367.912 80.5059 367.912 80.5059V80.2008L368.305 75.9294L363.066 73.4266L362.311 73.106C362.311 73.106 362.28 74.2798 362.26 75.7433C362.26 75.8105 362.26 75.8777 362.26 75.9501C362.26 76.0225 362.26 76.1104 362.26 76.188V76.8551C362.26 77.0257 362.26 77.1912 362.26 77.3722C362.26 77.5532 362.26 77.7238 362.26 77.8893C362.271 79.1527 362.368 80.4139 362.549 81.6643Z" fill="#AD6359"/>
<path d="M362.234 75.7433C362.804 76.8525 363.607 77.8249 364.589 78.5936C365.571 79.3623 366.709 79.9088 367.922 80.1956L368.315 75.9243L363.066 73.4266L362.311 73.106C362.311 73.106 362.255 74.2746 362.234 75.7433Z" fill="#263238"/>
<path d="M373.791 69.5433C374.826 77.0001 370.466 78.4532 368.858 78.6756C367.4 78.8721 362.399 79.3633 360.584 72.0513C358.769 64.7392 361.939 61.9054 365.238 61.2745C368.537 60.6436 372.768 62.0812 373.791 69.5433Z" fill="#AD6359"/>
<path d="M372.255 68.3899C372.083 68.3881 371.91 68.3761 371.738 68.3537C371.555 68.362 371.374 68.3113 371.221 68.2089C371.179 68.167 371.152 68.1126 371.144 68.0538C371.135 67.9951 371.146 67.9352 371.175 67.8832C371.249 67.7897 371.348 67.7179 371.46 67.6751C371.571 67.6324 371.693 67.6203 371.811 67.6401C372.057 67.6421 372.293 67.7362 372.473 67.9038C372.514 67.9445 372.542 67.9968 372.552 68.0536C372.563 68.1105 372.556 68.1692 372.532 68.2221C372.509 68.2749 372.47 68.3192 372.42 68.3492C372.371 68.3792 372.313 68.3934 372.255 68.3899Z" fill="#263238"/>
<path d="M366.96 68.9328C367.136 68.8851 367.309 68.8264 367.477 68.757C367.66 68.7202 367.826 68.6238 367.948 68.4829C367.977 68.4312 367.989 68.3711 367.98 68.3121C367.972 68.2531 367.944 68.1986 367.902 68.1572C367.805 68.0784 367.689 68.0283 367.565 68.0128C367.442 67.9972 367.316 68.0168 367.203 68.0692C366.969 68.135 366.768 68.2864 366.64 68.4933C366.603 68.542 366.583 68.6012 366.583 68.6621C366.582 68.723 366.601 68.7825 366.637 68.8317C366.673 68.881 366.724 68.9174 366.782 68.9356C366.84 68.9538 366.903 68.9528 366.96 68.9328Z" fill="#263238"/>
<path d="M368.238 70.2463C368.238 70.2463 368.201 70.2774 368.207 70.298C368.32 70.8152 368.362 71.4047 367.932 71.6632C367.932 71.6632 367.932 71.6943 367.932 71.6891C368.501 71.5029 368.434 70.7066 368.238 70.2463Z" fill="#263238"/>
<path d="M367.69 69.8015C366.862 69.8946 367.11 71.5493 367.876 71.4614C368.641 71.3735 368.388 69.7239 367.69 69.8015Z" fill="#263238"/>
<path d="M367.379 69.9412C367.25 70.055 367.131 70.2411 366.96 70.2825C366.79 70.3239 366.583 70.1843 366.443 70.0343C366.443 70.0343 366.412 70.0343 366.443 70.0343C366.485 70.3497 366.655 70.66 367.002 70.6548C367.348 70.6497 367.519 70.3394 367.519 70.0084C367.498 69.9722 367.431 69.8947 367.379 69.9412Z" fill="#263238"/>
<path d="M371.34 69.6204C371.34 69.6204 371.382 69.6204 371.387 69.6617C371.428 70.1788 371.557 70.7632 372.043 70.8821V70.9132C371.449 70.877 371.283 70.0961 371.34 69.6204Z" fill="#263238"/>
<path d="M371.728 69.0101C372.55 68.8602 372.793 70.5098 372.033 70.6545C371.273 70.7993 371.04 69.1394 371.728 69.0101Z" fill="#263238"/>
<path d="M372.09 69.0674C372.23 69.1398 372.385 69.2795 372.54 69.2639C372.695 69.2484 372.829 69.0519 372.922 68.8606H372.948C373.005 69.176 372.948 69.5225 372.654 69.6259C372.359 69.7294 372.136 69.4811 372.023 69.176C371.997 69.1398 372.028 69.0416 372.09 69.0674Z" fill="#263238"/>
<path d="M370.895 72.4027C370.895 72.4027 371.097 73.1577 371.149 73.5197C371.149 73.5507 371.066 73.5765 370.942 73.6024C370.639 73.7001 370.315 73.7122 370.006 73.6374C369.696 73.5625 369.414 73.4037 369.189 73.1784C369.181 73.1722 369.177 73.1633 369.176 73.1536C369.175 73.1439 369.178 73.1342 369.184 73.1266C369.19 73.1191 369.199 73.1143 369.208 73.1134C369.218 73.1124 369.228 73.1153 369.235 73.1215C369.739 73.3775 370.312 73.4646 370.869 73.3697C370.869 73.2663 370.471 72.0872 370.528 72.0769C370.813 72.0662 371.098 72.0923 371.376 72.1545C370.994 70.5773 370.342 69.0518 370.001 67.5004C370 67.4891 370.002 67.4777 370.008 67.468C370.014 67.4583 370.023 67.4508 370.033 67.4466C370.044 67.4425 370.056 67.442 370.067 67.4452C370.078 67.4484 370.087 67.455 370.094 67.4642C370.822 69.0599 371.389 70.7248 371.785 72.4337C371.826 72.6199 371.045 72.4441 370.895 72.4027Z" fill="#263238"/>
<path d="M370.89 73.4731C370.729 73.7953 370.487 74.0698 370.187 74.2695C370.021 74.375 369.825 74.4257 369.628 74.4143C369.199 74.3832 369.111 74.0109 369.111 73.68C369.121 73.5048 369.15 73.3312 369.199 73.1628C369.715 73.4464 370.308 73.5552 370.89 73.4731Z" fill="#263238"/>
<path d="M370.187 74.2747C370.021 74.3802 369.825 74.4309 369.628 74.4195C369.199 74.3885 369.111 74.0161 369.111 73.6852C369.331 73.6459 369.557 73.683 369.753 73.7902C369.949 73.8975 370.102 74.0684 370.187 74.2747Z" fill="#FF9BBC"/>
<path d="M360.998 71.844C362.224 71.844 362.26 69.2584 362.26 69.2584C362.26 69.2584 364.726 69.0309 365.202 65.4059C365.233 66.4752 364.951 67.5302 364.39 68.4413C364.39 68.4413 368.693 67.5674 370.177 63.7562C370.177 63.7562 369.624 65.6747 369.003 66.4039C370.074 65.9611 370.964 65.1681 371.527 64.1544C371.527 64.1544 372.483 66.1815 373.124 66.7038C373.124 66.7038 372.225 59.1125 365.249 60.5966C365.249 60.5966 360.864 61.3103 359.612 64.956C358.361 68.6016 360.998 71.844 360.998 71.844Z" fill="#263238"/>
<path d="M362.301 71.9373C362.301 71.9373 360.543 69.6723 359.509 70.3136C358.474 70.9548 359.876 74.2902 361.148 74.6935C361.308 74.7567 361.479 74.7867 361.651 74.7819C361.823 74.777 361.992 74.7374 362.148 74.6654C362.304 74.5934 362.444 74.4905 362.559 74.3629C362.674 74.2353 362.762 74.0857 362.818 73.923L362.301 71.9373Z" fill="#AD6359"/>
<path d="M424.51 145.401L418.193 173.969L436.883 154.921L512.796 115.428L424.51 145.401Z" fill="#A998EE"/>
<path opacity="0.1" d="M424.51 145.401L418.193 173.969L436.883 154.921L512.796 115.428L424.51 145.401Z" fill="black"/>
<path d="M440.824 161.036L418.193 173.968L437.256 155.14L440.824 161.036Z" fill="#263238"/>
<path d="M437.305 155.025L512.796 115.428L456.238 188.171L437.305 155.025Z" fill="#A998EE"/>
<path d="M424.774 145.424L388.887 128.592L512.816 115.618L424.774 145.424Z" fill="#A998EE"/>
</svg>
