<svg width="808" height="320" viewBox="0 0 808 320" fill="none" xmlns="http://www.w3.org/2000/svg">
<path fill-rule="evenodd" clip-rule="evenodd" d="M410.232 197.624C442.023 196.029 474.902 194.578 504.42 198.586C538.393 203.198 579.853 209.863 584.677 221.306C589.613 233.013 536.446 239.326 526.395 250.712C515.444 263.115 554.041 279.064 525.479 288.356C498.248 297.215 448.681 291.153 410.232 288.503C378.733 286.331 355.249 279.475 326.92 274.668C292.748 268.869 242.103 268.676 227.326 257.465C212.654 246.334 238.278 233.73 259.782 223.734C277.468 215.513 308.031 211.865 335.787 207.048C359.773 202.885 383.123 198.985 410.232 197.624Z" fill="#D60040" fill-opacity="0.04"/>
<path d="M447.661 135.548C447.651 135.732 447.573 135.906 447.443 136.036C447.312 136.167 447.138 136.244 446.954 136.255L443.896 136.135C441.926 128.754 439.588 122.807 440.125 125.088C440.924 128.667 441.181 132.345 440.887 136L434.856 135.661C433.818 122.948 431.769 113.343 431.656 116.224C431.19 127.829 430.117 131.459 428.902 135.329C414.345 134.468 395.276 133.14 381.51 131.876C380.656 124.813 380.055 117.192 379.759 117.686C377.47 121.394 376.362 126.995 375.86 131.346C371.481 130.915 367.992 130.491 365.873 130.124C365.873 130.124 365.464 124.213 365.52 122.284C365.652 117.345 366.693 112.473 368.592 107.912C370.563 103.229 373.536 99.2172 376.362 95.0925C376.379 95.0597 376.401 95.0289 376.425 95.0007C376.425 95.0007 376.425 95.0007 376.425 94.9654C378.298 92.2871 379.844 89.3944 381.03 86.3487C381.035 86.3279 381.035 86.306 381.03 86.2852C381.848 84.0789 382.472 81.8055 382.895 79.4907C384.434 71.0153 390.014 64.1715 398.263 62.7589C413.279 52.9487 429.425 57.7019 432.871 69.1154C433.203 70.2314 433.5 71.4956 433.775 72.8729V72.9152C434.799 78.0005 435.513 84.5406 436.268 89.6188C436.268 89.6188 436.268 89.6188 436.268 89.6753C436.539 91.6648 436.937 93.6348 437.462 95.5728C440.443 104.91 448.642 110.878 447.661 135.548Z" fill="#263238"/>
<path d="M394.633 64.7503C389.082 66.9327 385.451 70.5983 383.961 76.7571C383.099 80.3309 382.485 83.8199 380.733 87.1253C378.982 90.4307 376.34 93.164 373.67 95.8055C369.433 100.043 366.396 104.323 365.195 110.369C363.994 116.415 363.479 123.852 364.955 129.855H365.011C363.931 123.81 364.75 115.687 366.424 109.649C368.289 103.024 372.562 99.1745 377.018 94.4565C380.564 90.7959 383.053 86.2445 384.222 81.2844C384.929 78.2544 385.232 75.0479 386.779 72.2793C388.622 68.9809 391.801 67.0881 394.93 65.4424C394.975 65.423 395.016 65.3947 395.051 65.3593C395.085 65.324 395.112 65.2821 395.131 65.2362C395.149 65.1903 395.158 65.1412 395.158 65.0918C395.157 65.0423 395.147 64.9935 395.127 64.948C395.108 64.9026 395.08 64.8614 395.044 64.8269C395.009 64.7924 394.967 64.7651 394.921 64.7468C394.875 64.7284 394.826 64.7193 394.777 64.7199C394.727 64.7205 394.678 64.7308 394.633 64.7503Z" fill="#263238"/>
<path d="M445.365 106.075C442.166 100.856 438.741 96.3286 437.201 90.1063C435.788 84.456 435.28 78.5374 433.846 72.873C433.846 72.8543 433.839 72.8363 433.825 72.8231C433.812 72.8098 433.794 72.8024 433.775 72.8024C433.757 72.8024 433.739 72.8098 433.725 72.8231C433.712 72.8363 433.705 72.8543 433.705 72.873C435.788 82.8881 435.35 92.7266 440.768 101.534C443.699 106.323 446.665 110.779 448.346 116.323C450.032 122.129 450.598 128.203 450.013 134.221C450.013 134.433 450.267 134.454 450.309 134.221C452.244 124.551 450.48 114.507 445.365 106.075Z" fill="#263238"/>
<path d="M484.303 91.6604L464.675 128.62C463.969 129.673 464.315 130.739 465.452 131.036L485.786 136.043C486.419 136.147 487.069 136.069 487.66 135.819C488.251 135.569 488.759 135.157 489.127 134.631L508.754 97.6709C509.46 96.6185 509.107 95.5521 507.977 95.2554L487.643 90.2549C487.011 90.1491 486.361 90.225 485.769 90.4738C485.178 90.7226 484.669 91.1341 484.303 91.6604Z" fill="#37474F"/>
<path d="M486.718 92.2325L467.09 129.192C466.384 130.245 466.737 131.311 467.874 131.608L488.208 136.615C488.841 136.72 489.49 136.642 490.08 136.392C490.67 136.142 491.177 135.73 491.542 135.203L511.169 98.2358C511.876 97.1835 511.53 96.117 510.393 95.8204L490.059 90.8199C489.425 90.7148 488.775 90.7918 488.184 91.0418C487.592 91.2919 487.084 91.7048 486.718 92.2325Z" fill="#455A64"/>
<path d="M491.853 95.4036C491.761 95.7434 491.571 96.0484 491.306 96.2801C491.041 96.5117 490.713 96.6596 490.364 96.7051C490.015 96.7506 489.661 96.6916 489.345 96.5356C489.03 96.3796 488.768 96.1336 488.592 95.8286C488.416 95.5237 488.335 95.1735 488.358 94.8224C488.382 94.4712 488.509 94.1349 488.723 93.8558C488.937 93.5767 489.23 93.3675 489.563 93.2546C489.896 93.1416 490.256 93.13 490.596 93.2212C490.822 93.2818 491.033 93.3864 491.219 93.5289C491.404 93.6714 491.56 93.8491 491.677 94.0518C491.793 94.2545 491.869 94.4782 491.899 94.7102C491.929 94.9421 491.914 95.1778 491.853 95.4036Z" fill="#263238"/>
<path d="M401.23 142.689C409.705 169.252 431.826 205.202 442.717 206.777C447.901 207.526 457.012 209.984 464.611 204.912C481.188 193.838 497.715 171.717 502.842 158.828C504.763 154.004 479.62 137.47 475.439 141.121C465.643 149.667 453.233 167.345 451.743 167.035C446.213 165.876 426.748 144.822 413.18 130.011C396.702 112.029 397.854 132.102 401.23 142.689Z" fill="#AD6359"/>
<path d="M508.881 135.556C508.881 124.848 507.257 122.094 512.073 113.06C515.238 107.135 512.78 102.572 507.031 106.499C497.581 112.926 494.657 126.734 495.024 131.819L508.881 135.556Z" fill="#AD6359"/>
<path d="M499.46 165.029C499.46 165.029 507.532 152.154 508.684 140.74C509.475 132.851 509.291 115.483 490.214 101.471C485.687 98.1442 476.88 96.6187 482.297 104.734C486.146 110.497 490.334 112.99 491.959 116.741C491.959 116.741 480.531 116.133 477.374 120.795C474.63 124.878 472.177 129.149 470.036 133.578C470.757 134.156 471.514 134.687 472.303 135.168C472.303 135.168 469.478 139.631 471.335 147.45L499.46 165.029Z" fill="#AD6359"/>
<path d="M508.239 133.126C505.83 129.736 500.611 122.63 494.325 118.294C487.333 113.491 472.578 106.125 469.089 111.323C466.533 115.13 471.914 118.435 471.914 118.435C471.914 118.435 465.177 116.677 463.616 120.625C462.203 124.22 466.511 126.529 466.511 126.529C466.511 126.529 462.274 126.162 461.567 129.891C460.72 134.376 469.817 134.404 472.868 139.687C473.567 140.853 508.239 133.126 508.239 133.126Z" fill="#AD6359"/>
<path d="M490.518 126.501C487.728 123.676 479.761 118.909 472.105 118.337C471.936 118.337 471.83 118.45 471.985 118.492C478.451 120.426 484.658 123.139 490.468 126.572C490.476 126.593 490.518 126.537 490.518 126.501Z" fill="#263238"/>
<path d="M485.426 133.415C482.77 131.233 474.344 126.677 466.568 126.353C466.391 126.353 466.3 126.48 466.455 126.515C473.008 128.112 479.358 130.448 485.383 133.479C485.426 133.507 485.461 133.444 485.426 133.415Z" fill="#263238"/>
<path d="M413.131 176.633L434.722 149.597C434.722 149.597 417.538 130.64 406.555 122.758C400.403 118.358 396.9 123.076 397.769 129.856C400.82 153.608 413.131 176.633 413.131 176.633Z" fill="#694ED6"/>
<path d="M413.131 176.633L434.722 149.597C434.722 149.597 417.538 130.64 406.555 122.758C400.403 118.358 396.9 123.076 397.769 129.856C400.82 153.608 413.131 176.633 413.131 176.633Z" fill="#694ED6"/>
<path d="M427.85 143.522C427.591 143.506 427.331 143.544 427.088 143.632C426.844 143.72 426.621 143.857 426.432 144.035C426.243 144.212 426.093 144.427 425.99 144.665C425.887 144.903 425.834 145.159 425.834 145.418C425.834 145.678 425.887 145.934 425.99 146.172C426.093 146.41 426.243 146.625 426.432 146.802C426.621 146.98 426.844 147.117 427.088 147.205C427.331 147.293 427.591 147.331 427.85 147.315C428.332 147.285 428.786 147.073 429.117 146.72C429.449 146.368 429.634 145.902 429.634 145.418C429.634 144.935 429.449 144.469 429.117 144.117C428.786 143.764 428.332 143.552 427.85 143.522ZM427.85 146.99C427.539 146.991 427.235 146.9 426.976 146.729C426.717 146.557 426.515 146.312 426.395 146.025C426.276 145.738 426.244 145.423 426.304 145.118C426.365 144.813 426.514 144.533 426.734 144.313C426.953 144.094 427.233 143.944 427.538 143.884C427.843 143.824 428.159 143.855 428.446 143.975C428.733 144.094 428.977 144.296 429.149 144.555C429.321 144.814 429.412 145.118 429.41 145.429C429.409 145.842 429.243 146.238 428.951 146.531C428.659 146.823 428.263 146.988 427.85 146.99ZM410.397 149.37C410.023 149.37 409.657 149.481 409.346 149.689C409.034 149.897 408.792 150.193 408.649 150.539C408.505 150.884 408.468 151.265 408.541 151.632C408.614 151.999 408.794 152.337 409.059 152.601C409.324 152.866 409.661 153.046 410.028 153.119C410.395 153.192 410.776 153.155 411.122 153.012C411.468 152.868 411.763 152.626 411.971 152.314C412.179 152.003 412.29 151.637 412.29 151.263C412.29 150.761 412.091 150.279 411.736 149.924C411.381 149.569 410.899 149.37 410.397 149.37ZM410.397 152.824C410.087 152.824 409.783 152.732 409.525 152.559C409.267 152.386 409.066 152.141 408.948 151.854C408.83 151.567 408.799 151.252 408.86 150.947C408.921 150.643 409.071 150.364 409.291 150.145C409.511 149.926 409.791 149.777 410.096 149.717C410.4 149.657 410.716 149.689 411.002 149.809C411.289 149.929 411.533 150.131 411.704 150.39C411.876 150.649 411.967 150.952 411.965 151.263C411.96 151.674 411.792 152.067 411.498 152.355C411.204 152.644 410.809 152.804 410.397 152.803V152.824ZM411.775 134.234C411.398 134.233 411.029 134.344 410.716 134.552C410.402 134.761 410.157 135.058 410.013 135.406C409.868 135.753 409.831 136.136 409.904 136.506C409.978 136.875 410.16 137.214 410.427 137.48C410.693 137.746 411.033 137.927 411.403 137.999C411.773 138.071 412.155 138.032 412.503 137.886C412.85 137.74 413.146 137.495 413.354 137.18C413.561 136.866 413.67 136.497 413.667 136.12C413.668 135.871 413.62 135.623 413.525 135.393C413.431 135.162 413.292 134.952 413.116 134.775C412.94 134.598 412.731 134.457 412.501 134.361C412.271 134.264 412.024 134.214 411.775 134.213V134.234ZM411.775 137.702C411.463 137.705 411.157 137.615 410.896 137.444C410.636 137.273 410.432 137.029 410.31 136.741C410.189 136.454 410.155 136.138 410.213 135.831C410.272 135.525 410.42 135.243 410.639 135.021C410.858 134.799 411.138 134.647 411.444 134.584C411.749 134.522 412.066 134.551 412.355 134.669C412.644 134.787 412.891 134.987 413.066 135.246C413.24 135.504 413.334 135.808 413.335 136.12C413.332 136.533 413.166 136.928 412.874 137.22C412.582 137.512 412.187 137.677 411.775 137.681V137.702ZM397.727 126.359C397.727 126.465 397.727 126.571 397.691 126.684C398.007 126.782 398.284 126.977 398.483 127.241C398.682 127.505 398.791 127.826 398.797 128.157C398.802 128.487 398.703 128.811 398.514 129.082C398.324 129.353 398.053 129.557 397.741 129.665C397.741 129.742 397.741 129.827 397.741 129.905C397.741 129.983 397.741 129.961 397.741 129.99C398.131 129.868 398.471 129.623 398.71 129.292C398.95 128.961 399.076 128.562 399.069 128.153C399.063 127.745 398.924 127.35 398.675 127.026C398.425 126.703 398.078 126.469 397.684 126.359H397.727ZM423.682 163.439C423.656 163.072 423.524 162.72 423.3 162.427C423.077 162.133 422.773 161.912 422.426 161.789C422.078 161.666 421.703 161.647 421.345 161.735C420.987 161.822 420.662 162.012 420.411 162.282C420.159 162.551 419.992 162.888 419.929 163.251C419.866 163.614 419.911 163.987 420.057 164.325C420.204 164.663 420.446 164.952 420.753 165.154C421.061 165.357 421.421 165.465 421.79 165.466C421.886 165.473 421.983 165.473 422.079 165.466L422.439 165.021C422.236 165.115 422.014 165.164 421.79 165.162C421.478 165.162 421.174 165.07 420.915 164.897C420.656 164.724 420.454 164.478 420.334 164.19C420.215 163.902 420.184 163.586 420.245 163.28C420.306 162.975 420.456 162.694 420.676 162.474C420.896 162.254 421.177 162.104 421.482 162.043C421.788 161.982 422.105 162.013 422.392 162.132C422.68 162.252 422.926 162.453 423.099 162.712C423.272 162.971 423.365 163.276 423.365 163.587C423.375 163.693 423.375 163.8 423.365 163.905L423.682 163.439Z" fill="white"/>
<path opacity="0.1" d="M432.25 152.676L413.138 176.64C413.138 176.64 400.82 153.608 397.769 129.891C397.169 125.23 398.645 121.55 401.611 121.133L432.25 152.676Z" fill="black"/>
<path d="M429.707 147.139C426.041 151.023 416.408 161.85 411.061 169.74C411.026 169.789 411.195 169.93 411.231 169.888C416.662 164.026 426.642 151.574 429.954 147.386C430.018 147.252 429.778 147.068 429.707 147.139Z" fill="#263238"/>
<path d="M334.592 214.667L427.701 214.448L422.552 182.432C422.552 182.432 429.919 173.498 428.527 163.808C426.995 153.213 407.847 126.262 406.237 124.743C399.754 118.662 392.888 117.567 386.299 119.764C355.837 138.904 334.592 214.667 334.592 214.667Z" fill="#694ED6"/>
<path d="M425.738 202.243C425.532 202.491 425.255 202.67 424.944 202.755C424.633 202.84 424.304 202.828 424 202.719C423.697 202.61 423.435 202.41 423.249 202.147C423.063 201.884 422.963 201.569 422.962 201.247C422.961 201.04 423.001 200.834 423.08 200.642C423.159 200.45 423.274 200.276 423.421 200.129C423.567 199.982 423.741 199.865 423.933 199.785C424.124 199.706 424.33 199.665 424.537 199.665C424.83 199.663 425.117 199.747 425.363 199.905L425.3 199.502C425.06 199.394 424.8 199.339 424.537 199.34C424.229 199.339 423.924 199.413 423.651 199.556C423.378 199.699 423.143 199.906 422.968 200.16C422.792 200.413 422.681 200.706 422.644 201.012C422.608 201.319 422.646 201.629 422.756 201.917C422.866 202.206 423.044 202.463 423.276 202.666C423.507 202.87 423.785 203.014 424.085 203.087C424.385 203.159 424.698 203.157 424.997 203.082C425.296 203.006 425.572 202.859 425.801 202.653L425.738 202.243ZM406.943 192.454C406.567 192.452 406.199 192.563 405.886 192.771C405.573 192.978 405.328 193.275 405.183 193.622C405.038 193.969 405 194.351 405.072 194.72C405.145 195.089 405.325 195.428 405.59 195.695C405.856 195.961 406.194 196.143 406.563 196.217C406.932 196.29 407.314 196.253 407.662 196.11C408.009 195.966 408.307 195.723 408.516 195.41C408.725 195.097 408.836 194.73 408.836 194.354C408.836 193.851 408.637 193.369 408.282 193.013C407.928 192.657 407.446 192.456 406.943 192.454ZM406.943 195.922C406.631 195.923 406.326 195.832 406.066 195.659C405.806 195.487 405.603 195.241 405.483 194.953C405.363 194.665 405.331 194.347 405.391 194.041C405.452 193.735 405.602 193.454 405.823 193.233C406.043 193.012 406.325 192.862 406.631 192.802C406.937 192.741 407.254 192.773 407.542 192.893C407.83 193.013 408.076 193.216 408.249 193.476C408.421 193.736 408.513 194.042 408.511 194.354C408.511 194.77 408.346 195.17 408.053 195.465C407.759 195.76 407.36 195.927 406.943 195.929V195.922ZM421.775 161.646C421.399 161.646 421.032 161.757 420.719 161.966C420.407 162.176 420.163 162.473 420.019 162.82C419.876 163.168 419.839 163.55 419.913 163.919C419.986 164.288 420.168 164.626 420.434 164.892C420.701 165.157 421.04 165.337 421.409 165.41C421.778 165.482 422.16 165.444 422.507 165.299C422.854 165.154 423.151 164.909 423.359 164.596C423.566 164.283 423.677 163.915 423.675 163.539C423.673 163.039 423.474 162.56 423.121 162.207C422.768 161.854 422.289 161.655 421.79 161.653L421.775 161.646ZM421.775 165.114C421.464 165.114 421.159 165.021 420.9 164.848C420.641 164.675 420.439 164.429 420.32 164.141C420.201 163.854 420.17 163.537 420.231 163.231C420.291 162.926 420.441 162.645 420.662 162.425C420.882 162.205 421.163 162.055 421.468 161.994C421.774 161.933 422.09 161.964 422.378 162.083C422.666 162.203 422.912 162.405 423.085 162.664C423.258 162.923 423.35 163.227 423.35 163.539C423.352 163.745 423.313 163.95 423.236 164.141C423.158 164.333 423.044 164.507 422.899 164.654C422.754 164.801 422.581 164.918 422.391 164.998C422.2 165.078 421.996 165.12 421.79 165.121L421.775 165.114ZM353.52 209.609C353.262 209.594 353.002 209.631 352.758 209.719C352.515 209.807 352.291 209.944 352.103 210.122C351.914 210.3 351.763 210.514 351.661 210.752C351.558 210.99 351.505 211.246 351.505 211.506C351.505 211.765 351.558 212.021 351.661 212.259C351.763 212.497 351.914 212.712 352.103 212.89C352.291 213.067 352.515 213.204 352.758 213.292C353.002 213.381 353.262 213.418 353.52 213.402C354.003 213.373 354.457 213.16 354.788 212.808C355.12 212.455 355.304 211.99 355.304 211.506C355.304 211.022 355.12 210.556 354.788 210.204C354.457 209.851 354.003 209.639 353.52 209.609ZM353.52 213.077C353.21 213.076 352.907 212.982 352.65 212.809C352.392 212.635 352.193 212.389 352.075 212.101C351.958 211.814 351.929 211.498 351.992 211.194C352.054 210.89 352.205 210.611 352.426 210.393C352.647 210.175 352.928 210.028 353.233 209.969C353.538 209.911 353.853 209.944 354.139 210.065C354.425 210.187 354.668 210.39 354.838 210.649C355.009 210.909 355.098 211.213 355.095 211.523C355.086 211.932 354.918 212.321 354.626 212.607C354.335 212.893 353.943 213.054 353.534 213.056L353.52 213.077ZM372.816 203.38C372.44 203.377 372.071 203.486 371.757 203.693C371.442 203.9 371.197 204.196 371.051 204.543C370.905 204.89 370.865 205.272 370.937 205.642C371.008 206.011 371.188 206.351 371.453 206.618C371.719 206.885 372.057 207.068 372.426 207.142C372.795 207.217 373.178 207.18 373.526 207.036C373.874 206.893 374.171 206.65 374.381 206.337C374.59 206.024 374.702 205.656 374.702 205.28C374.707 204.777 374.514 204.293 374.163 203.933C373.812 203.573 373.333 203.366 372.83 203.359L372.816 203.38ZM372.816 206.841C372.505 206.842 372.201 206.751 371.942 206.579C371.683 206.408 371.481 206.163 371.362 205.876C371.242 205.589 371.21 205.273 371.271 204.969C371.331 204.664 371.48 204.384 371.7 204.164C371.92 203.944 372.2 203.795 372.505 203.735C372.81 203.674 373.125 203.706 373.412 203.826C373.699 203.945 373.944 204.147 374.116 204.406C374.287 204.665 374.378 204.969 374.377 205.28C374.37 205.687 374.204 206.076 373.915 206.363C373.627 206.65 373.237 206.814 372.83 206.82L372.816 206.841ZM358.245 155.423C358.156 155.416 358.066 155.416 357.977 155.423L357.779 155.798C357.931 155.753 358.087 155.729 358.245 155.727C358.535 155.725 358.821 155.803 359.069 155.954C359.317 156.104 359.519 156.32 359.651 156.578C359.784 156.836 359.843 157.126 359.82 157.415C359.798 157.705 359.696 157.982 359.525 158.217C359.355 158.451 359.122 158.634 358.854 158.745C358.586 158.855 358.292 158.889 358.006 158.843C357.719 158.796 357.451 158.671 357.232 158.482C357.012 158.292 356.85 158.045 356.762 157.768L356.564 158.157C356.718 158.456 356.948 158.71 357.232 158.891C357.515 159.072 357.842 159.174 358.178 159.187C358.515 159.199 358.848 159.122 359.145 158.963C359.441 158.804 359.69 158.568 359.865 158.281C360.041 157.994 360.136 157.665 360.142 157.328C360.148 156.992 360.064 156.66 359.899 156.367C359.734 156.073 359.494 155.829 359.203 155.66C358.913 155.49 358.582 155.401 358.245 155.402V155.423ZM363.578 169.93C363.203 169.929 362.836 170.039 362.524 170.247C362.211 170.454 361.967 170.749 361.823 171.096C361.679 171.442 361.641 171.823 361.714 172.191C361.787 172.559 361.967 172.897 362.232 173.162C362.497 173.427 362.835 173.607 363.203 173.68C363.571 173.753 363.952 173.715 364.298 173.571C364.644 173.427 364.94 173.183 365.147 172.87C365.355 172.558 365.465 172.191 365.464 171.816C365.462 171.317 365.262 170.838 364.909 170.485C364.556 170.132 364.077 169.932 363.578 169.93ZM363.578 173.384C363.267 173.386 362.964 173.295 362.705 173.123C362.446 172.952 362.244 172.708 362.124 172.421C362.004 172.135 361.972 171.819 362.032 171.515C362.092 171.21 362.24 170.93 362.459 170.71C362.678 170.49 362.958 170.34 363.262 170.279C363.567 170.218 363.882 170.249 364.169 170.367C364.456 170.485 364.701 170.686 364.874 170.944C365.047 171.202 365.139 171.506 365.139 171.816C365.137 172.23 364.972 172.627 364.68 172.92C364.388 173.214 363.992 173.38 363.578 173.384ZM379.165 130.513C378.682 130.542 378.229 130.755 377.897 131.107C377.566 131.46 377.381 131.925 377.381 132.409C377.381 132.893 377.566 133.359 377.897 133.711C378.229 134.063 378.682 134.276 379.165 134.306C379.424 134.321 379.683 134.284 379.927 134.196C380.171 134.108 380.394 133.971 380.583 133.793C380.772 133.615 380.922 133.401 381.025 133.163C381.128 132.925 381.181 132.668 381.181 132.409C381.181 132.15 381.128 131.893 381.025 131.655C380.922 131.418 380.772 131.203 380.583 131.025C380.394 130.848 380.171 130.711 379.927 130.623C379.683 130.534 379.424 130.497 379.165 130.513ZM379.165 133.981C378.854 133.979 378.55 133.886 378.292 133.712C378.034 133.538 377.833 133.291 377.715 133.004C377.597 132.716 377.567 132.399 377.629 132.094C377.69 131.789 377.841 131.509 378.061 131.29C378.282 131.07 378.562 130.921 378.868 130.86C379.173 130.8 379.489 130.832 379.777 130.951C380.064 131.071 380.31 131.273 380.483 131.531C380.655 131.79 380.747 132.094 380.747 132.406C380.747 132.613 380.707 132.818 380.627 133.01C380.547 133.202 380.431 133.376 380.284 133.522C380.137 133.668 379.962 133.784 379.77 133.863C379.578 133.942 379.373 133.982 379.165 133.981ZM381.044 163.383C380.668 163.383 380.3 163.495 379.988 163.704C379.675 163.913 379.432 164.21 379.288 164.558C379.145 164.905 379.107 165.288 379.181 165.656C379.255 166.025 379.437 166.364 379.703 166.629C379.97 166.894 380.309 167.075 380.678 167.147C381.047 167.22 381.429 167.181 381.776 167.036C382.123 166.891 382.419 166.647 382.627 166.334C382.835 166.02 382.945 165.652 382.944 165.276C382.944 165.027 382.895 164.78 382.799 164.55C382.704 164.32 382.564 164.111 382.387 163.935C382.211 163.759 382.001 163.62 381.771 163.525C381.54 163.431 381.293 163.382 381.044 163.383ZM381.044 166.851C380.735 166.85 380.432 166.757 380.176 166.584C379.919 166.411 379.719 166.166 379.601 165.88C379.483 165.594 379.453 165.279 379.514 164.975C379.574 164.672 379.724 164.393 379.942 164.174C380.161 163.956 380.44 163.806 380.744 163.746C381.047 163.685 381.362 163.715 381.648 163.833C381.934 163.951 382.179 164.151 382.352 164.408C382.525 164.664 382.618 164.967 382.619 165.276C382.62 165.483 382.58 165.688 382.501 165.88C382.422 166.071 382.306 166.245 382.16 166.392C382.013 166.538 381.839 166.654 381.648 166.733C381.456 166.812 381.251 166.852 381.044 166.851ZM397.211 126.268C396.837 126.267 396.47 126.376 396.158 126.583C395.846 126.79 395.602 127.085 395.458 127.43C395.313 127.775 395.274 128.156 395.346 128.523C395.418 128.891 395.597 129.229 395.86 129.494C396.124 129.76 396.461 129.942 396.828 130.016C397.195 130.09 397.575 130.054 397.922 129.912C398.268 129.77 398.565 129.529 398.774 129.218C398.983 128.908 399.095 128.542 399.097 128.168C399.097 127.67 398.901 127.192 398.553 126.837C398.204 126.482 397.73 126.277 397.232 126.268H397.211ZM397.211 129.729C396.9 129.73 396.596 129.639 396.337 129.468C396.078 129.296 395.876 129.051 395.757 128.764C395.637 128.477 395.605 128.162 395.666 127.857C395.726 127.552 395.875 127.272 396.095 127.052C396.315 126.833 396.595 126.683 396.9 126.623C397.205 126.563 397.52 126.594 397.807 126.714C398.094 126.833 398.339 127.035 398.51 127.294C398.682 127.553 398.773 127.857 398.772 128.168C398.77 128.578 398.608 128.971 398.32 129.262C398.032 129.554 397.642 129.722 397.232 129.729H397.211ZM411.753 134.214C411.377 134.212 411.008 134.323 410.694 134.532C410.381 134.74 410.136 135.037 409.992 135.385C409.847 135.733 409.809 136.116 409.883 136.485C409.957 136.855 410.138 137.194 410.405 137.46C410.672 137.725 411.012 137.906 411.382 137.978C411.751 138.051 412.134 138.011 412.481 137.866C412.829 137.72 413.125 137.474 413.332 137.16C413.54 136.845 413.649 136.476 413.646 136.1C413.642 135.603 413.445 135.128 413.095 134.775C412.745 134.423 412.271 134.221 411.774 134.214H411.753ZM411.753 137.682C411.441 137.684 411.136 137.595 410.875 137.424C410.614 137.253 410.41 137.008 410.289 136.721C410.167 136.434 410.134 136.117 410.192 135.811C410.251 135.504 410.399 135.222 410.618 135C410.837 134.779 411.117 134.627 411.422 134.564C411.728 134.501 412.045 134.53 412.334 134.648C412.622 134.766 412.87 134.967 413.044 135.225C413.219 135.483 413.313 135.788 413.314 136.1C413.316 136.512 413.156 136.91 412.868 137.205C412.58 137.501 412.187 137.672 411.774 137.682H411.753ZM405.397 207.695C405.02 207.694 404.652 207.804 404.339 208.013C404.025 208.221 403.78 208.517 403.636 208.865C403.491 209.212 403.453 209.595 403.526 209.964C403.599 210.333 403.78 210.673 404.046 210.939C404.312 211.205 404.652 211.386 405.021 211.459C405.39 211.532 405.773 211.494 406.12 211.349C406.467 211.204 406.764 210.96 406.972 210.646C407.181 210.333 407.291 209.965 407.29 209.588C407.29 209.338 407.24 209.091 407.144 208.861C407.048 208.63 406.907 208.421 406.73 208.245C406.553 208.069 406.343 207.93 406.111 207.835C405.88 207.741 405.632 207.693 405.383 207.695H405.397ZM405.397 211.163C405.085 211.166 404.779 211.076 404.518 210.905C404.257 210.733 404.053 210.488 403.932 210.201C403.81 209.913 403.777 209.596 403.836 209.29C403.895 208.983 404.044 208.701 404.264 208.48C404.484 208.258 404.764 208.106 405.07 208.045C405.376 207.983 405.693 208.013 405.982 208.132C406.271 208.251 406.517 208.452 406.691 208.712C406.865 208.971 406.958 209.276 406.958 209.588C406.959 209.795 406.918 210.001 406.84 210.192C406.761 210.384 406.645 210.558 406.498 210.704C406.352 210.85 406.178 210.966 405.986 211.045C405.795 211.124 405.59 211.164 405.383 211.163H405.397ZM388.079 195.342C387.704 195.341 387.337 195.451 387.024 195.659C386.712 195.866 386.468 196.162 386.324 196.508C386.18 196.854 386.142 197.235 386.215 197.603C386.288 197.971 386.468 198.309 386.733 198.574C386.998 198.839 387.336 199.019 387.704 199.092C388.072 199.165 388.453 199.127 388.799 198.983C389.145 198.839 389.441 198.595 389.648 198.283C389.856 197.97 389.966 197.603 389.964 197.228C389.964 196.98 389.914 196.734 389.818 196.504C389.722 196.275 389.581 196.067 389.405 195.892C389.229 195.717 389.019 195.578 388.789 195.484C388.559 195.39 388.313 195.342 388.065 195.342H388.079ZM388.079 198.796C387.768 198.798 387.464 198.707 387.206 198.535C386.947 198.364 386.745 198.12 386.625 197.833C386.505 197.547 386.473 197.231 386.533 196.927C386.593 196.622 386.741 196.342 386.96 196.122C387.179 195.902 387.459 195.752 387.763 195.691C388.067 195.63 388.383 195.661 388.67 195.779C388.957 195.897 389.202 196.098 389.375 196.356C389.547 196.614 389.64 196.918 389.64 197.228C389.64 197.436 389.6 197.641 389.522 197.833C389.443 198.025 389.327 198.2 389.181 198.347C389.034 198.494 388.86 198.61 388.669 198.69C388.477 198.769 388.272 198.81 388.065 198.81L388.079 198.796ZM408.526 172.551C408.149 172.548 407.779 172.657 407.465 172.865C407.15 173.073 406.904 173.369 406.759 173.717C406.613 174.065 406.575 174.448 406.647 174.818C406.72 175.188 406.901 175.527 407.168 175.794C407.435 176.061 407.774 176.242 408.144 176.315C408.514 176.388 408.897 176.349 409.245 176.203C409.593 176.058 409.889 175.812 410.097 175.497C410.305 175.183 410.414 174.813 410.411 174.437C410.41 174.188 410.361 173.942 410.265 173.713C410.169 173.483 410.028 173.275 409.852 173.1C409.676 172.925 409.466 172.786 409.236 172.692C409.006 172.598 408.76 172.55 408.511 172.551H408.526ZM408.526 176.012C408.215 176.013 407.912 175.922 407.653 175.751C407.395 175.58 407.193 175.336 407.073 175.05C406.953 174.764 406.92 174.449 406.979 174.145C407.038 173.84 407.187 173.56 407.405 173.34C407.623 173.12 407.902 172.969 408.206 172.907C408.51 172.845 408.825 172.875 409.112 172.992C409.399 173.11 409.645 173.31 409.818 173.567C409.992 173.824 410.085 174.126 410.086 174.437C410.087 174.644 410.047 174.849 409.968 175.04C409.89 175.232 409.774 175.406 409.627 175.552C409.481 175.699 409.307 175.815 409.115 175.894C408.924 175.972 408.719 176.012 408.511 176.012H408.526ZM410.397 149.371C410.023 149.371 409.657 149.482 409.346 149.69C409.034 149.898 408.792 150.193 408.648 150.539C408.505 150.885 408.468 151.266 408.541 151.633C408.614 152 408.794 152.337 409.059 152.602C409.323 152.867 409.661 153.047 410.028 153.12C410.395 153.193 410.776 153.155 411.122 153.012C411.467 152.869 411.763 152.626 411.971 152.315C412.179 152.004 412.29 151.638 412.29 151.263C412.29 150.761 412.091 150.28 411.736 149.925C411.381 149.57 410.899 149.371 410.397 149.371ZM410.397 152.824C410.087 152.824 409.783 152.732 409.525 152.56C409.267 152.387 409.066 152.142 408.948 151.855C408.829 151.568 408.799 151.252 408.86 150.948C408.921 150.644 409.071 150.364 409.291 150.145C409.511 149.926 409.791 149.777 410.096 149.718C410.4 149.658 410.716 149.69 411.002 149.81C411.289 149.93 411.533 150.132 411.704 150.39C411.876 150.649 411.967 150.953 411.965 151.263C411.96 151.675 411.792 152.068 411.498 152.356C411.204 152.644 410.809 152.805 410.397 152.803V152.824ZM423.52 180.207C423.088 180.211 422.67 180.363 422.336 180.638C422.002 180.912 421.772 181.293 421.685 181.717C421.597 182.14 421.657 182.581 421.855 182.965C422.053 183.35 422.376 183.655 422.771 183.83L422.708 183.428C422.416 183.251 422.19 182.983 422.065 182.666C421.94 182.349 421.922 181.999 422.014 181.671C422.106 181.343 422.303 181.054 422.575 180.848C422.847 180.642 423.179 180.531 423.52 180.532C423.649 180.53 423.777 180.546 423.901 180.581L424.085 180.292C423.903 180.227 423.713 180.191 423.52 180.186V180.207ZM398.8 159.944C398.424 159.942 398.056 160.052 397.743 160.26C397.429 160.468 397.185 160.765 397.04 161.112C396.895 161.459 396.856 161.841 396.929 162.21C397.001 162.579 397.182 162.918 397.447 163.184C397.712 163.451 398.051 163.632 398.42 163.706C398.788 163.78 399.171 163.743 399.518 163.599C399.866 163.456 400.163 163.212 400.372 162.9C400.581 162.587 400.693 162.22 400.693 161.844C400.697 161.339 400.5 160.854 400.147 160.493C399.793 160.133 399.312 159.928 398.807 159.922L398.8 159.944ZM398.8 163.404C398.489 163.406 398.185 163.315 397.926 163.143C397.667 162.971 397.465 162.727 397.346 162.44C397.226 162.153 397.195 161.837 397.255 161.532C397.315 161.228 397.465 160.947 397.684 160.728C397.904 160.508 398.184 160.359 398.489 160.298C398.794 160.238 399.109 160.27 399.396 160.389C399.683 160.509 399.928 160.711 400.1 160.97C400.271 161.229 400.362 161.533 400.361 161.844C400.354 162.252 400.187 162.642 399.897 162.929C399.607 163.217 399.216 163.38 398.807 163.383L398.8 163.404ZM350.165 180.186C349.792 180.191 349.429 180.307 349.121 180.519C348.813 180.73 348.575 181.028 348.436 181.375C348.298 181.722 348.265 182.102 348.341 182.467C348.418 182.833 348.601 183.167 348.868 183.429C349.134 183.691 349.472 183.868 349.839 183.938C350.206 184.008 350.585 183.967 350.929 183.822C351.273 183.677 351.567 183.434 351.773 183.122C351.979 182.81 352.088 182.445 352.087 182.071C352.086 181.821 352.035 181.573 351.938 181.343C351.84 181.112 351.698 180.903 351.52 180.727C351.341 180.552 351.129 180.414 350.897 180.321C350.664 180.228 350.416 180.182 350.165 180.186ZM350.165 183.639C349.855 183.641 349.551 183.55 349.292 183.379C349.034 183.207 348.832 182.963 348.712 182.676C348.592 182.39 348.56 182.075 348.62 181.77C348.679 181.465 348.828 181.185 349.047 180.965C349.266 180.745 349.546 180.595 349.85 180.534C350.154 180.473 350.47 180.504 350.757 180.622C351.044 180.741 351.289 180.942 351.462 181.2C351.634 181.458 351.726 181.761 351.726 182.071C351.726 182.486 351.562 182.884 351.27 183.178C350.977 183.471 350.58 183.638 350.165 183.639ZM388.065 212.738C387.577 212.738 387.108 212.925 386.755 213.262C386.403 213.599 386.194 214.059 386.172 214.546H386.504C386.525 214.147 386.699 213.77 386.989 213.494C387.279 213.219 387.664 213.064 388.065 213.063C388.464 213.063 388.847 213.216 389.137 213.49C389.426 213.765 389.598 214.141 389.618 214.539H389.95C389.927 214.055 389.718 213.597 389.367 213.262C389.016 212.927 388.55 212.739 388.065 212.738ZM373.437 183.131C373.063 183.131 372.697 183.242 372.385 183.45C372.074 183.659 371.831 183.955 371.688 184.301C371.545 184.647 371.508 185.028 371.582 185.396C371.655 185.763 371.836 186.1 372.102 186.365C372.367 186.629 372.705 186.809 373.073 186.881C373.44 186.953 373.821 186.915 374.167 186.77C374.512 186.626 374.808 186.382 375.015 186.07C375.222 185.758 375.332 185.391 375.33 185.017C375.328 184.516 375.128 184.036 374.773 183.683C374.419 183.329 373.938 183.131 373.437 183.131ZM373.437 186.585C373.127 186.585 372.824 186.493 372.566 186.32C372.309 186.148 372.108 185.903 371.989 185.617C371.87 185.33 371.839 185.015 371.9 184.711C371.96 184.407 372.109 184.127 372.329 183.908C372.548 183.689 372.827 183.539 373.132 183.479C373.436 183.418 373.751 183.449 374.037 183.568C374.324 183.687 374.569 183.888 374.741 184.146C374.913 184.403 375.005 184.707 375.005 185.017C375.006 185.223 374.966 185.427 374.888 185.618C374.809 185.808 374.694 185.982 374.548 186.127C374.402 186.273 374.229 186.389 374.039 186.467C373.848 186.546 373.644 186.586 373.437 186.585ZM374.377 148.389C374.003 148.392 373.639 148.505 373.329 148.715C373.02 148.924 372.779 149.221 372.638 149.567C372.497 149.913 372.462 150.293 372.536 150.66C372.611 151.026 372.792 151.362 373.057 151.625C373.323 151.888 373.66 152.067 374.027 152.139C374.394 152.211 374.773 152.173 375.119 152.029C375.464 151.885 375.758 151.643 375.966 151.332C376.173 151.021 376.284 150.655 376.284 150.282C376.284 150.032 376.234 149.785 376.138 149.554C376.042 149.323 375.902 149.114 375.724 148.938C375.547 148.762 375.337 148.623 375.106 148.529C374.874 148.435 374.627 148.387 374.377 148.389ZM374.377 151.843C373.98 151.816 373.608 151.639 373.337 151.349C373.065 151.059 372.914 150.676 372.914 150.278C372.914 149.881 373.065 149.498 373.337 149.207C373.608 148.917 373.98 148.74 374.377 148.714C374.591 148.699 374.806 148.729 375.008 148.801C375.211 148.873 375.396 148.986 375.553 149.133C375.71 149.28 375.835 149.457 375.92 149.654C376.006 149.851 376.05 150.063 376.05 150.278C376.05 150.493 376.006 150.705 375.92 150.902C375.835 151.099 375.71 151.277 375.553 151.423C375.396 151.57 375.211 151.683 375.008 151.755C374.806 151.827 374.591 151.857 374.377 151.843ZM340.786 196.564C340.665 196.565 340.545 196.577 340.426 196.6L340.299 196.967C340.456 196.916 340.621 196.89 340.786 196.889C341.001 196.875 341.217 196.905 341.42 196.977C341.624 197.05 341.81 197.163 341.967 197.31C342.125 197.458 342.25 197.636 342.336 197.834C342.422 198.032 342.466 198.245 342.466 198.461C342.466 198.676 342.422 198.89 342.336 199.088C342.25 199.286 342.125 199.464 341.967 199.611C341.81 199.758 341.624 199.872 341.42 199.944C341.217 200.017 341.001 200.047 340.786 200.032C340.526 200.034 340.271 199.97 340.042 199.846C339.814 199.723 339.62 199.544 339.479 199.326L339.352 199.693C339.526 199.9 339.742 200.067 339.985 200.183C340.229 200.298 340.495 200.36 340.765 200.364C341.024 200.38 341.283 200.343 341.527 200.254C341.77 200.166 341.994 200.029 342.182 199.852C342.371 199.674 342.522 199.459 342.625 199.222C342.727 198.984 342.781 198.727 342.781 198.468C342.781 198.209 342.727 197.952 342.625 197.714C342.522 197.476 342.371 197.262 342.182 197.084C341.994 196.906 341.77 196.769 341.527 196.681C341.283 196.593 341.024 196.556 340.765 196.571L340.786 196.564ZM361.388 193.428C361.012 193.428 360.644 193.54 360.331 193.75C360.019 193.959 359.775 194.257 359.632 194.605C359.488 194.953 359.452 195.335 359.526 195.704C359.6 196.073 359.783 196.412 360.05 196.677C360.317 196.942 360.657 197.122 361.026 197.193C361.396 197.265 361.778 197.226 362.125 197.08C362.472 196.934 362.768 196.688 362.975 196.374C363.182 196.059 363.291 195.691 363.288 195.314C363.287 195.065 363.237 194.819 363.141 194.589C363.044 194.359 362.903 194.151 362.726 193.975C362.549 193.8 362.339 193.662 362.108 193.568C361.877 193.474 361.63 193.427 361.381 193.428H361.388ZM361.388 196.889C361.079 196.888 360.777 196.795 360.52 196.622C360.263 196.449 360.063 196.204 359.945 195.918C359.828 195.632 359.797 195.317 359.858 195.014C359.919 194.71 360.068 194.431 360.287 194.213C360.506 193.994 360.784 193.845 361.088 193.784C361.391 193.723 361.706 193.754 361.992 193.871C362.278 193.989 362.523 194.189 362.696 194.446C362.869 194.703 362.962 195.005 362.963 195.314C362.964 195.522 362.924 195.728 362.845 195.92C362.765 196.112 362.649 196.286 362.502 196.433C362.354 196.579 362.18 196.695 361.987 196.773C361.795 196.852 361.589 196.891 361.381 196.889H361.388ZM391.532 178.618C391.158 178.616 390.791 178.726 390.479 178.933C390.167 179.14 389.923 179.436 389.779 179.781C389.634 180.127 389.596 180.508 389.668 180.875C389.74 181.243 389.92 181.581 390.184 181.846C390.449 182.112 390.786 182.293 391.153 182.366C391.521 182.44 391.902 182.403 392.248 182.26C392.594 182.117 392.89 181.874 393.099 181.563C393.307 181.251 393.418 180.885 393.418 180.511C393.414 180.01 393.214 179.53 392.86 179.176C392.506 178.822 392.026 178.621 391.525 178.618H391.532ZM391.532 182.071C391.224 182.071 390.922 181.98 390.665 181.808C390.409 181.637 390.208 181.393 390.09 181.108C389.972 180.823 389.941 180.509 390.002 180.206C390.062 179.903 390.21 179.625 390.429 179.407C390.647 179.189 390.925 179.04 391.228 178.98C391.531 178.919 391.845 178.95 392.13 179.068C392.415 179.187 392.659 179.387 392.83 179.643C393.002 179.9 393.093 180.202 393.093 180.511C393.091 180.925 392.925 181.322 392.632 181.615C392.338 181.907 391.94 182.071 391.525 182.071H391.532ZM386.588 119.664C386.456 119.845 386.286 119.995 386.09 120.103C385.893 120.21 385.675 120.273 385.451 120.286L385.013 120.59C385.121 120.6 385.23 120.6 385.338 120.59C385.701 120.589 386.055 120.484 386.36 120.289C386.665 120.094 386.909 119.816 387.062 119.488L386.588 119.664ZM392.436 140.712C392.06 140.713 391.693 140.826 391.381 141.036C391.07 141.246 390.827 141.544 390.685 141.893C390.543 142.241 390.507 142.623 390.582 142.992C390.657 143.36 390.84 143.698 391.108 143.962C391.375 144.227 391.715 144.406 392.084 144.477C392.453 144.548 392.836 144.508 393.182 144.362C393.529 144.216 393.824 143.97 394.031 143.656C394.237 143.342 394.346 142.973 394.343 142.597C394.342 142.099 394.143 141.621 393.792 141.268C393.44 140.915 392.963 140.715 392.465 140.712H392.436ZM392.436 144.179C392.126 144.178 391.822 144.085 391.564 143.911C391.306 143.737 391.105 143.491 390.987 143.204C390.869 142.916 390.838 142.6 390.899 142.295C390.96 141.991 391.11 141.711 391.33 141.491C391.55 141.271 391.83 141.121 392.135 141.06C392.439 140.999 392.755 141.03 393.043 141.148C393.33 141.266 393.577 141.467 393.75 141.725C393.924 141.983 394.017 142.286 394.019 142.597C394.02 143.013 393.858 143.412 393.567 143.708C393.276 144.004 392.88 144.174 392.465 144.179H392.436Z" fill="white"/>
<path d="M416.358 137.675C418.159 140.67 420.151 143.566 422.009 146.518C421.253 144.399 420.504 142.33 419.671 140.267C419.671 140.225 419.713 140.19 419.734 140.232C421.055 142.712 422.133 145.314 422.955 148.001C424.361 150.235 425.619 152.559 426.719 154.958C428.075 157.828 428.928 160.91 429.241 164.069C429.444 167.253 428.994 170.445 427.92 173.448C426.652 176.893 425.073 180.214 423.202 183.372C422.962 183.796 422.376 183.407 422.574 182.983C425.215 177.333 428.132 171.429 427.871 165.044C427.609 158.659 424.664 152.91 421.782 147.436C420.107 144.098 418.22 140.871 416.132 137.774C416.04 137.668 416.259 137.541 416.358 137.675Z" fill="#263238"/>
<path d="M407.819 179.988C404.012 180.327 400.235 180.948 396.519 181.845C394.675 182.318 392.867 182.869 391.066 183.463C390.162 183.759 389.258 184.028 388.347 184.289C387.403 184.588 386.426 184.773 385.437 184.84C385.423 184.845 385.411 184.854 385.402 184.866C385.393 184.878 385.389 184.892 385.389 184.907C385.389 184.922 385.393 184.936 385.402 184.948C385.411 184.96 385.423 184.969 385.437 184.974C386.379 185.022 387.323 185.005 388.262 184.925C389.163 184.815 390.055 184.645 390.932 184.416C392.804 183.957 394.654 183.406 396.526 182.926C400.29 181.958 404.055 180.991 407.883 180.299C408.038 180.27 407.996 179.967 407.819 179.988Z" fill="#263238"/>
<path d="M417.227 183.357C414.09 183.03 410.938 182.879 407.784 182.905C406.202 182.905 404.641 183.032 403.066 183.187C402.317 183.258 401.569 183.342 400.82 183.441C400.001 183.547 399.188 183.759 398.362 183.851C398.277 183.851 398.277 183.999 398.362 183.992C399.139 183.922 399.93 183.992 400.714 183.992L403.073 183.929C404.648 183.929 406.216 183.872 407.791 183.816C410.941 183.71 414.077 183.639 417.227 183.639C417.404 183.618 417.389 183.378 417.227 183.357Z" fill="#263238"/>
<path d="M375.118 128.182C351.38 153.007 321.914 204.955 327.748 215.287C334.246 226.8 368.176 191.62 367.102 189.925C366.191 188.512 378.276 157.005 386.878 134.129C395.481 111.252 380.981 122.009 375.118 128.182Z" fill="#AD6359"/>
<path d="M346.062 157.959L380.112 164.09C380.112 164.09 388.587 139.956 390.304 126.565C391.243 119.057 386.836 118.747 381.284 122.737C361.854 136.7 346.062 157.959 346.062 157.959Z" fill="#694ED6"/>
<path d="M358.245 155.423C357.871 155.423 357.504 155.534 357.193 155.743C356.882 155.951 356.639 156.247 356.496 156.593C356.353 156.94 356.316 157.321 356.389 157.688C356.463 158.055 356.644 158.393 356.909 158.657C357.175 158.921 357.513 159.101 357.88 159.173C358.248 159.246 358.629 159.207 358.975 159.063C359.32 158.918 359.616 158.675 359.823 158.363C360.03 158.05 360.14 157.684 360.138 157.309C360.136 156.808 359.936 156.329 359.581 155.975C359.227 155.622 358.746 155.423 358.245 155.423ZM358.245 158.877C357.935 158.878 357.631 158.788 357.372 158.616C357.114 158.445 356.912 158.2 356.792 157.914C356.672 157.628 356.64 157.312 356.7 157.007C356.759 156.703 356.908 156.423 357.127 156.203C357.346 155.983 357.625 155.833 357.93 155.772C358.234 155.711 358.55 155.741 358.837 155.86C359.124 155.978 359.369 156.179 359.542 156.437C359.714 156.695 359.806 156.999 359.806 157.309C359.806 157.724 359.642 158.121 359.35 158.415C359.057 158.709 358.66 158.875 358.245 158.877ZM379.165 130.513C378.682 130.542 378.229 130.755 377.897 131.107C377.566 131.46 377.381 131.925 377.381 132.409C377.381 132.893 377.566 133.358 377.897 133.711C378.229 134.063 378.682 134.276 379.165 134.305C379.424 134.321 379.683 134.284 379.927 134.196C380.171 134.108 380.394 133.97 380.583 133.793C380.772 133.615 380.922 133.401 381.025 133.163C381.128 132.925 381.181 132.668 381.181 132.409C381.181 132.15 381.128 131.893 381.025 131.655C380.922 131.417 380.772 131.203 380.583 131.025C380.394 130.848 380.171 130.71 379.927 130.622C379.683 130.534 379.424 130.497 379.165 130.513ZM379.165 133.981C378.854 133.979 378.55 133.886 378.292 133.712C378.034 133.538 377.833 133.291 377.715 133.003C377.597 132.715 377.567 132.399 377.629 132.094C377.69 131.789 377.841 131.509 378.061 131.289C378.282 131.07 378.562 130.92 378.868 130.86C379.173 130.8 379.489 130.832 379.777 130.951C380.064 131.07 380.31 131.272 380.483 131.531C380.655 131.79 380.748 132.094 380.748 132.406C380.748 132.613 380.707 132.818 380.627 133.01C380.547 133.201 380.431 133.375 380.284 133.522C380.137 133.668 379.962 133.784 379.77 133.863C379.578 133.941 379.373 133.981 379.165 133.981ZM364.284 137.95C363.998 137.951 363.716 138.016 363.458 138.141L362.582 139.023C362.459 139.276 362.396 139.554 362.398 139.836C362.397 140.212 362.507 140.58 362.716 140.894C362.924 141.207 363.22 141.452 363.568 141.597C363.915 141.741 364.298 141.779 364.667 141.706C365.036 141.633 365.375 141.452 365.642 141.186C365.908 140.92 366.089 140.581 366.162 140.212C366.235 139.842 366.197 139.46 366.052 139.112C365.907 138.765 365.663 138.468 365.349 138.26C365.036 138.052 364.667 137.941 364.291 137.943L364.284 137.95ZM364.284 141.418C363.973 141.418 363.668 141.325 363.409 141.152C363.15 140.979 362.948 140.733 362.829 140.445C362.71 140.158 362.679 139.841 362.739 139.535C362.8 139.23 362.95 138.949 363.17 138.729C363.391 138.509 363.671 138.359 363.977 138.298C364.282 138.237 364.599 138.268 364.887 138.388C365.175 138.507 365.421 138.709 365.594 138.968C365.767 139.227 365.859 139.531 365.859 139.843C365.86 140.05 365.82 140.255 365.741 140.446C365.662 140.638 365.546 140.812 365.4 140.958C365.253 141.105 365.079 141.221 364.888 141.3C364.696 141.378 364.491 141.419 364.284 141.418ZM379.667 164.019L380.062 164.089C380.083 164.067 380.107 164.048 380.133 164.033L380.303 163.553C380.059 163.656 379.841 163.813 379.667 164.012V164.019ZM374.377 148.396C374.003 148.399 373.639 148.512 373.329 148.722C373.02 148.931 372.779 149.228 372.638 149.574C372.497 149.92 372.462 150.3 372.536 150.666C372.611 151.033 372.792 151.369 373.058 151.632C373.323 151.895 373.66 152.074 374.027 152.146C374.394 152.218 374.774 152.18 375.119 152.036C375.464 151.892 375.758 151.65 375.966 151.339C376.173 151.028 376.284 150.662 376.284 150.289C376.285 150.038 376.236 149.79 376.14 149.559C376.045 149.327 375.904 149.117 375.727 148.941C375.55 148.764 375.339 148.624 375.107 148.529C374.875 148.435 374.627 148.387 374.377 148.389V148.396ZM374.377 151.849C373.98 151.823 373.608 151.646 373.337 151.356C373.065 151.065 372.914 150.683 372.914 150.285C372.914 149.887 373.065 149.505 373.337 149.214C373.608 148.924 373.98 148.747 374.377 148.721C374.591 148.706 374.806 148.736 375.008 148.808C375.211 148.88 375.396 148.993 375.553 149.14C375.71 149.286 375.835 149.464 375.92 149.661C376.006 149.858 376.05 150.07 376.05 150.285C376.05 150.5 376.006 150.712 375.92 150.909C375.835 151.106 375.71 151.284 375.553 151.43C375.396 151.577 375.211 151.69 375.008 151.762C374.806 151.834 374.591 151.864 374.377 151.849ZM385.141 120.611H385.36C385.752 120.61 386.135 120.487 386.454 120.257C386.006 120.328 385.566 120.444 385.141 120.604V120.611Z" fill="white"/>
<path d="M379.893 158.51C374.73 157.133 360.626 153.806 351.175 152.86C351.119 152.86 351.07 153.065 351.126 153.079C358.895 155.07 374.56 157.924 379.822 158.849C379.921 158.842 379.985 158.552 379.893 158.51Z" fill="#263238"/>
<path d="M375.966 163.341C377.379 163.475 378.791 163.645 380.162 163.828L379.865 164.005C380.882 160.299 382 156.622 383.22 152.973C384.435 149.336 385.713 145.712 387.182 142.139C386.292 145.889 385.218 149.583 384.081 153.248C382.944 156.914 381.701 160.565 380.338 164.203L380.253 164.422L380.048 164.379C378.692 164.033 377.329 163.701 375.966 163.341Z" fill="#263238"/>
<path d="M384.929 149.484C385.232 148.735 385.62 148.024 386.087 147.365C386.549 146.688 387.064 146.048 387.627 145.451C387.551 145.86 387.415 146.255 387.224 146.624C387.048 146.993 386.843 147.347 386.61 147.683C386.145 148.366 385.578 148.973 384.929 149.484Z" fill="#263238"/>
<path d="M328.511 216.348C334.945 223.312 349.798 222.775 387.309 224.936C392.5 225.233 404.465 189.17 398.934 188.57C391.978 187.807 364.793 186.359 362.794 186.507C345.921 187.729 324.153 211.63 328.511 216.348Z" fill="#AD6359"/>
<path d="M391.398 187.898C391.398 187.898 407.198 188.124 415.461 190.807C426.529 194.402 434.601 202.066 437.787 205.484C444.447 212.61 455.613 234.442 449.885 238.757C444.694 242.663 434.411 219.765 434.411 219.765C434.411 219.765 448.748 241.377 441.643 244.937C434.538 248.497 424.127 221.227 424.127 221.227C424.127 221.227 438.366 243.765 430.484 246.272C424.509 248.165 413.667 224.01 413.667 224.01C413.667 224.01 425.773 243.468 419.706 245.679C413.01 248.122 401.604 226.454 401.604 226.454C385.246 229.476 376.22 224.229 370.245 219.73C368.748 218.642 391.398 187.898 391.398 187.898Z" fill="#AD6359"/>
<path d="M429.926 211.976C431.706 214.448 433.521 216.92 435.068 219.575C436.614 222.231 438.084 224.886 439.376 227.648C442.561 234.414 443.501 239.153 443.409 238.864C441.29 232.098 435.887 222.619 434.333 219.978C432.779 217.336 431.374 214.652 429.827 212.025C429.778 211.961 429.884 211.912 429.926 211.976Z" fill="#263238"/>
<path d="M420.342 217.4C422.46 220.663 424.706 223.82 426.698 227.175C428.69 230.53 430.229 233.864 432.002 237.331C432.136 237.6 431.946 237.586 431.804 237.331C429.919 233.934 427.92 230.975 425.999 227.571C424.078 224.166 422.291 220.748 420.257 217.457C420.229 217.393 420.306 217.351 420.342 217.4Z" fill="#263238"/>
<path d="M411.273 220.57C414.804 225.394 417.403 230.854 419.847 236.271C419.967 236.539 419.727 236.497 419.586 236.229C416.838 230.953 414.713 226.8 411.111 220.69C411.047 220.599 411.195 220.471 411.273 220.57Z" fill="#263238"/>
<path d="M348.901 192.454C351.161 190.618 357.638 186.154 364.559 186.352C364.637 186.352 364.651 186.458 364.559 186.465C358.952 187.115 351.288 190.943 348.958 192.546C348.946 192.549 348.934 192.548 348.923 192.544C348.911 192.539 348.902 192.531 348.896 192.521C348.889 192.511 348.887 192.499 348.888 192.487C348.888 192.475 348.893 192.463 348.901 192.454Z" fill="#263238"/>
<path d="M390.967 119.29C391.095 120.928 397.056 132.342 404.33 133.119C406.696 133.366 408.625 120.497 408.625 120.497L408.985 119.579L414.013 106.732L399.93 94.2802L397.875 92.5992C397.875 92.5992 396.731 96.2083 395.353 100.714C395.29 100.919 395.219 101.131 395.156 101.35C395.092 101.569 394.986 101.844 394.923 102.056C394.704 102.763 394.492 103.412 394.287 104.098C394.132 104.62 393.976 105.129 393.835 105.68C393.694 106.23 393.538 106.774 393.376 107.325C391.942 112.848 390.932 118.597 390.967 119.29Z" fill="#AD6359"/>
<path d="M395.354 100.729C396.122 104.672 397.739 108.4 400.093 111.655C402.447 114.911 405.481 117.615 408.985 119.579L414.013 106.732L399.93 94.2802L397.875 92.5992C397.875 92.5992 396.731 96.2225 395.354 100.729Z" fill="#263238"/>
<path d="M436.445 91.4561C433.26 115.47 418.52 116.261 413.342 115.561C408.646 114.933 392.733 112.192 393.425 88.0165C394.117 63.8404 406.287 57.7099 417.107 58.5857C427.927 59.4615 439.666 67.4425 436.445 91.4561Z" fill="#AD6359"/>
<path d="M432.998 88.8497C432.473 88.6563 431.959 88.4346 431.458 88.1858C430.894 88.0191 430.399 87.6748 430.046 87.2041C429.963 87.0327 429.94 86.839 429.978 86.6527C430.016 86.4665 430.114 86.2979 430.258 86.1729C430.58 85.9679 430.952 85.8538 431.333 85.8426C431.715 85.8314 432.092 85.9236 432.426 86.1093C433.159 86.3728 433.767 86.9022 434.128 87.5925C434.205 87.7558 434.231 87.9379 434.205 88.1162C434.178 88.2945 434.1 88.4611 433.979 88.5951C433.859 88.7292 433.702 88.8248 433.527 88.8701C433.353 88.9153 433.169 88.9082 432.998 88.8497Z" fill="#263238"/>
<path d="M416.768 84.7313C417.325 84.7631 417.884 84.7631 418.442 84.7313C419.03 84.8126 419.629 84.6958 420.144 84.3994C420.288 84.2751 420.387 84.1065 420.426 83.9199C420.464 83.7334 420.439 83.5393 420.356 83.3682C420.141 83.0539 419.845 82.8034 419.499 82.643C419.154 82.4827 418.771 82.4185 418.392 82.4571C417.623 82.4238 416.869 82.6753 416.273 83.1634C416.15 83.2819 416.063 83.4325 416.021 83.598C415.979 83.7636 415.984 83.9376 416.035 84.1005C416.086 84.2634 416.182 84.4087 416.312 84.5202C416.441 84.6316 416.599 84.7047 416.768 84.7313Z" fill="#263238"/>
<path d="M419.325 90.0433C419.325 89.9797 419.19 90.0998 419.176 90.1634C418.936 91.7949 418.385 93.6241 416.817 93.8996C416.808 93.9033 416.8 93.9096 416.795 93.9178C416.789 93.926 416.786 93.9356 416.786 93.9455C416.786 93.9554 416.789 93.965 416.795 93.9732C416.8 93.9814 416.808 93.9877 416.817 93.9914C418.654 94.0267 419.36 91.5901 419.325 90.0433Z" fill="#263238"/>
<path d="M418.188 88.0514C415.61 87.3451 414.466 92.5786 416.846 93.2002C419.226 93.8217 420.342 88.6305 418.188 88.0514Z" fill="#263238"/>
<path d="M417.107 88.1C416.584 88.2907 416.026 88.7145 415.468 88.6439C414.91 88.5732 414.465 87.9376 414.162 87.3019C414.162 87.2384 414.077 87.3019 414.063 87.3443C413.83 88.3401 413.985 89.4631 415.016 89.8304C416.047 90.1977 416.86 89.449 417.326 88.5026C417.411 88.3331 417.312 88.0223 417.107 88.1Z" fill="#263238"/>
<path d="M428.937 91.5119C428.937 91.4554 429.043 91.6178 429.029 91.6814C428.605 93.2776 428.393 95.2128 429.735 96.0391C429.778 96.0391 429.735 96.1521 429.7 96.1309C427.977 95.4741 428.28 92.9597 428.937 91.5119Z" fill="#263238"/>
<path d="M430.752 90.1627C433.387 90.5582 432.398 95.8129 429.961 95.4245C427.525 95.036 428.549 89.8307 430.752 90.1627Z" fill="#263238"/>
<path d="M431.783 90.7491C432.143 91.1023 432.454 91.6814 432.942 91.8086C433.429 91.9357 434.036 91.4695 434.502 90.9963C434.552 90.9469 434.587 90.9963 434.573 91.067C434.418 92.0699 433.867 93.0516 432.892 93.0657C431.917 93.0799 431.48 92.0911 431.48 91.0528C431.437 90.8268 431.635 90.5726 431.783 90.7491Z" fill="#263238"/>
<path d="M416.761 103.885C417.043 104.358 417.283 104.973 417.848 105.178C418.445 105.326 419.066 105.348 419.671 105.241C419.683 105.24 419.695 105.243 419.705 105.249C419.715 105.255 419.723 105.264 419.728 105.275C419.733 105.286 419.734 105.298 419.731 105.31C419.728 105.322 419.722 105.332 419.713 105.34C419.402 105.593 419.028 105.756 418.631 105.812C418.234 105.868 417.829 105.815 417.46 105.658C417.158 105.487 416.914 105.229 416.759 104.918C416.605 104.608 416.546 104.258 416.591 103.913C416.591 103.815 416.718 103.815 416.761 103.885Z" fill="#263238"/>
<path d="M424.728 99.465C424.728 99.465 424.558 101.944 424.318 103.081C424.318 103.187 424.014 103.18 423.612 103.081C423.612 103.081 423.612 103.081 423.569 103.081C422.556 103.055 421.569 102.75 420.717 102.201C419.865 101.651 419.181 100.879 418.738 99.9665C418.728 99.9398 418.727 99.9102 418.736 99.883C418.746 99.8558 418.764 99.8329 418.789 99.8184C418.814 99.8039 418.843 99.7987 418.871 99.8038C418.9 99.809 418.925 99.8241 418.943 99.8464C420.187 101.139 421.814 101.996 423.583 102.29C423.732 101.993 423.732 98.0524 423.915 98.0524C424.782 98.3144 425.608 98.6922 426.373 99.1754C426.882 94.0196 426.557 88.8284 427.136 83.7008C427.136 83.6596 427.152 83.6201 427.182 83.5909C427.211 83.5618 427.25 83.5454 427.291 83.5454C427.333 83.5454 427.372 83.5618 427.401 83.5909C427.43 83.6201 427.447 83.6596 427.447 83.7008C428.153 89.125 427.722 95.0719 427.341 100.404C427.306 101.097 425.144 99.7475 424.728 99.465Z" fill="#263238"/>
<path d="M399.973 62.3641C399.153 64.264 388.241 65.5706 383.438 58.2041C378.706 50.9435 384.971 42.0091 393.651 46.2679C399.139 48.9659 401.703 58.3383 399.973 62.3641Z" fill="#263238"/>
<path d="M383.29 48.2237C385.151 46.2062 387.641 44.8791 390.353 44.4592C391.616 44.2371 392.915 44.3513 394.12 44.7901C395.325 45.229 396.393 45.9771 397.218 46.9594C398.955 48.9158 399.852 51.5502 400.333 54.2059C400.556 55.5547 400.655 56.9212 400.629 58.2882C400.665 59.6756 400.442 61.0575 399.972 62.3634C400.729 61.1445 401.211 59.7756 401.385 58.3517C401.604 56.9193 401.651 55.4659 401.526 54.0222C401.348 51.0616 400.252 48.2299 398.39 45.9212C397.406 44.7431 396.108 43.8674 394.647 43.395C393.186 42.9226 391.622 42.8729 390.134 43.2514C388.715 43.5716 387.376 44.1776 386.2 45.0325C385.023 45.8874 384.033 46.9732 383.29 48.2237Z" fill="#263238"/>
<path d="M394.619 89.019C398.856 90.7635 402.699 81.0027 402.699 81.0027C402.699 81.0027 422.263 82.8814 427.962 68.0777C427.962 68.0777 428.549 78.6719 437.144 85.6924C437.144 85.6924 441 68.8122 428.669 61.9966C428.669 61.9966 413.837 51.586 401.124 62.1308C388.411 72.6756 391.772 87.8536 394.619 89.019Z" fill="#263238"/>
<path d="M428.365 66.9689C427.949 69.3796 427.025 71.6741 425.653 73.6997C424.3 75.7722 422.532 77.542 420.462 78.898C419.946 79.2353 419.411 79.5419 418.859 79.8161L418.046 80.2611C417.764 80.3812 417.474 80.4871 417.185 80.6001C416.605 80.812 416.04 81.0521 415.454 81.2358C414.868 81.4194 414.261 81.5253 413.667 81.6595C413.364 81.7231 413.067 81.8008 412.77 81.8502L411.859 81.9491L410.044 82.1398C408.829 82.1398 407.614 82.0974 406.414 82.0268C407.614 81.8432 408.815 81.7937 409.988 81.603L411.746 81.264L412.615 81.1016C412.905 81.0239 413.18 80.925 413.463 80.8403C414.028 80.6566 414.593 80.4871 415.158 80.3247C415.723 80.1622 416.238 79.8656 416.775 79.6184L417.587 79.2723L418.35 78.8485C418.87 78.5784 419.375 78.279 419.861 77.9516C421.824 76.6666 423.551 75.054 424.968 73.1842C425.691 72.2474 426.336 71.2529 426.896 70.2107C427.478 69.1744 427.97 68.0898 428.365 66.9689Z" fill="#263238"/>
<path d="M393.376 73.0282L391.412 74.7091L396.236 82.8596L400.545 79.0245L393.376 73.0282ZM396.688 80.4442L393.157 75.2247L393.609 74.8221L398.221 79.1234L396.688 80.4442Z" fill="#694ED6"/>
<path d="M395.276 69.3839L394.096 71.6793L401.632 77.4073L404.182 72.2302L395.276 69.3839ZM401.145 75.0342L395.925 71.5028L396.187 70.9589L402.077 73.2049L401.145 75.0342Z" fill="#694ED6"/>
<path d="M396.992 90.311C396.992 90.311 393.461 81.7862 389.717 82.8809C385.974 83.9756 387.464 95.5375 391.066 97.8753C391.508 98.2064 392.013 98.4448 392.549 98.576C393.086 98.7072 393.643 98.7286 394.188 98.6389C394.733 98.5492 395.254 98.3502 395.72 98.0539C396.187 97.7576 396.588 97.3701 396.9 96.9147L396.992 90.311Z" fill="#AD6359"/>
<path d="M390.226 86.1862C390.162 86.1862 390.134 86.2497 390.184 86.285C392.691 88.0154 393.574 90.89 393.997 93.7646C393.404 92.5639 392.415 91.7587 390.833 92.4297C390.749 92.465 390.791 92.5921 390.876 92.5921C391.394 92.5484 391.914 92.6652 392.363 92.9268C392.813 93.1883 393.172 93.5819 393.39 94.0541C393.747 94.8491 394.017 95.6803 394.195 96.5332C394.273 96.8086 394.746 96.7733 394.718 96.4696C394.718 96.4696 394.718 96.4202 394.718 96.399C395.565 92.9029 393.927 87.3798 390.226 86.1862Z" fill="#263238"/>
</svg>
