<svg width="808" height="320" viewBox="0 0 808 320" fill="none" xmlns="http://www.w3.org/2000/svg">
<path fill-rule="evenodd" clip-rule="evenodd" d="M410.232 197.624C442.023 196.029 474.902 194.578 504.42 198.586C538.393 203.198 579.853 209.863 584.677 221.306C589.613 233.013 536.446 239.326 526.395 250.712C515.444 263.115 554.041 279.064 525.479 288.356C498.248 297.215 448.681 291.153 410.232 288.503C378.733 286.331 355.249 279.475 326.92 274.668C292.748 268.869 242.103 268.676 227.326 257.465C212.654 246.334 238.278 233.73 259.782 223.734C277.468 215.513 308.031 211.865 335.787 207.048C359.773 202.885 383.123 198.985 410.232 197.624Z" fill="#D60040" fill-opacity="0.04"/>
<path d="M418.29 192.402H387.997V235.338H418.29V192.402Z" fill="#694ED6"/>
<path d="M388.231 234.602H418.063C419.133 234.602 420.16 235.027 420.916 235.784C421.673 236.541 422.098 237.567 422.098 238.638V239.02H384.188V238.638C384.188 238.107 384.293 237.582 384.496 237.092C384.699 236.602 384.997 236.156 385.373 235.782C385.748 235.407 386.194 235.11 386.684 234.907C387.175 234.705 387.7 234.601 388.231 234.602Z" fill="#263238"/>
<path d="M426.743 239.019H380.734V246.014H426.743V239.019Z" fill="#694ED6"/>
<path d="M418.126 230.623C418.126 230.722 411.415 230.807 403.132 230.807C394.85 230.807 388.131 230.722 388.131 230.623C388.131 230.524 394.842 230.439 403.132 230.439C411.422 230.439 418.126 230.517 418.126 230.623Z" fill="#263238"/>
<path d="M418.126 225.512C418.126 225.618 411.415 225.696 403.132 225.696C394.85 225.696 388.131 225.618 388.131 225.512C388.131 225.406 394.842 225.328 403.132 225.328C411.422 225.328 418.126 225.413 418.126 225.512Z" fill="#263238"/>
<path d="M418.126 220.5C418.126 220.599 411.415 220.684 403.132 220.684C394.85 220.684 388.131 220.599 388.131 220.5C388.131 220.401 394.842 220.316 403.132 220.316C411.422 220.316 418.126 220.401 418.126 220.5Z" fill="#263238"/>
<path d="M418.126 215.396C418.126 215.495 411.415 215.58 403.132 215.58C394.85 215.58 388.131 215.495 388.131 215.396C388.131 215.297 394.842 215.212 403.132 215.212C411.422 215.212 418.126 215.325 418.126 215.396Z" fill="#263238"/>
<path d="M418.126 210.369C418.126 210.476 411.415 210.553 403.132 210.553C394.85 210.553 388.131 210.476 388.131 210.369C388.131 210.263 394.842 210.185 403.132 210.185C411.422 210.185 418.126 210.277 418.126 210.369Z" fill="#263238"/>
<path d="M418.126 205.273C418.126 205.379 411.415 205.457 403.132 205.457C394.85 205.457 388.131 205.379 388.131 205.273C388.131 205.166 394.842 205.089 403.132 205.089C411.422 205.089 418.126 205.174 418.126 205.273Z" fill="#263238"/>
<path d="M418.126 200.26C418.126 200.359 411.415 200.444 403.132 200.444C394.85 200.444 388.131 200.359 388.131 200.26C388.131 200.161 394.842 200.076 403.132 200.076C411.422 200.076 418.126 200.154 418.126 200.26Z" fill="#263238"/>
<path d="M418.126 195.156C418.126 195.255 411.415 195.34 403.132 195.34C394.85 195.34 388.131 195.255 388.131 195.156C388.131 195.057 394.842 194.972 403.132 194.972C411.422 194.972 418.126 195.05 418.126 195.156Z" fill="#263238"/>
<g opacity="0.3">
<path d="M387.997 198.383L418.141 197.547V193.172H387.728L387.997 198.383Z" fill="black"/>
</g>
<path d="M465.735 192.402H435.443V235.338H465.735V192.402Z" fill="#694ED6"/>
<path d="M435.676 234.602H465.509C466.579 234.602 467.605 235.027 468.362 235.784C469.119 236.541 469.544 237.567 469.544 238.638V239.02H431.634V238.638C431.634 238.107 431.739 237.582 431.942 237.092C432.145 236.602 432.443 236.156 432.818 235.782C433.194 235.407 433.639 235.11 434.13 234.907C434.62 234.705 435.146 234.601 435.676 234.602Z" fill="#263238"/>
<path d="M474.188 239.019H428.179V246.014H474.188V239.019Z" fill="#694ED6"/>
<path d="M465.558 230.623C465.558 230.722 458.847 230.807 450.564 230.807C442.282 230.807 435.563 230.722 435.563 230.623C435.563 230.524 442.274 230.439 450.564 230.439C458.854 230.439 465.558 230.517 465.558 230.623Z" fill="#263238"/>
<path d="M465.558 225.512C465.558 225.618 458.847 225.696 450.564 225.696C442.282 225.696 435.563 225.618 435.563 225.512C435.563 225.406 442.274 225.328 450.564 225.328C458.854 225.328 465.558 225.413 465.558 225.512Z" fill="#263238"/>
<path d="M465.558 220.5C465.558 220.599 458.847 220.684 450.564 220.684C442.282 220.684 435.563 220.599 435.563 220.5C435.563 220.401 442.274 220.316 450.564 220.316C458.854 220.316 465.558 220.401 465.558 220.5Z" fill="#263238"/>
<path d="M465.558 215.396C465.558 215.495 458.847 215.58 450.564 215.58C442.282 215.58 435.563 215.495 435.563 215.396C435.563 215.297 442.274 215.212 450.564 215.212C458.854 215.212 465.558 215.325 465.558 215.396Z" fill="#263238"/>
<path d="M465.558 210.369C465.558 210.476 458.847 210.553 450.564 210.553C442.282 210.553 435.563 210.476 435.563 210.369C435.563 210.263 442.274 210.185 450.564 210.185C458.854 210.185 465.558 210.277 465.558 210.369Z" fill="#263238"/>
<path d="M465.558 205.273C465.558 205.379 458.847 205.457 450.564 205.457C442.282 205.457 435.563 205.379 435.563 205.273C435.563 205.166 442.274 205.089 450.564 205.089C458.854 205.089 465.558 205.174 465.558 205.273Z" fill="#263238"/>
<path d="M465.558 200.26C465.558 200.359 458.847 200.444 450.564 200.444C442.282 200.444 435.563 200.359 435.563 200.26C435.563 200.161 442.274 200.076 450.564 200.076C458.854 200.076 465.558 200.154 465.558 200.26Z" fill="#263238"/>
<path d="M465.558 195.156C465.558 195.255 458.847 195.34 450.564 195.34C442.282 195.34 435.563 195.255 435.563 195.156C435.563 195.057 442.274 194.972 450.564 194.972C458.854 194.972 465.558 195.05 465.558 195.156Z" fill="#263238"/>
<g opacity="0.3">
<path d="M435.443 198.383L465.587 197.547V193.172H435.174L435.443 198.383Z" fill="black"/>
</g>
<path d="M467.216 75.2349L467.965 72.2697C468.049 71.9366 468.262 71.6505 468.557 71.4744C468.852 71.2983 469.205 71.2466 469.538 71.3307L481.674 74.3947L480.287 79.8859L468.158 76.8236C467.825 76.7395 467.539 76.5265 467.363 76.2315C467.187 75.9364 467.135 75.5835 467.22 75.2504L467.216 75.2349Z" fill="#694ED6"/>
<g opacity="0.3">
<path d="M467.216 75.2361L467.965 72.2709C468.049 71.9378 468.262 71.6517 468.557 71.4756C468.852 71.2995 469.205 71.2478 469.538 71.332L481.674 74.3959L480.287 79.8871L468.158 76.8249C467.825 76.7407 467.539 76.5278 467.363 76.2327C467.187 75.9377 467.135 75.5848 467.22 75.2516L467.216 75.2361Z" fill="black"/>
</g>
<path d="M464.573 85.7311L465.603 81.6539C465.741 81.1078 466.09 80.6388 466.574 80.3501C467.057 80.0614 467.636 79.9767 468.182 80.1146L479.487 82.9689L477.407 91.2057L466.13 88.3583C465.853 88.2923 465.591 88.1712 465.362 88.0022C465.133 87.8333 464.94 87.6198 464.794 87.3747C464.649 87.1296 464.555 86.8578 464.517 86.5754C464.479 86.293 464.498 86.0059 464.573 85.7311Z" fill="#694ED6"/>
<path d="M476.395 73.0588L472.862 87.0544L478.147 88.3889L481.681 74.3932L476.395 73.0588Z" fill="#694ED6"/>
<path d="M485.154 129.962C485.154 129.962 507.772 129.042 505.903 107.365C504.488 90.7636 479.774 90.6149 479.774 90.6149L486.088 76.8173C486.088 76.8173 514.944 79.3304 520.643 100.342C527.078 124.086 512.197 143.448 485.154 142.995V129.962Z" fill="#694ED6"/>
<path d="M487.94 74.8686L479.341 72.9685L475.113 92.1026L483.712 94.0027L487.94 74.8686Z" fill="#263238"/>
<path d="M484.078 91.9886C484.078 92.1514 482.124 91.8187 479.795 91.2806C478.369 91.0148 476.97 90.6263 475.611 90.1196C477.046 90.2714 478.467 90.539 479.859 90.9196C481.027 91.1886 482.081 91.4435 482.839 91.6275L483.738 91.8682C483.856 91.8945 483.97 91.935 484.078 91.9886Z" fill="#455A64"/>
<path d="M484.835 88.5406C484.835 88.7034 482.889 88.3707 480.552 87.8326C479.128 87.5714 477.73 87.1828 476.376 86.6716C477.811 86.8247 479.231 87.0922 480.623 87.4716C481.791 87.7406 482.839 87.9955 483.604 88.1795L484.496 88.4202C484.614 88.4431 484.729 88.4836 484.835 88.5406Z" fill="#455A64"/>
<path d="M485.749 85.0643C485.749 85.2342 483.795 84.9014 481.501 84.3563C480.076 84.0904 478.676 83.702 477.317 83.1953C478.752 83.3478 480.173 83.6153 481.565 83.9953C482.726 84.2572 483.781 84.5121 484.538 84.7032L485.437 84.9368L485.749 85.0643Z" fill="#455A64"/>
<path d="M486.358 81.6523C486.358 81.8151 484.411 81.4824 482.11 80.9443C480.684 80.6824 479.283 80.2939 477.926 79.7833C479.361 79.9356 480.782 80.2031 482.174 80.5833C483.342 80.8523 484.389 81.1072 485.154 81.2912L486.046 81.5319C486.155 81.5574 486.26 81.5979 486.358 81.6523Z" fill="#455A64"/>
<path d="M487.242 78.4242C487.242 78.5942 485.295 78.2614 482.995 77.7163C481.569 77.4504 480.169 77.062 478.811 76.5553C480.246 76.7076 481.666 76.9751 483.058 77.3553C484.227 77.6172 485.281 77.8721 486.039 78.0632L486.938 78.2968C487.042 78.3328 487.144 78.3754 487.242 78.4242Z" fill="#455A64"/>
<path d="M490.096 142.854C489.88 142.233 489.726 141.593 489.636 140.942C489.409 139.753 489.14 138.111 488.928 136.263C488.715 134.415 488.609 132.723 488.567 131.541C488.5 130.887 488.5 130.227 488.567 129.573C488.709 130.213 488.789 130.865 488.807 131.52C488.914 132.723 489.062 134.387 489.275 136.221C489.487 138.054 489.706 139.704 489.869 140.9C490.003 141.543 490.078 142.197 490.096 142.854Z" fill="#263238"/>
<path d="M497.125 141.756C496.319 139.543 495.631 137.289 495.065 135.002C494.377 132.747 493.807 130.457 493.359 128.142C494.163 130.359 494.85 132.615 495.419 134.903C496.104 137.157 496.674 139.444 497.125 141.756Z" fill="#263238"/>
<path d="M506.576 138.372C506.121 137.782 505.716 137.155 505.366 136.496C504.601 135.222 503.66 133.665 502.612 131.881L499.837 127.279C499.424 126.659 499.059 126.008 498.747 125.332C499.237 125.893 499.675 126.498 500.056 127.138C500.821 128.284 501.847 129.891 502.888 131.69C503.929 133.488 504.906 135.151 505.557 136.369C505.953 137.007 506.294 137.677 506.576 138.372Z" fill="#263238"/>
<path d="M514.526 132C514.456 132.078 511.645 129.877 508.24 127.045C504.835 124.213 502.123 121.863 502.187 121.785C502.251 121.707 505.068 123.909 508.473 126.741C511.879 129.572 514.59 131.916 514.526 132Z" fill="#263238"/>
<path d="M519.645 123.293C519.602 123.392 516.275 122.089 512.204 120.397C508.134 118.705 504.87 117.254 504.913 117.162C504.955 117.07 508.282 118.366 512.346 120.058C516.409 121.75 519.68 123.165 519.645 123.293Z" fill="#263238"/>
<path d="M522.151 113.828C521.351 113.808 520.554 113.732 519.765 113.601L514.045 112.893L508.318 112.185C507.521 112.129 506.73 112.009 505.953 111.824C506.752 111.793 507.552 111.826 508.346 111.923C509.819 112.037 511.85 112.235 514.087 112.511C516.325 112.787 518.335 113.077 519.808 113.325C520.601 113.426 521.385 113.594 522.151 113.828Z" fill="#263238"/>
<path d="M520.982 104.044C520.297 104.343 519.586 104.58 518.859 104.752C517.521 105.141 515.652 105.623 513.57 106.062C511.489 106.5 509.585 106.812 508.204 106.996C507.464 107.129 506.712 107.193 505.96 107.187C506.685 106.984 507.423 106.833 508.169 106.734C509.535 106.486 511.418 106.139 513.492 105.701C515.567 105.262 517.436 104.823 518.788 104.497C519.508 104.294 520.241 104.142 520.982 104.044Z" fill="#263238"/>
<path d="M518.137 94.6576C518.179 94.7496 515.149 96.3708 511.362 98.2822C507.574 100.194 504.467 101.666 504.417 101.574C504.367 101.482 507.404 99.8609 511.192 97.9495C514.979 96.0381 518.087 94.5726 518.137 94.6576Z" fill="#263238"/>
<path d="M512.282 87.0475C512.346 87.1253 509.826 89.4049 506.619 92.1446C503.412 94.8843 500.814 97.0364 500.75 96.9586C500.686 96.8807 503.199 94.6011 506.413 91.8614C509.627 89.1217 512.24 86.9696 512.282 87.0475Z" fill="#263238"/>
<path d="M502.463 81.3977C502.548 81.4473 500.955 84.2294 498.923 87.6488C497.737 89.7376 496.442 91.7627 495.044 93.7158C494.959 93.6662 496.552 90.884 498.584 87.4576C499.773 85.3732 501.068 83.3506 502.463 81.3977Z" fill="#263238"/>
<path d="M493.649 77.8573C493.059 80.2183 492.35 82.548 491.525 84.8375C490.265 88.6604 489.161 91.7328 489.069 91.7045C489.654 89.3399 490.363 87.0076 491.193 84.7172C491.893 82.3898 492.713 80.1002 493.649 77.8573Z" fill="#263238"/>
<g opacity="0.3">
<path d="M504.268 118.466C502.591 122.133 499.693 125.105 496.07 126.876C494.31 127.81 492.448 128.536 490.52 129.042C494.846 131.35 500.495 129.97 504.275 126.848C508.056 123.726 510.052 118.77 510.187 113.864C510.299 111.535 509.88 109.211 508.962 107.068C507.999 104.944 506.406 102.735 504.304 101.758C504.928 102.923 505.372 104.177 505.621 105.475C506.513 109.841 506.041 114.377 504.268 118.466Z" fill="black"/>
</g>
<path d="M338.01 156.651C338.268 156.892 338.505 157.155 338.718 157.437C339.157 157.953 339.751 158.725 340.459 159.709C342.274 162.283 343.841 165.023 345.139 167.893C346.439 170.768 347.456 173.762 348.176 176.834C348.452 178.009 348.636 178.958 348.735 179.666C348.803 180.011 348.843 180.362 348.855 180.714C348.734 180.383 348.647 180.042 348.593 179.694C348.452 179.036 348.225 178.087 347.928 176.926C347.128 173.895 346.084 170.933 344.806 168.07C343.515 165.213 341.993 162.466 340.254 159.858C339.581 158.86 339.022 158.067 338.619 157.522C338.387 157.252 338.183 156.961 338.01 156.651Z" fill="#263238"/>
<path d="M335.001 154.145C335.072 154.067 335.404 154.251 335.751 154.562C336.098 154.874 336.318 155.178 336.254 155.27C336.19 155.362 335.85 155.164 335.503 154.852C335.157 154.541 334.937 154.215 335.001 154.145Z" fill="#263238"/>
<path d="M335.695 152.064C335.78 152.014 336.127 152.432 336.474 153.013C336.821 153.593 337.026 154.096 336.941 154.145C336.856 154.195 336.502 153.777 336.155 153.197C335.808 152.616 335.603 152.114 335.695 152.064Z" fill="#263238"/>
<path d="M348.792 181.146C348.812 180.955 348.848 180.765 348.898 180.58C348.997 180.179 349.124 179.641 349.28 178.966C349.613 177.55 350.087 175.539 350.632 173.026C351.722 168 353.046 160.991 354.016 153.204C354.54 149.324 354.724 145.558 355.63 142.238C356.043 140.665 356.682 139.16 357.528 137.771C359.42 134.813 362.4 132.72 365.825 131.945C366.365 131.819 366.914 131.736 367.467 131.697C367.66 131.68 367.854 131.68 368.047 131.697C367.858 131.738 367.667 131.766 367.474 131.782C366.928 131.856 366.387 131.96 365.853 132.093C363.895 132.601 362.072 133.534 360.515 134.826C359.448 135.714 358.528 136.765 357.789 137.941C356.968 139.312 356.35 140.795 355.956 142.344C355.078 145.615 354.901 149.374 354.384 153.268C353.407 161.055 352.041 168.056 350.887 173.09C350.307 175.603 349.79 177.621 349.422 179.008C349.233 179.674 349.084 180.205 348.976 180.601C348.93 180.787 348.868 180.97 348.792 181.146Z" fill="#455A64"/>
<path d="M349.634 125.006C350.108 125.965 350.716 126.852 351.439 127.64C353.286 129.455 355.675 130.618 358.243 130.953C360.821 131.235 363.427 131.125 365.973 130.627L368.302 130.217C368.586 130.152 368.875 130.115 369.166 130.103C368.899 130.221 368.618 130.307 368.331 130.358C367.786 130.493 367 130.684 366.016 130.882C363.463 131.463 360.83 131.609 358.228 131.314C355.582 130.977 353.13 129.742 351.284 127.817C350.738 127.228 350.289 126.556 349.953 125.828C349.804 125.572 349.697 125.295 349.634 125.006Z" fill="#263238"/>
<path d="M346.944 122.769C347.015 122.698 347.354 122.917 347.694 123.264C348.034 123.611 348.261 123.972 348.19 124.015C348.119 124.057 347.779 123.866 347.439 123.526C347.1 123.186 346.873 122.839 346.944 122.769Z" fill="#263238"/>
<path d="M347.744 121.537C347.836 121.48 348.154 121.841 348.452 122.337C348.749 122.832 348.94 123.285 348.848 123.335C348.756 123.385 348.445 123.031 348.14 122.535C347.836 122.039 347.659 121.586 347.744 121.537Z" fill="#263238"/>
<path d="M349.96 121.374C350.066 121.374 350.08 121.806 350.002 122.308C349.924 122.811 349.776 123.193 349.676 123.179C349.577 123.165 349.556 122.747 349.634 122.245C349.712 121.742 349.86 121.36 349.96 121.374Z" fill="#263238"/>
<path d="M356.628 149.02C356.646 149.441 356.627 149.863 356.572 150.28C356.508 151.094 356.388 152.262 356.218 153.699C355.885 156.588 355.297 160.552 354.413 164.892C353.528 169.232 352.508 173.118 351.694 175.907C351.283 177.323 350.929 178.421 350.675 179.185C350.556 179.589 350.41 179.984 350.236 180.367C350.307 179.953 350.407 179.544 350.533 179.143C350.767 178.307 351.071 177.189 351.439 175.837C352.19 173.005 353.167 169.154 354.051 164.821C354.936 160.489 355.559 156.538 355.963 153.671C356.154 152.255 356.31 151.13 356.423 150.266C356.466 149.847 356.535 149.431 356.628 149.02Z" fill="#455A64"/>
<path d="M369.18 132.631C369.18 132.702 368.167 132.709 366.603 133.119C364.562 133.647 362.683 134.672 361.134 136.103C359.585 137.533 358.414 139.324 357.725 141.317C357.187 142.839 357.102 143.859 357.017 143.844C356.975 143.61 356.975 143.371 357.017 143.137C357.096 142.493 357.233 141.858 357.428 141.239C358.068 139.17 359.243 137.306 360.834 135.837C362.425 134.368 364.376 133.345 366.49 132.871C367.122 132.727 367.767 132.639 368.415 132.61C368.67 132.577 368.927 132.584 369.18 132.631Z" fill="#455A64"/>
<path d="M352.147 180.997C352.134 180.82 352.134 180.643 352.147 180.466C352.147 180.119 352.232 179.602 352.324 178.944C352.52 177.063 353.09 175.241 354.002 173.585C354.596 172.544 355.418 171.525 356.083 170.321C356.418 169.705 356.657 169.041 356.791 168.353C356.913 167.614 356.932 166.861 356.848 166.116C356.734 164.58 356.288 162.923 356.635 161.16C356.83 160.286 357.217 159.467 357.768 158.761C358.285 158.053 358.887 157.345 359.361 156.637C359.851 155.925 360.127 155.087 360.154 154.223C360.144 153.37 360.029 152.521 359.814 151.695C359.401 150.078 359.262 148.403 359.403 146.74C359.606 144.39 360.395 142.129 361.699 140.163C363.003 138.198 364.779 136.591 366.865 135.491C367.323 135.254 367.796 135.046 368.281 134.868C368.446 134.798 368.616 134.744 368.791 134.705C368.638 134.796 368.477 134.872 368.309 134.931C367.991 135.08 367.523 135.292 366.95 135.639C365.328 136.556 363.897 137.777 362.738 139.236C361.017 141.402 359.98 144.032 359.757 146.789C359.632 148.411 359.775 150.042 360.182 151.617C360.406 152.471 360.525 153.348 360.536 154.23C360.506 155.162 360.209 156.067 359.679 156.835C359.184 157.621 358.582 158.286 358.079 158.994C357.553 159.655 357.185 160.427 357.003 161.252C356.671 162.888 357.088 164.523 357.202 166.095C357.283 166.871 357.257 167.655 357.124 168.424C356.968 169.144 356.703 169.837 356.338 170.477C355.63 171.709 354.809 172.714 354.214 173.726C353.302 175.35 352.706 177.133 352.458 178.979C352.352 179.602 352.274 180.105 352.211 180.48C352.206 180.654 352.185 180.827 352.147 180.997Z" fill="#455A64"/>
<path d="M369.987 139.965C369.398 139.97 368.812 140.054 368.245 140.213C366.722 140.732 365.428 141.766 364.585 143.136C363.453 144.828 362.95 147.257 362.681 149.933C362.409 152.871 361.986 155.794 361.414 158.69C360.29 163.915 358.871 169.072 357.166 174.137C356.529 176.084 355.998 177.677 355.616 178.731C355.439 179.241 355.29 179.652 355.177 179.97C355.134 180.119 355.072 180.262 354.993 180.395C355.023 180.236 355.065 180.08 355.12 179.928C355.212 179.602 355.34 179.184 355.495 178.668L356.911 174.038C358.108 170.123 359.743 164.707 361.017 158.591C361.64 155.539 362.051 152.601 362.334 149.904C362.617 147.207 363.162 144.736 364.366 143.009C365.252 141.607 366.615 140.571 368.203 140.092C368.631 139.972 369.075 139.917 369.52 139.929C369.676 139.929 369.832 139.941 369.987 139.965Z" fill="#E0E0E0"/>
<path d="M343.999 178.462H357.712C357.712 178.462 349.394 244.505 303.477 244.3L304.064 231.423C304.064 231.423 335.299 229.483 343.999 178.462Z" fill="#694ED6"/>
<path d="M285.082 231.821L285.136 228.777C285.142 228.433 285.284 228.106 285.532 227.868C285.779 227.629 286.111 227.498 286.454 227.505L298.933 227.725L298.833 233.387L286.354 233.167C286.182 233.164 286.012 233.127 285.854 233.057C285.696 232.987 285.554 232.887 285.435 232.761C285.317 232.636 285.225 232.488 285.164 232.327C285.103 232.165 285.076 231.993 285.082 231.821Z" fill="#694ED6"/>
<g opacity="0.3">
<path d="M285.082 231.821L285.136 228.777C285.142 228.434 285.284 228.107 285.532 227.868C285.779 227.629 286.111 227.499 286.454 227.505L298.933 227.725L298.833 233.387L286.354 233.167C286.182 233.164 286.012 233.127 285.854 233.057C285.696 232.988 285.554 232.887 285.435 232.762C285.317 232.636 285.225 232.488 285.164 232.327C285.103 232.165 285.076 231.993 285.082 231.821Z" fill="black"/>
</g>
<path d="M285.044 243.409L285.128 239.204C285.139 238.641 285.374 238.105 285.78 237.715C286.186 237.324 286.731 237.111 287.294 237.123L298.954 237.356L298.784 245.851L287.167 245.619C286.881 245.619 286.597 245.561 286.334 245.449C286.071 245.337 285.833 245.172 285.635 244.966C285.436 244.76 285.282 244.515 285.18 244.248C285.079 243.98 285.032 243.695 285.044 243.409Z" fill="#694ED6"/>
<path d="M293.52 227.614L293.265 242.047L298.716 242.143L298.97 227.71L293.52 227.614Z" fill="#694ED6"/>
<path d="M305.173 226.742L296.367 226.849L296.607 246.444L305.413 246.336L305.173 226.742Z" fill="#263238"/>
<path d="M305.31 244.28C305.31 244.443 303.37 244.563 300.985 244.577C299.536 244.646 298.083 244.584 296.645 244.393C298.082 244.215 299.531 244.151 300.978 244.202C302.174 244.202 303.257 244.202 304.043 244.202H304.97C305.086 244.217 305.2 244.243 305.31 244.28Z" fill="#455A64"/>
<path d="M305.268 240.753C305.268 240.916 303.328 241.029 300.942 241.044C299.493 241.112 298.041 241.052 296.602 240.867C298.039 240.688 299.488 240.624 300.935 240.675C302.131 240.675 303.215 240.675 304 240.675H304.928C305.044 240.685 305.159 240.711 305.268 240.753Z" fill="#455A64"/>
<path d="M305.366 237.193C305.366 237.356 303.434 237.47 301.041 237.484C299.594 237.552 298.145 237.493 296.708 237.307C298.145 237.129 299.594 237.065 301.041 237.116C302.237 237.116 303.32 237.116 304.099 237.116H305.027C305.143 237.127 305.257 237.154 305.366 237.193Z" fill="#455A64"/>
<path d="M305.182 233.732C305.182 233.894 303.243 234.015 300.85 234.029C299.403 234.097 297.953 234.035 296.517 233.845C297.954 233.667 299.403 233.603 300.85 233.654C302.046 233.654 303.129 233.654 303.915 233.654H304.843C304.958 233.669 305.072 233.695 305.182 233.732Z" fill="#455A64"/>
<path d="M305.31 230.355C305.31 230.517 303.37 230.638 300.985 230.652C299.536 230.716 298.084 230.657 296.645 230.475C298.081 230.288 299.531 230.224 300.978 230.284C302.174 230.284 303.257 230.284 304.043 230.284H304.97C305.086 230.296 305.2 230.32 305.31 230.355Z" fill="#455A64"/>
<path d="M310.124 243.642C310.124 243.642 310.124 243.756 310.167 243.996V244.407L310.046 244.011C309.474 241.876 309.023 239.711 308.694 237.526C308.39 235.622 308.184 233.894 308.064 232.634C307.966 231.957 307.935 231.271 307.972 230.588C308.141 231.251 308.26 231.925 308.326 232.606C308.503 233.852 308.751 235.572 309.034 237.469C309.522 240.542 310.025 243.133 310.131 243.982H310.018C310.082 243.742 310.103 243.642 310.124 243.642Z" fill="#263238"/>
<path d="M316.636 242.375C315.758 240.195 314.997 237.969 314.357 235.707C313.592 233.484 312.947 231.223 312.424 228.932C313.303 231.112 314.064 233.338 314.704 235.6C315.469 237.823 316.114 240.084 316.636 242.375Z" fill="#263238"/>
<path d="M324.332 239.127C323.094 237.049 321.965 234.908 320.948 232.713C319.178 229.116 317.812 226.171 317.904 226.129C319.139 228.21 320.266 230.353 321.281 232.55C323.058 236.139 324.417 239.084 324.332 239.127Z" fill="#263238"/>
<path d="M331.15 234.028C329.59 232.243 328.13 230.373 326.775 228.428C325.315 226.557 323.952 224.612 322.69 222.602C324.247 224.393 325.71 226.265 327.072 228.209C329.401 231.366 331.228 233.972 331.15 234.028Z" fill="#263238"/>
<path d="M337.104 228.38C335.32 226.855 333.619 225.236 332.007 223.53C330.311 221.911 328.699 220.205 327.179 218.419C328.959 219.945 330.658 221.564 332.269 223.269C333.966 224.889 335.58 226.595 337.104 228.38Z" fill="#263238"/>
<path d="M342.01 221.598C341.388 221.34 340.793 221.022 340.233 220.649L336.042 218.2L331.858 215.757C331.257 215.449 330.686 215.087 330.152 214.674C330.786 214.901 331.398 215.188 331.978 215.531C333.083 216.104 334.59 216.947 336.226 217.881C337.861 218.815 339.319 219.75 340.36 220.43C340.944 220.768 341.496 221.159 342.01 221.598Z" fill="#263238"/>
<path d="M345.33 214.731C344.733 214.53 344.156 214.271 343.609 213.959C342.569 213.45 341.124 212.749 339.524 212.005C337.924 211.262 336.452 210.625 335.39 210.158C334.799 209.938 334.228 209.668 333.684 209.351C334.303 209.472 334.906 209.662 335.482 209.917C336.572 210.32 338.066 210.929 339.68 211.673C341.294 212.416 342.717 213.159 343.73 213.726C344.295 214.006 344.831 214.343 345.33 214.731Z" fill="#263238"/>
<path d="M349.294 208.09C348.631 208.048 347.974 207.939 347.333 207.764C346.129 207.502 344.501 207.099 342.682 206.575C340.862 206.051 339.27 205.506 338.116 205.081C337.48 204.885 336.866 204.627 336.282 204.31C336.936 204.428 337.577 204.604 338.201 204.833C339.369 205.194 340.99 205.697 342.781 206.249C344.572 206.801 346.207 207.212 347.39 207.538C348.039 207.666 348.676 207.851 349.294 208.09Z" fill="#263238"/>
<path d="M351.411 201.393C349.218 201.296 347.032 201.079 344.862 200.741C342.679 200.523 340.51 200.185 338.364 199.729C340.557 199.825 342.743 200.043 344.912 200.38C347.096 200.59 349.266 200.928 351.411 201.393Z" fill="#263238"/>
<path d="M353.662 194.844C353.027 194.893 352.389 194.874 351.758 194.787C350.582 194.702 348.961 194.561 347.177 194.384C345.393 194.207 343.772 194.022 342.611 193.867C341.975 193.822 341.344 193.716 340.728 193.548C341.366 193.509 342.006 193.53 342.639 193.612C343.815 193.697 345.429 193.838 347.213 194.015C348.997 194.192 350.611 194.376 351.779 194.525C352.415 194.574 353.045 194.681 353.662 194.844Z" fill="#263238"/>
<path d="M355.396 188.501C353.13 188.753 350.852 188.885 348.572 188.898C346.296 189.025 344.016 189.025 341.74 188.898C344.006 188.646 346.284 188.514 348.565 188.501C350.84 188.378 353.121 188.378 355.396 188.501Z" fill="#263238"/>
<path d="M356.111 183.318C355.5 183.478 354.873 183.575 354.242 183.609C353.081 183.729 351.474 183.828 349.697 183.835C347.92 183.842 346.306 183.757 345.145 183.651C344.515 183.627 343.888 183.536 343.276 183.382C343.903 183.326 344.533 183.326 345.159 183.382C346.32 183.425 347.92 183.474 349.69 183.46C351.46 183.446 353.067 183.389 354.221 183.34C354.849 183.276 355.482 183.269 356.111 183.318Z" fill="#263238"/>
<path d="M344.594 180.424C344.604 180.482 344.604 180.542 344.594 180.601V181.125C344.594 181.585 344.594 182.264 344.544 183.135C344.428 185.605 344.137 188.062 343.673 190.491C342.998 194.098 341.967 197.629 340.594 201.032C337.263 209.42 331.914 216.856 325.019 222.681C322.221 225.056 319.195 227.15 315.986 228.932C313.829 230.14 311.589 231.193 309.282 232.082C308.475 232.408 307.823 232.606 307.392 232.79L306.896 232.953C306.84 232.976 306.78 232.991 306.719 232.995C306.768 232.959 306.823 232.933 306.882 232.917L307.363 232.719C307.788 232.542 308.432 232.323 309.232 232.011C311.507 231.072 313.721 229.989 315.859 228.769C322.94 224.758 329.073 219.267 333.838 212.669C338.603 206.072 341.887 198.524 343.468 190.54C343.952 188.126 344.28 185.683 344.452 183.227C344.53 182.364 344.53 181.684 344.565 181.224C344.565 181.011 344.565 180.841 344.565 180.7C344.554 180.607 344.563 180.513 344.594 180.424Z" fill="white"/>
<path d="M408.159 103.471C408.159 103.471 400.57 93.1985 383.006 94.7206C383.006 94.7206 400.881 80.9866 390.362 66.8775C390.362 66.8775 412.938 73.5462 413.192 45.3279C413.192 45.3279 417.299 71.5215 438.593 64.0599C438.593 64.0599 440.108 84.8449 454.84 81.0008C447.711 88.0093 440.781 94.1896 442.197 103.152" fill="#694ED6"/>
<g opacity="0.8">
<path d="M408.159 103.471C408.159 103.471 400.57 93.1985 383.006 94.7206C383.006 94.7206 400.881 80.9866 390.362 66.8775C390.362 66.8775 412.938 73.5462 413.192 45.3279C413.192 45.3279 417.299 71.5215 438.593 64.0599C438.593 64.0599 440.108 84.8449 454.84 81.0008C447.711 88.0093 440.781 94.1896 442.197 103.152" fill="white"/>
</g>
<path d="M408.159 103.471C408.159 103.471 407.982 91.4924 393.873 92.7171C393.873 92.7171 406.991 85.1493 398.545 73.8153C398.545 73.8153 416.683 79.1743 416.888 56.5062C416.888 56.5062 420.18 77.5248 437.291 71.5499C437.291 71.5499 435.245 86.7988 447.089 83.7051C441.361 89.3686 439.039 95.74 440.172 102.961" fill="#694ED6"/>
<g opacity="0.6">
<path d="M408.159 103.471C408.159 103.471 407.982 91.4924 393.873 92.7171C393.873 92.7171 406.991 85.1493 398.545 73.8153C398.545 73.8153 416.683 79.1743 416.888 56.5062C416.888 56.5062 420.18 77.5248 437.291 71.5499C437.291 71.5499 435.245 86.7988 447.089 83.7051C441.361 89.3686 439.039 95.74 440.172 102.961" fill="white"/>
</g>
<path d="M431.33 24.0125C431.283 24.1647 431.226 24.3137 431.16 24.4585L430.601 25.7044C430.353 26.2424 430.055 26.9008 429.737 27.6866C429.418 28.4724 429.029 29.3361 428.668 30.3343C428.307 31.3325 427.868 32.4086 427.479 33.5908C427.089 34.7731 426.686 36.0403 426.275 37.3783C425.503 40.0684 424.767 43.0418 424.187 46.2416C423.606 49.4415 423.266 52.4856 423.054 55.2749C422.969 56.6908 422.877 58.0005 422.863 59.2464C422.849 60.4924 422.827 61.6534 422.863 62.7082C422.898 63.7631 422.919 64.7258 422.948 65.54C422.976 66.3541 423.019 67.1045 423.068 67.6638C423.118 68.2231 423.132 68.6761 423.153 69.023C423.171 69.183 423.171 69.3445 423.153 69.5044C423.117 69.3481 423.091 69.1897 423.075 69.0301C423.042 68.6809 422.993 68.2278 422.927 67.6709C422.856 67.0833 422.785 66.3612 422.743 65.5471C422.7 64.7329 422.615 63.7418 422.608 62.7153C422.601 61.6888 422.551 60.4924 422.608 59.2393C422.665 57.9863 422.693 56.6554 422.764 55.2537C423.154 49.1584 424.239 43.1278 425.999 37.2792C426.417 35.9412 426.806 34.6598 427.238 33.4917C427.67 32.3236 428.073 31.2263 428.47 30.2423C428.866 29.2583 429.263 28.3733 429.602 27.6017C429.942 26.83 430.254 26.1858 430.523 25.6407L431.139 24.4231C431.188 24.2798 431.252 24.1421 431.33 24.0125Z" fill="#694ED6"/>
<path d="M386.093 49.9656C386.203 50.0473 386.303 50.1424 386.39 50.2488L387.176 51.0912C387.884 51.7991 388.811 52.9248 389.944 54.3194C391.076 55.714 392.372 57.4131 393.738 59.3528C395.105 61.2925 396.513 63.5013 397.887 65.8658C399.26 68.2303 400.449 70.5665 401.469 72.7116C402.488 74.8566 403.31 76.8317 403.947 78.5096C404.584 80.1874 405.072 81.5608 405.363 82.5165C405.495 82.9601 405.608 83.3282 405.702 83.6209C405.75 83.7485 405.781 83.8818 405.794 84.0173C405.724 83.8997 405.67 83.7736 405.632 83.6421L405.221 82.566C404.888 81.6245 404.371 80.2652 403.699 78.6087C403.026 76.9521 402.17 74.9982 401.157 72.8602C400.145 70.7223 398.927 68.4215 397.561 66.0499C396.195 63.6783 394.786 61.5049 393.455 59.551C392.124 57.5971 390.843 55.8839 389.731 54.4822C388.62 53.0805 387.714 51.9478 387.062 51.1832L386.354 50.2983C386.254 50.1986 386.166 50.0868 386.093 49.9656Z" fill="#694ED6"/>
<path d="M434.77 53.5817C434.737 53.6969 434.687 53.8067 434.621 53.9073L434.147 54.7922C433.928 55.1745 433.673 55.6418 433.397 56.2081C433.12 56.7745 432.781 57.3833 432.462 58.0983C431.754 59.5142 431.046 61.2274 430.338 63.1671C428.83 67.3901 427.841 71.7808 427.393 76.2427C427.202 78.2957 427.117 80.1576 427.124 81.7221C427.124 82.5009 427.124 83.2088 427.16 83.8459C427.195 84.4831 427.202 84.9999 427.23 85.4388C427.259 85.8777 427.266 86.1467 427.28 86.4441C427.302 86.561 427.302 86.681 427.28 86.798C427.246 86.6851 427.225 86.5688 427.216 86.4511C427.181 86.1821 427.146 85.8494 427.096 85.4459C427.046 85.0423 426.99 84.476 426.961 83.853C426.933 83.23 426.869 82.5221 426.869 81.7292C426.834 79.8887 426.901 78.0476 427.068 76.2144C427.473 71.7192 428.468 67.2968 430.027 63.0609C430.662 61.3322 431.392 59.64 432.214 57.9921C432.547 57.2842 432.922 56.6683 433.205 56.1161C433.489 55.5639 433.772 55.1037 434.005 54.7002C434.239 54.2967 434.402 54.0772 434.543 53.8436C434.608 53.7473 434.684 53.6594 434.77 53.5817Z" fill="#694ED6"/>
<path d="M448.674 56.3291C448.71 56.3716 448.087 56.8317 447.145 57.6529C444.679 59.7793 442.634 62.3485 441.113 65.2279C440.828 65.8417 440.508 66.4396 440.158 67.0189C440.312 66.3544 440.55 65.7122 440.866 65.1075C441.574 63.6218 442.448 62.2206 443.471 60.9307C444.496 59.6411 445.667 58.4746 446.961 57.4547C447.48 57.0061 448.056 56.6277 448.674 56.3291Z" fill="#694ED6"/>
<path d="M389.562 74.3813C390.179 74.6713 390.759 75.035 391.289 75.4645C392.615 76.4432 393.839 77.5532 394.942 78.7776C396.048 79.9977 397.025 81.3286 397.859 82.7491C398.233 83.3208 398.535 83.9367 398.758 84.5827C398.356 84.0361 397.982 83.469 397.639 82.8837C396.748 81.5211 395.754 80.2289 394.666 79.0183C393.572 77.8145 392.389 76.6951 391.126 75.6698C390.578 75.2738 390.055 74.8434 389.562 74.3813Z" fill="#694ED6"/>
<path d="M385.972 67.7986C385.915 67.8977 384.471 67.0906 382.517 66.5951C380.563 66.0995 378.914 66.0924 378.914 65.9792C381.417 65.6965 383.937 66.344 385.993 67.7986H385.972Z" fill="#694ED6"/>
<path fill-rule="evenodd" clip-rule="evenodd" d="M371.403 45.6408C371.507 45.2303 371.664 44.8352 371.87 44.4656L371.226 43.4886L372.571 42.0728L373.569 42.6745C373.934 42.4598 374.324 42.291 374.73 42.1719L374.971 41.0321L376.904 40.9967L377.18 42.1365C377.589 42.2392 377.984 42.3938 378.355 42.5966L379.332 41.9595L380.748 43.3046L380.139 44.3028C380.361 44.664 380.53 45.0549 380.641 45.4638L381.788 45.6974V47.6371L380.656 47.9132C380.552 48.3214 380.395 48.7142 380.188 49.0813L380.833 50.0654L379.487 51.4812L378.482 50.8724C378.123 51.0941 377.735 51.2633 377.328 51.375L377.066 52.5007H375.134L374.858 51.368C374.447 51.2642 374.052 51.1071 373.682 50.9007L372.705 51.5379L371.29 50.1928L371.898 49.1946C371.677 48.8359 371.507 48.4473 371.396 48.0407L370.249 47.8V45.8673L371.382 45.5912L371.403 45.6408ZM373.951 46.7381C373.961 47.1476 374.092 47.545 374.327 47.8802C374.563 48.2154 374.892 48.4734 375.274 48.6217C375.656 48.77 376.073 48.802 376.473 48.7135C376.873 48.6251 377.238 48.4202 377.521 48.1247C377.805 47.8292 377.995 47.4564 378.067 47.0531C378.139 46.6499 378.09 46.2344 377.926 45.8589C377.763 45.4835 377.491 45.1649 377.147 44.9434C376.802 44.7219 376.4 44.6074 375.99 44.6143C375.717 44.6198 375.448 44.6791 375.198 44.789C374.948 44.8988 374.722 45.0569 374.533 45.2542C374.345 45.4515 374.197 45.6842 374.098 45.9388C373.999 46.1935 373.952 46.4651 373.958 46.7381H373.951Z" fill="#694ED6"/>
<path fill-rule="evenodd" clip-rule="evenodd" d="M452.511 97.9496C452.588 97.6485 452.702 97.3582 452.851 97.0859L452.377 96.378L453.375 95.3515L454.083 95.7975C454.349 95.639 454.635 95.5153 454.933 95.4294L455.11 94.5869H456.525L456.731 95.4294C457.033 95.5023 457.323 95.6167 457.594 95.7692L458.302 95.2948L459.329 96.293L458.883 97.001C459.042 97.2668 459.166 97.5524 459.251 97.8505L460.093 98.0275V99.4433L459.251 99.6487C459.175 99.9498 459.061 100.24 458.911 100.512L459.378 101.22L458.387 102.247L457.679 101.801C457.411 101.961 457.123 102.084 456.823 102.169L456.653 103.011H455.237L455.032 102.176C454.73 102.1 454.44 101.986 454.168 101.836L453.46 102.303L452.462 101.348L452.908 100.64C452.748 100.372 452.624 100.084 452.54 99.7832L451.697 99.6062V98.1903L452.54 97.985L452.511 97.9496ZM454.395 98.7566C454.398 98.9575 454.441 99.1557 454.52 99.3399C454.6 99.5242 454.716 99.691 454.86 99.8306C455.004 99.9703 455.175 100.08 455.361 100.154C455.548 100.228 455.748 100.264 455.948 100.261C456.149 100.258 456.347 100.215 456.532 100.135C456.716 100.055 456.883 99.9399 457.022 99.7956C457.162 99.6513 457.272 99.4809 457.346 99.2942C457.42 99.1074 457.456 98.9079 457.453 98.7071C457.446 98.3015 457.279 97.9152 456.987 97.6331C456.696 97.351 456.304 97.1961 455.899 97.2027C455.493 97.2093 455.107 97.3767 454.825 97.6681C454.543 97.9595 454.388 98.3511 454.395 98.7566Z" fill="#455A64"/>
<path d="M438.301 36.7347L435.133 43.4042L438.151 44.838L441.32 38.1685L438.301 36.7347Z" fill="#E0E0E0"/>
<path d="M435.117 43.4101C435.414 43.5077 435.705 43.6235 435.988 43.757C436.526 43.9835 437.283 44.3091 438.189 44.7197L438.012 44.7835C438.805 43.049 439.903 40.6845 441.134 38.0935C441.057 37.874 441.241 38.3979 441.219 38.3412H441.177H441.127L441.028 38.2988L440.83 38.1997L440.434 38.0156L439.669 37.6475L438.211 36.9395L438.444 36.8617C437.531 38.7589 436.71 40.4013 436.122 41.5624C435.839 42.1004 435.605 42.5605 435.414 42.9428C435.333 43.1212 435.236 43.2918 435.124 43.4525C435.166 43.2855 435.228 43.1239 435.308 42.9711C435.471 42.5889 435.676 42.1287 435.91 41.5907C436.441 40.3943 437.205 38.6881 438.133 36.713L438.211 36.5502L438.366 36.628L439.832 37.336L440.603 37.697L440.993 37.8811L441.191 37.9802L441.29 38.0227H441.34H441.389C441.389 37.966 441.552 38.4899 441.474 38.2704C440.242 40.8615 439.11 43.226 438.26 44.918L438.204 45.0383L438.083 44.9746C437.135 44.5074 436.377 44.118 435.874 43.849C435.611 43.7233 435.357 43.5765 435.117 43.4101Z" fill="#263238"/>
<path d="M441.028 34.6247C440.664 34.4508 440.268 34.3506 439.864 34.3298C439.461 34.3089 439.057 34.368 438.676 34.5034C438.296 34.6389 437.945 34.8482 437.646 35.1192C437.346 35.3903 437.102 35.7178 436.929 36.0831L442.494 38.7307C442.668 38.365 442.768 37.9685 442.788 37.5641C442.808 37.1597 442.749 36.7552 442.613 36.3738C442.477 35.9924 442.267 35.6416 441.995 35.3415C441.723 35.0413 441.395 34.7978 441.028 34.6247Z" fill="#E0E0E0"/>
<path d="M441.028 34.6244C441.152 34.6409 441.27 34.6844 441.375 34.7518C441.674 34.9173 441.942 35.1328 442.168 35.3889C442.526 35.7898 442.77 36.2785 442.876 36.8048C443.022 37.4794 442.943 38.1833 442.65 38.8083L442.586 38.964L442.423 38.8932L439.641 37.5835L436.852 36.2172L436.696 36.1464L436.774 35.9907C437.083 35.38 437.579 34.884 438.19 34.5748C438.664 34.3319 439.193 34.2149 439.726 34.235C440.067 34.2434 440.403 34.3154 440.717 34.4474C440.936 34.5465 441.043 34.6173 441.028 34.6314C440.603 34.52 440.166 34.4559 439.726 34.4403C439.229 34.4503 438.742 34.5841 438.31 34.8297C437.763 35.1322 437.327 35.6008 437.064 36.1677L436.986 35.9411L439.775 37.2508L442.551 38.5817L442.324 38.6667C442.598 38.1045 442.687 37.4702 442.579 36.8544C442.492 36.3702 442.291 35.9138 441.991 35.5234C441.706 35.1873 441.383 34.8856 441.028 34.6244Z" fill="#263238"/>
<path d="M441.099 36.3868C441.196 36.0326 441.19 35.6583 441.082 35.3075C440.974 34.9566 440.769 34.6435 440.491 34.4045" fill="#E0E0E0"/>
<path d="M440.491 34.4044C440.54 34.3123 441.057 34.5955 441.255 35.2539C441.453 35.9123 441.191 36.4291 441.099 36.3866C441.007 36.3441 441.099 35.884 440.908 35.3601C440.717 34.8362 440.427 34.4893 440.491 34.4044Z" fill="#263238"/>
<path d="M437.701 37.6826C438.267 37.8293 438.81 38.0532 439.315 38.3481C439.874 38.5325 440.405 38.7921 440.894 39.1197C440.289 39.1339 439.692 38.9821 439.167 38.6808C438.261 38.2773 437.645 37.7605 437.701 37.6826Z" fill="#263238"/>
<path d="M437.326 38.4612C437.894 38.6264 438.439 38.8643 438.947 39.1691C439.503 39.352 440.032 39.6092 440.519 39.9337C439.914 39.9561 439.315 39.8063 438.791 39.5018C437.892 39.0488 437.241 38.5461 437.326 38.4612Z" fill="#263238"/>
<path d="M436.958 39.2469C437.524 39.3937 438.067 39.6176 438.572 39.9124C439.13 40.0988 439.661 40.3583 440.15 40.6841C439.546 40.699 438.949 40.5497 438.423 40.2522C437.517 39.8416 436.901 39.3248 436.958 39.2469Z" fill="#263238"/>
<path d="M436.583 40.026C437.151 40.1912 437.696 40.4291 438.204 40.7339C438.76 40.9168 439.288 41.174 439.775 41.4985C439.17 41.5209 438.571 41.3711 438.048 41.0667C437.149 40.6277 436.533 40.111 436.583 40.026Z" fill="#263238"/>
<path d="M436.207 40.8109C436.775 40.9592 437.32 41.183 437.829 41.4764C438.385 41.6661 438.916 41.9254 439.407 42.248C438.206 42.1715 437.072 41.6695 436.207 40.8322V40.8109Z" fill="#263238"/>
<path d="M435.825 41.5968C436.394 41.7429 436.939 41.9668 437.446 42.2623C438.003 42.4476 438.531 42.7072 439.018 43.0339C437.821 42.9509 436.691 42.4497 435.825 41.618V41.5968Z" fill="#263238"/>
<path d="M435.464 42.3757C436.033 42.5396 436.578 42.7776 437.085 43.0837C437.641 43.2665 438.169 43.5237 438.656 43.8482C438.053 43.8708 437.457 43.721 436.936 43.4164C436.03 42.9775 435.407 42.4607 435.464 42.3757Z" fill="#263238"/>
<path d="M368.453 94.2334L361.728 97.2837L363.109 100.327L369.833 97.2764L368.453 94.2334Z" fill="#E0E0E0"/>
<path d="M369.824 97.2763C369.661 97.0091 369.515 96.7325 369.385 96.448C369.123 95.9312 368.755 95.1949 368.323 94.3242L368.5 94.3879C366.773 95.202 364.408 96.2993 361.803 97.4816C361.718 97.701 361.909 97.1843 361.895 97.2409V97.2904L361.937 97.3896L362.029 97.5878L362.206 97.9842C362.327 98.2462 362.44 98.501 362.56 98.7559L363.219 100.235L362.985 100.15C364.918 99.2868 366.589 98.5718 367.799 98.0267L369.215 97.432C369.393 97.3484 369.578 97.2797 369.767 97.2267C369.629 97.3294 369.48 97.415 369.321 97.4816L367.969 98.147C366.794 98.7134 365.137 99.5275 363.12 100.441L362.957 100.512L362.886 100.349C362.667 99.8815 362.447 99.3859 362.178 98.8833C362.058 98.6284 361.945 98.3665 361.824 98.1046L361.647 97.7152L361.555 97.5099L361.506 97.4108V97.3612V97.3258L361.598 97.0851C364.21 95.8958 366.589 94.841 368.344 94.0835L368.465 94.0269L368.521 94.1472C368.939 95.1241 369.265 95.91 369.477 96.4409C369.623 96.706 369.739 96.9861 369.824 97.2763Z" fill="#263238"/>
<path d="M359.658 100.186C359.825 100.555 360.063 100.887 360.358 101.164C360.653 101.441 361 101.657 361.379 101.799C361.757 101.942 362.16 102.009 362.565 101.995C362.969 101.982 363.367 101.889 363.736 101.722L361.187 96.1084C360.819 96.275 360.486 96.5128 360.21 96.8082C359.933 97.1036 359.718 97.4506 359.576 97.8295C359.433 98.2084 359.368 98.6116 359.382 99.0161C359.396 99.4205 359.49 99.8181 359.658 100.186Z" fill="#E0E0E0"/>
<path d="M359.658 100.186C359.658 100.186 359.573 100.087 359.474 99.8749C359.351 99.5538 359.286 99.2134 359.283 98.8696C359.271 98.3366 359.398 97.8096 359.651 97.3404C359.975 96.7236 360.489 96.2272 361.116 95.9246L361.272 95.8538L361.343 96.0095C361.746 96.8803 362.178 97.8218 362.631 98.8413C363.085 99.8607 363.495 100.774 363.892 101.673L363.962 101.829L363.807 101.9C363.174 102.176 362.469 102.241 361.796 102.084C361.27 101.977 360.781 101.733 360.38 101.376C360.125 101.15 359.914 100.879 359.757 100.576C359.651 100.356 359.616 100.236 359.637 100.229C359.887 100.592 360.179 100.925 360.508 101.22C360.943 101.569 361.467 101.79 362.021 101.858C362.574 101.927 363.136 101.841 363.644 101.609L363.559 101.836L362.27 99.0041C361.831 98.013 361.407 97.0714 361.01 96.1723L361.237 96.2573C360.728 96.4855 360.294 96.8507 359.981 97.3121C359.668 97.7735 359.49 98.3128 359.467 98.8696C359.482 99.3142 359.546 99.7559 359.658 100.186Z" fill="#263238"/>
<path d="M360.741 98.7981C360.44 99.0062 360.203 99.2955 360.059 99.6325C359.915 99.9696 359.869 100.341 359.927 100.702" fill="#E0E0E0"/>
<path d="M359.928 100.703C359.836 100.745 359.616 100.186 359.885 99.563C360.154 98.94 360.707 98.7064 360.742 98.7984C360.777 98.8904 360.438 99.1948 360.225 99.7045C360.013 100.214 360.034 100.681 359.928 100.703Z" fill="#263238"/>
<path d="M364.175 100.001C363.836 99.5239 363.564 99.0022 363.368 98.4508C363.062 97.9488 362.824 97.4084 362.66 96.8438C363.525 97.6817 364.063 98.8016 364.175 100.001Z" fill="#263238"/>
<path d="M364.961 99.6485C364.625 99.1665 364.354 98.643 364.153 98.0911C363.851 97.5898 363.613 97.0522 363.446 96.4911C363.523 96.4274 364.054 97.0363 364.479 97.907C364.804 98.4289 364.972 99.0337 364.961 99.6485Z" fill="#263238"/>
<path d="M365.739 99.2875C365.402 98.8094 365.13 98.2879 364.932 97.7371C364.626 97.2352 364.388 96.6948 364.224 96.1301C365.09 96.9681 365.627 98.088 365.739 99.2875Z" fill="#263238"/>
<path d="M366.539 98.933C366.206 98.4499 365.935 97.9266 365.732 97.3756C365.428 96.8729 365.19 96.3327 365.024 95.7686C365.49 96.1389 365.847 96.6281 366.058 97.1844C366.383 97.7088 366.551 98.316 366.539 98.933Z" fill="#263238"/>
<path d="M367.332 98.5724C366.994 98.0923 366.722 97.5684 366.525 97.015C366.22 96.5151 365.982 95.9772 365.817 95.415C366.683 96.253 367.22 97.3729 367.332 98.5724Z" fill="#263238"/>
<path d="M368.118 98.2109C367.782 97.7319 367.51 97.2106 367.311 96.6605C367.006 96.1578 366.768 95.6176 366.603 95.0535C367.069 95.4238 367.426 95.913 367.637 96.4693C367.961 96.9915 368.128 97.5962 368.118 98.2109Z" fill="#263238"/>
<path d="M368.911 97.8566C368.342 96.8362 367.836 95.7817 367.396 94.6992C367.474 94.6354 368.012 95.2443 368.437 96.115C368.755 96.6394 368.92 97.243 368.911 97.8566Z" fill="#263238"/>
<path d="M383.098 11C383.098 11 391.671 19.4952 393.809 24.7552C395.841 29.7886 397.186 34.4751 397.186 34.4751C397.186 34.4751 399.395 30.6098 401.88 34.4751C404.365 38.3405 416.109 85.2837 418.042 102.954H425.525C425.525 102.954 422.042 73.4116 420.385 70.0985C418.729 66.7854 417.341 65.681 417.341 65.681C417.341 65.681 415.408 53.2496 414.028 51.317C413.233 50.1823 412.196 49.2391 410.991 48.556C410.991 48.556 408.506 35.0273 404.917 32.2735C401.328 29.5196 398.545 30.893 398.545 30.893C398.545 30.893 396.28 16.3945 383.098 11Z" fill="#694ED6"/>
<path d="M453.29 73.738C451.603 74.1894 449.947 74.7523 448.335 75.4228C446.768 76.2035 445.252 77.0831 443.797 78.0564C444.12 77.6474 444.507 77.2936 444.944 77.0086C446.957 75.4861 449.283 74.4295 451.754 73.9149C452.254 73.7786 452.772 73.7189 453.29 73.738Z" fill="#455A64"/>
<path d="M453 72.2228C451.295 72.8748 449.627 73.6168 448.002 74.4457C445.361 75.904 443.556 77.596 443.478 77.504C443.799 77.068 444.181 76.6795 444.61 76.35C445.606 75.505 446.683 74.7604 447.825 74.1271C448.965 73.491 450.168 72.9738 451.414 72.5838C451.922 72.3867 452.456 72.265 453 72.2228Z" fill="#455A64"/>
<path d="M451.548 75.861C451.548 75.9743 449.99 75.9955 448.157 76.5265C446.323 77.0574 444.978 77.8361 444.922 77.7441C446.812 76.3 449.18 75.627 451.548 75.861Z" fill="#455A64"/>
<path d="M435.032 102.883C433.779 92.9718 437.035 81.3475 444.943 75.7831L446.826 77.3193C446.826 77.3193 436.979 83.181 437.701 102.954" fill="#263238"/>
<path d="M394.347 88.6038C393.033 89.0555 391.761 89.6217 390.545 90.2957C389.397 91.0788 388.317 91.9574 387.317 92.9222C388.103 91.7332 389.14 90.7305 390.354 89.9845C391.568 89.2385 392.931 88.7672 394.347 88.6038Z" fill="#455A64"/>
<path d="M394.149 87.7256C392.895 88.2939 391.609 88.7903 390.298 89.2123C389.028 89.7585 387.728 90.2313 386.404 90.6281C387.585 89.8974 388.849 89.3126 390.171 88.8866C391.444 88.3371 392.78 87.9471 394.149 87.7256Z" fill="#455A64"/>
<path d="M415.961 105.326L412.534 104.434C412.912 103.012 412.869 101.51 412.411 100.111C411.952 98.7126 411.097 97.4771 409.95 96.5549C409.8 97.6451 409.377 98.6797 408.72 99.5622C408.063 100.445 407.193 101.147 406.191 101.602C405.432 101.901 404.618 102.029 403.804 101.977C402.991 101.926 402.198 101.696 401.483 101.305C400.833 100.974 400.266 100.502 399.821 99.9244C399.377 99.3464 399.067 98.6766 398.913 97.9636C398.745 96.8534 398.917 95.7183 399.406 94.7075C399.895 93.6967 400.678 92.8575 401.653 92.3002C402.45 91.8385 403.331 91.5401 404.244 91.4223C404.164 91.3484 404.079 91.2798 403.989 91.217C402.445 90.1006 400.601 89.4757 398.696 89.4239C396.792 89.3721 394.916 89.8959 393.314 90.9268L391.317 88.003C393.533 86.5468 396.141 85.8041 398.792 85.875C401.442 85.9459 404.007 86.8269 406.141 88.3994C407.439 89.378 408.492 90.6426 409.221 92.0948C411.77 93.0983 413.863 95.0008 415.105 97.4426C416.347 99.8844 416.651 102.696 415.961 105.347V105.326ZM405.384 94.8558C404.702 94.835 404.027 94.9989 403.43 95.3301C403.084 95.519 402.8 95.8023 402.609 96.1471C402.418 96.4919 402.33 96.8838 402.354 97.2769C402.412 97.4747 402.51 97.6581 402.643 97.8154C402.776 97.9727 402.94 98.1004 403.126 98.1902C403.38 98.3298 403.661 98.4145 403.95 98.4389C404.239 98.4633 404.529 98.4268 404.803 98.3318C405.375 98.0232 405.839 97.5473 406.132 96.9678C406.426 96.3883 406.535 95.7329 406.446 95.0894V94.9478C406.095 94.8856 405.74 94.8548 405.384 94.8558Z" fill="#263238"/>
<path d="M387.219 39.5869C387.55 39.7234 387.868 39.8917 388.167 40.0896C388.769 40.4294 389.583 40.9674 390.631 41.6682C391.819 42.502 392.965 43.3952 394.064 44.3442C396.751 46.6745 399.145 49.3227 401.193 52.2306C402.029 53.4139 402.801 54.6403 403.508 55.9048C404.11 56.988 404.563 57.88 404.839 58.5171C405.006 58.8335 405.141 59.1654 405.243 59.5082C405.037 59.2165 404.859 58.906 404.712 58.5808C404.393 57.9649 403.912 57.0942 403.296 56.0393C402.68 54.9845 401.88 53.7456 400.931 52.4218C398.867 49.5722 396.492 46.9605 393.852 44.6345C392.641 43.5301 391.473 42.5886 390.517 41.8806C389.562 41.1727 388.705 40.5851 388.125 40.2099C387.804 40.03 387.501 39.8215 387.219 39.5869Z" fill="#694ED6"/>
<path d="M375.24 118.465H375.841V154.223H375.24C373.55 154.223 371.929 153.552 370.734 152.357C369.539 151.162 368.868 149.542 368.868 147.852V124.808C368.876 123.124 369.55 121.51 370.744 120.321C371.938 119.133 373.555 118.465 375.24 118.465Z" fill="#263238"/>
<path d="M478.21 118.465H478.875C480.542 118.465 482.141 119.128 483.32 120.307C484.499 121.486 485.162 123.085 485.162 124.752V147.944C485.162 149.611 484.499 151.21 483.32 152.389C482.141 153.568 480.542 154.23 478.875 154.23H478.21V118.465Z" fill="#263238"/>
<path d="M469.778 111.485H384.011C378.491 111.485 374.015 115.96 374.015 121.481V179.354C374.015 184.875 378.491 189.35 384.011 189.35H469.778C475.299 189.35 479.774 184.875 479.774 179.354V121.481C479.774 115.96 475.299 111.485 469.778 111.485Z" fill="#694ED6"/>
<path d="M440.349 119.753C433.922 119.753 427.758 122.306 423.214 126.851C418.669 131.395 416.116 137.559 416.116 143.986H464.589C464.589 140.803 463.962 137.651 462.743 134.711C461.525 131.77 459.739 129.098 457.489 126.848C455.238 124.598 452.565 122.813 449.624 121.595C446.684 120.378 443.532 119.752 440.349 119.753Z" fill="white"/>
<path d="M459.895 142.818C460.914 142.818 461.834 142.818 462.5 142.818C462.862 142.8 463.226 142.824 463.583 142.889C463.228 142.95 462.867 142.976 462.507 142.967C461.799 142.967 460.914 142.967 459.895 142.967H457.289H456.496C456.4 142.978 456.303 142.978 456.206 142.967C456.302 142.951 456.4 142.951 456.496 142.967L457.289 142.931L459.895 142.818Z" fill="#E0E0E0"/>
<path d="M458.182 135.491C460.022 134.613 461.551 133.997 461.601 134.075C461.651 134.153 460.185 134.953 458.33 135.781C457.228 136.338 456.085 136.812 454.911 137.197C455.957 136.548 457.051 135.978 458.182 135.491Z" fill="#E0E0E0"/>
<path d="M453.637 129.502C454.982 127.973 456.143 126.797 456.235 126.875C456.327 126.953 455.279 128.242 453.906 129.742C453.108 130.681 452.239 131.557 451.307 132.362C452.011 131.352 452.79 130.396 453.637 129.502Z" fill="#E0E0E0"/>
<path d="M447.152 125.672C447.506 124.491 447.992 123.353 448.603 122.281C448.716 122.324 448.221 123.895 447.492 125.821C447.089 126.985 446.602 128.119 446.033 129.212C446.315 128.005 446.689 126.822 447.152 125.672Z" fill="#E0E0E0"/>
<path d="M439.725 124.412C439.725 122.373 439.782 120.724 439.902 120.724C440.023 120.724 440.101 122.373 440.086 124.412C440.12 125.645 440.058 126.878 439.902 128.101C439.747 126.878 439.687 125.644 439.725 124.412Z" fill="#E0E0E0"/>
<path d="M432.32 125.799C431.613 123.895 431.089 122.323 431.202 122.259C431.315 122.196 431.967 123.732 432.618 125.65C433.086 126.798 433.46 127.982 433.736 129.19C433.181 128.096 432.708 126.963 432.32 125.799Z" fill="#E0E0E0"/>
<path d="M425.914 129.743C424.54 128.242 423.493 126.961 423.585 126.876C423.677 126.791 424.838 127.973 426.183 129.502C427.028 130.387 427.807 131.334 428.512 132.334C427.581 131.538 426.712 130.672 425.914 129.743Z" fill="#E0E0E0"/>
<path d="M421.475 135.824C419.613 134.989 418.148 134.224 418.198 134.111C418.247 133.998 419.783 134.621 421.624 135.527C422.755 136.014 423.848 136.584 424.895 137.233C423.721 136.85 422.578 136.379 421.475 135.824Z" fill="#E0E0E0"/>
<path d="M419.932 142.995C418.912 142.995 417.992 142.995 417.319 142.995C416.959 143.004 416.599 142.978 416.243 142.918C416.601 142.853 416.964 142.829 417.327 142.847C417.992 142.847 418.912 142.847 419.932 142.847L422.537 142.889L423.33 142.925C423.424 142.908 423.519 142.908 423.613 142.925C423.519 142.936 423.424 142.936 423.33 142.925H422.537L419.932 142.995Z" fill="#E0E0E0"/>
<path d="M399.94 124.001C399.941 124.639 399.754 125.262 399.4 125.793C399.047 126.323 398.545 126.737 397.956 126.982C397.368 127.227 396.72 127.292 396.095 127.168C395.469 127.045 394.895 126.739 394.444 126.288C393.992 125.838 393.685 125.264 393.56 124.639C393.435 124.014 393.499 123.366 393.742 122.777C393.986 122.188 394.399 121.685 394.929 121.33C395.458 120.976 396.081 120.787 396.719 120.787C397.572 120.787 398.39 121.126 398.994 121.728C399.598 122.331 399.938 123.148 399.94 124.001Z" fill="white"/>
<path d="M399.94 133.7C399.941 134.337 399.754 134.961 399.4 135.491C399.047 136.022 398.545 136.436 397.956 136.681C397.368 136.926 396.72 136.991 396.095 136.867C395.469 136.744 394.895 136.437 394.444 135.987C393.992 135.537 393.685 134.963 393.56 134.338C393.435 133.713 393.499 133.065 393.742 132.476C393.986 131.887 394.399 131.383 394.929 131.029C395.458 130.675 396.081 130.486 396.719 130.486C397.572 130.486 398.39 130.824 398.994 131.427C399.598 132.029 399.938 132.847 399.94 133.7Z" fill="#455A64"/>
<path d="M460.907 182.632C460.907 182.632 460.907 182.427 460.907 182.031C460.907 181.634 460.907 181.047 460.907 180.296C460.907 178.76 460.907 176.523 460.872 173.656C460.872 167.9 460.829 159.603 460.801 149.374L460.935 149.508L394.977 149.558L395.161 149.374C395.161 161.104 395.161 172.353 395.161 182.647L394.984 182.477L442.359 182.554L456.022 182.604H459.675H460.624H460.949H460.645H459.718H456.1L442.472 182.654L394.984 182.739H394.765V182.562C394.765 172.282 394.765 161.033 394.765 149.289V149.104H394.956L460.914 149.154H461.056V149.289C461.02 159.554 460.999 167.879 460.978 173.649C460.978 176.48 460.978 178.739 460.978 180.261C460.978 181.004 460.978 181.578 460.978 181.974C460.978 182.37 460.907 182.632 460.907 182.632Z" fill="#263238"/>
<path d="M384.924 189.195H468.864V189.613C468.864 190.192 468.75 190.765 468.528 191.3C468.307 191.835 467.982 192.322 467.572 192.731C467.163 193.141 466.677 193.466 466.142 193.687C465.606 193.909 465.033 194.023 464.454 194.023H389.342C388.172 194.023 387.05 193.558 386.223 192.731C385.396 191.904 384.931 190.782 384.931 189.613V189.195H384.924Z" fill="#263238"/>
<g opacity="0.3">
<path d="M453.856 154.039C453.803 154.497 453.91 154.959 454.159 155.346C454.408 155.733 454.784 156.022 455.222 156.163C455.664 156.285 456.133 156.265 456.563 156.108C456.993 155.951 457.363 155.663 457.622 155.285C457.864 154.895 457.991 154.445 457.991 153.986C457.991 153.527 457.864 153.078 457.622 152.687C457.648 153.291 457.452 153.883 457.07 154.351C456.876 154.579 456.628 154.755 456.349 154.864C456.069 154.973 455.768 155.01 455.47 154.974C455.174 154.932 454.898 154.797 454.683 154.588C454.468 154.38 454.325 154.108 454.274 153.813" fill="black"/>
</g>
<path d="M457.637 153.253C457.638 153.641 457.524 154.022 457.309 154.345C457.094 154.669 456.788 154.921 456.43 155.07C456.071 155.22 455.676 155.259 455.295 155.184C454.914 155.108 454.564 154.921 454.289 154.647C454.015 154.372 453.828 154.022 453.752 153.641C453.677 153.26 453.716 152.865 453.865 152.506C454.015 152.148 454.267 151.842 454.591 151.627C454.914 151.412 455.294 151.298 455.683 151.299C456.201 151.299 456.698 151.505 457.065 151.871C457.431 152.238 457.637 152.735 457.637 153.253Z" fill="#E0E0E0"/>
<path d="M457.637 153.253C457.584 153.102 457.542 152.949 457.509 152.793C457.384 152.396 457.136 152.049 456.801 151.802C456.556 151.627 456.271 151.515 455.973 151.476C455.674 151.436 455.37 151.47 455.088 151.575C454.746 151.703 454.451 151.932 454.243 152.232C454.035 152.532 453.924 152.888 453.924 153.253C453.924 153.618 454.035 153.974 454.243 154.274C454.451 154.574 454.746 154.803 455.088 154.931C455.37 155.035 455.674 155.07 455.973 155.03C456.271 154.991 456.556 154.879 456.801 154.704C457.136 154.457 457.384 154.11 457.509 153.713C457.543 153.557 457.586 153.404 457.637 153.253C457.637 153.253 457.7 153.43 457.637 153.748C457.551 154.209 457.299 154.622 456.929 154.91C456.654 155.131 456.327 155.279 455.978 155.339C455.63 155.398 455.272 155.367 454.939 155.249C454.529 155.101 454.175 154.829 453.925 154.472C453.674 154.115 453.54 153.689 453.54 153.253C453.54 152.817 453.674 152.391 453.925 152.034C454.175 151.677 454.529 151.405 454.939 151.257C455.272 151.138 455.63 151.108 455.978 151.167C456.327 151.227 456.654 151.374 456.929 151.596C457.299 151.884 457.551 152.297 457.637 152.757C457.7 153.076 457.658 153.253 457.637 153.253Z" fill="#263238"/>
<path d="M456.581 152.418C456.617 152.517 456.157 152.757 455.725 153.211C455.293 153.664 455.067 154.124 454.967 154.088C454.868 154.053 454.967 153.472 455.463 152.949C455.958 152.425 456.56 152.319 456.581 152.418Z" fill="#263238"/>
<path d="M456.582 153.861C456.497 153.918 456.171 153.564 455.69 153.245C455.209 152.927 454.756 152.75 454.777 152.644C454.798 152.537 455.35 152.566 455.895 152.941C456.441 153.316 456.667 153.819 456.582 153.861Z" fill="#263238"/>
<g opacity="0.3">
<path d="M454.769 178.252C454.719 178.71 454.828 179.171 455.079 179.558C455.329 179.944 455.705 180.233 456.143 180.375C456.584 180.497 457.053 180.478 457.483 180.32C457.913 180.163 458.284 179.875 458.543 179.498C458.788 179.111 458.921 178.665 458.927 178.207C458.934 177.75 458.813 177.299 458.578 176.906C458.604 177.509 458.404 178.099 458.019 178.563C457.825 178.79 457.579 178.966 457.301 179.075C457.023 179.184 456.722 179.222 456.426 179.186C456.129 179.146 455.853 179.012 455.636 178.805C455.42 178.598 455.275 178.327 455.222 178.032" fill="black"/>
</g>
<path d="M456.603 179.412C457.682 179.412 458.557 178.537 458.557 177.458C458.557 176.379 457.682 175.504 456.603 175.504C455.524 175.504 454.649 176.379 454.649 177.458C454.649 178.537 455.524 179.412 456.603 179.412Z" fill="#E0E0E0"/>
<path d="M458.557 177.457C458.521 177.457 458.514 177.287 458.422 176.997C458.299 176.599 458.051 176.252 457.714 176.006C457.469 175.832 457.184 175.72 456.886 175.681C456.587 175.641 456.284 175.675 456.001 175.779C455.763 175.873 455.548 176.015 455.37 176.198C455.192 176.381 455.055 176.6 454.968 176.84C454.881 177.08 454.846 177.336 454.865 177.591C454.885 177.845 454.958 178.093 455.081 178.317C455.203 178.541 455.372 178.736 455.576 178.89C455.78 179.043 456.015 179.152 456.264 179.208C456.513 179.264 456.771 179.266 457.021 179.214C457.271 179.163 457.508 179.058 457.714 178.908C458.052 178.664 458.301 178.316 458.422 177.917C458.514 177.634 458.521 177.457 458.557 177.457C458.592 177.457 458.62 177.634 458.557 177.953C458.47 178.415 458.219 178.83 457.849 179.121C457.573 179.341 457.245 179.487 456.897 179.545C456.549 179.603 456.192 179.572 455.86 179.453C455.45 179.305 455.095 179.033 454.845 178.676C454.595 178.319 454.46 177.893 454.46 177.457C454.46 177.021 454.595 176.595 454.845 176.238C455.095 175.881 455.45 175.609 455.86 175.461C456.193 175.348 456.55 175.32 456.897 175.379C457.244 175.439 457.571 175.583 457.849 175.8C458.219 176.088 458.471 176.501 458.557 176.961C458.62 177.287 458.578 177.464 458.557 177.457Z" fill="#263238"/>
<path d="M457.502 176.622C457.538 176.721 457.071 176.962 456.646 177.415C456.221 177.868 455.987 178.328 455.881 178.3C455.775 178.272 455.881 177.677 456.377 177.16C456.872 176.643 457.481 176.53 457.502 176.622Z" fill="#263238"/>
<path d="M457.502 178.066C457.41 178.13 457.085 177.769 456.603 177.451C456.122 177.132 455.676 176.955 455.697 176.849C455.718 176.743 456.263 176.771 456.816 177.146C457.368 177.521 457.587 178.024 457.502 178.066Z" fill="#263238"/>
<g opacity="0.3">
<path d="M397.866 154.01C397.816 154.468 397.925 154.93 398.175 155.316C398.425 155.703 398.801 155.992 399.239 156.134C399.682 156.254 400.15 156.233 400.58 156.074C401.01 155.916 401.38 155.628 401.639 155.249C401.879 154.86 402.006 154.411 402.006 153.954C402.006 153.496 401.879 153.048 401.639 152.658C401.665 153.263 401.466 153.856 401.08 154.322C400.887 154.549 400.64 154.725 400.362 154.834C400.084 154.943 399.783 154.981 399.487 154.945C399.189 154.904 398.912 154.77 398.696 154.561C398.479 154.352 398.335 154.08 398.283 153.784" fill="black"/>
</g>
<path d="M399.692 155.178C400.771 155.178 401.646 154.303 401.646 153.224C401.646 152.145 400.771 151.27 399.692 151.27C398.613 151.27 397.738 152.145 397.738 153.224C397.738 154.303 398.613 155.178 399.692 155.178Z" fill="#E0E0E0"/>
<path d="M401.653 153.225C401.653 153.225 401.61 153.048 401.518 152.765C401.398 152.365 401.149 152.017 400.81 151.774C400.566 151.599 400.283 151.487 399.985 151.448C399.688 151.408 399.385 151.442 399.104 151.547C398.762 151.675 398.468 151.904 398.259 152.204C398.051 152.504 397.94 152.86 397.94 153.225C397.94 153.59 398.051 153.946 398.259 154.246C398.468 154.546 398.762 154.775 399.104 154.903C399.387 155.007 399.69 155.041 399.989 155.001C400.287 154.962 400.572 154.85 400.817 154.676C401.155 154.432 401.404 154.084 401.525 153.685C401.617 153.402 401.624 153.225 401.66 153.225C401.709 153.387 401.709 153.559 401.66 153.72C401.571 154.18 401.32 154.592 400.952 154.882C400.677 155.103 400.349 155.25 400.001 155.31C399.653 155.369 399.296 155.339 398.963 155.221C398.553 155.073 398.198 154.801 397.948 154.444C397.698 154.087 397.563 153.661 397.563 153.225C397.563 152.789 397.698 152.363 397.948 152.006C398.198 151.649 398.553 151.377 398.963 151.229C399.296 151.111 399.653 151.081 400.001 151.14C400.349 151.2 400.677 151.347 400.952 151.568C401.32 151.858 401.571 152.27 401.66 152.729C401.706 152.892 401.704 153.064 401.653 153.225Z" fill="#263238"/>
<path d="M400.598 152.39C400.598 152.489 400.166 152.729 399.741 153.182C399.316 153.635 399.083 154.096 398.977 154.06C398.87 154.025 398.977 153.437 399.472 152.92C399.968 152.404 400.577 152.319 400.598 152.39Z" fill="#263238"/>
<path d="M400.598 153.833C400.506 153.89 400.181 153.536 399.699 153.217C399.218 152.899 398.772 152.722 398.793 152.616C398.814 152.509 399.359 152.538 399.912 152.906C400.464 153.274 400.683 153.784 400.598 153.833Z" fill="#263238"/>
<g opacity="0.3">
<path d="M397.455 178.01C397.4 178.468 397.507 178.93 397.756 179.318C398.006 179.706 398.382 179.994 398.821 180.134C399.263 180.256 399.732 180.236 400.162 180.079C400.592 179.922 400.962 179.634 401.221 179.256C401.463 178.867 401.591 178.419 401.591 177.961C401.591 177.503 401.463 177.054 401.221 176.665C401.246 177.266 401.05 177.856 400.669 178.322C400.475 178.551 400.228 178.728 399.948 178.838C399.669 178.948 399.367 178.987 399.069 178.952C398.773 178.91 398.497 178.775 398.282 178.566C398.067 178.358 397.924 178.086 397.873 177.791" fill="black"/>
</g>
<path d="M399.281 179.17C400.361 179.17 401.235 178.295 401.235 177.216C401.235 176.137 400.361 175.262 399.281 175.262C398.202 175.262 397.328 176.137 397.328 177.216C397.328 178.295 398.202 179.17 399.281 179.17Z" fill="#E0E0E0"/>
<path d="M401.235 177.217C401.235 177.217 401.235 177.047 401.108 176.757C400.979 176.362 400.732 176.016 400.4 175.766C400.155 175.591 399.87 175.479 399.572 175.44C399.273 175.4 398.969 175.435 398.687 175.539C398.449 175.633 398.234 175.775 398.056 175.958C397.878 176.141 397.74 176.36 397.653 176.6C397.566 176.84 397.531 177.096 397.551 177.351C397.57 177.605 397.644 177.853 397.767 178.077C397.889 178.301 398.058 178.496 398.262 178.65C398.466 178.803 398.7 178.912 398.95 178.968C399.199 179.024 399.457 179.026 399.707 178.974C399.957 178.923 400.193 178.818 400.4 178.668C400.735 178.421 400.983 178.074 401.108 177.677C401.142 177.522 401.184 177.368 401.235 177.217C401.235 177.217 401.299 177.394 401.235 177.713C401.15 178.175 400.898 178.591 400.527 178.881C400.25 179.098 399.923 179.243 399.576 179.302C399.229 179.361 398.872 179.333 398.538 179.221C398.126 179.073 397.769 178.802 397.517 178.444C397.265 178.086 397.129 177.659 397.129 177.221C397.129 176.783 397.265 176.355 397.517 175.997C397.769 175.639 398.126 175.368 398.538 175.221C398.872 175.108 399.229 175.08 399.576 175.139C399.923 175.199 400.25 175.343 400.527 175.56C400.898 175.85 401.15 176.266 401.235 176.729C401.299 177.047 401.257 177.224 401.235 177.217Z" fill="#263238"/>
<path d="M400.181 176.388C400.181 176.487 399.756 176.728 399.324 177.181C398.892 177.634 398.666 178.094 398.567 178.066C398.467 178.037 398.567 177.443 399.062 176.926C399.558 176.409 400.159 176.289 400.181 176.388Z" fill="#263238"/>
<path d="M400.181 177.805C400.096 177.861 399.77 177.5 399.289 177.182C398.807 176.863 398.354 176.686 398.375 176.58C398.397 176.474 398.949 176.502 399.494 176.877C400.039 177.253 400.266 177.805 400.181 177.805Z" fill="#263238"/>
<g opacity="0.3">
<path d="M394.942 182.817C402.602 184.48 411.55 184.544 419.826 184.14C423.804 183.942 428.172 183.694 431.358 186.094C432.066 186.618 432.873 187.305 433.694 187.001C434.884 186.555 434.926 184.374 436.2 184.332C436.838 184.332 437.326 184.919 437.531 185.521C437.662 186.143 437.856 186.751 438.112 187.333C438.437 187.885 439.209 188.254 439.719 187.864C440.526 187.248 439.591 185.924 439.896 184.955C440.2 183.985 441.644 183.871 442.621 184.247C443.598 184.622 444.547 185.337 445.588 185.181C446.316 184.973 446.997 184.624 447.591 184.155C449.453 183.015 451.754 182.951 453.963 182.909C456.263 182.873 458.635 182.654 460.936 182.611L394.942 182.817Z" fill="black"/>
</g>
<path d="M447.697 157.833C447.583 157.891 447.461 157.933 447.336 157.961C446.987 158.054 446.644 158.17 446.31 158.308C445.08 158.809 443.919 159.466 442.855 160.262C441.475 161.225 439.952 162.555 438.02 163.731C437.008 164.36 435.901 164.821 434.742 165.097C433.495 165.32 432.228 165.415 430.962 165.38C428.378 165.38 426.119 166.428 424.166 167.504C422.212 168.58 420.421 169.514 419.026 170.456C417.915 171.184 416.884 172.029 415.953 172.976C415.295 173.684 414.991 174.074 414.962 174.052C414.934 174.031 415.019 173.939 415.161 173.734C415.38 173.435 415.617 173.149 415.868 172.877C416.77 171.882 417.787 170.998 418.898 170.244C420.551 169.137 422.262 168.121 424.024 167.199C425.052 166.624 426.121 166.127 427.224 165.713C428.423 165.272 429.691 165.045 430.969 165.04C432.214 165.075 433.459 164.985 434.685 164.771C435.808 164.504 436.883 164.065 437.871 163.469C439.768 162.329 441.319 161.019 442.728 160.078C443.816 159.293 445.007 158.661 446.267 158.202C446.61 158.076 446.963 157.981 447.322 157.918C447.443 157.873 447.569 157.845 447.697 157.833Z" fill="#263238"/>
<path d="M430.912 163.44C430.218 163.412 429.529 163.305 428.859 163.122C427.223 162.757 425.621 162.26 424.066 161.635C422.511 161.015 421.009 160.267 419.578 159.398C418.963 159.068 418.391 158.667 417.872 158.202C418.501 158.49 419.113 158.813 419.705 159.172C422.617 160.762 425.706 162.005 428.908 162.874C429.589 163.016 430.258 163.205 430.912 163.44Z" fill="#263238"/>
<path d="M441.56 140.333C442.105 140.043 458.012 134.924 458.012 134.924L442.806 143.42L441.56 140.333Z" fill="#694ED6"/>
<path d="M439.903 138.613C439.196 138.613 438.496 138.752 437.844 139.022C437.191 139.292 436.598 139.689 436.098 140.188C435.598 140.688 435.202 141.281 434.932 141.934C434.661 142.587 434.522 143.286 434.522 143.993H445.283C445.283 143.286 445.144 142.587 444.873 141.934C444.603 141.281 444.207 140.688 443.707 140.188C443.207 139.689 442.614 139.292 441.961 139.022C441.309 138.752 440.609 138.613 439.903 138.613Z" fill="#263238"/>
<path d="M385.81 189.195C385.704 189.195 385.626 171.907 385.626 150.584C385.626 129.261 385.704 111.967 385.81 111.967C385.916 111.967 385.994 129.254 385.994 150.584C385.994 171.915 385.909 189.195 385.81 189.195Z" fill="#263238"/>
<path d="M469.947 189.195C469.841 189.195 469.763 171.907 469.763 150.584C469.763 129.261 469.841 111.967 469.947 111.967C470.053 111.967 470.131 129.254 470.131 150.584C470.131 171.915 470.046 189.195 469.947 189.195Z" fill="#263238"/>
<path d="M382.277 122.444C382.734 122.444 383.105 122.073 383.105 121.615C383.105 121.158 382.734 120.787 382.277 120.787C381.819 120.787 381.448 121.158 381.448 121.615C381.448 122.073 381.819 122.444 382.277 122.444Z" fill="#263238"/>
<path d="M382.277 137.933C382.734 137.933 383.105 137.563 383.105 137.105C383.105 136.648 382.734 136.277 382.277 136.277C381.819 136.277 381.448 136.648 381.448 137.105C381.448 137.563 381.819 137.933 382.277 137.933Z" fill="#263238"/>
<path d="M382.277 153.43C382.734 153.43 383.105 153.059 383.105 152.601C383.105 152.144 382.734 151.773 382.277 151.773C381.819 151.773 381.448 152.144 381.448 152.601C381.448 153.059 381.819 153.43 382.277 153.43Z" fill="#263238"/>
<path d="M382.277 168.926C382.734 168.926 383.105 168.555 383.105 168.098C383.105 167.64 382.734 167.27 382.277 167.27C381.819 167.27 381.448 167.64 381.448 168.098C381.448 168.555 381.819 168.926 382.277 168.926Z" fill="#263238"/>
<path d="M382.277 184.416C382.734 184.416 383.105 184.045 383.105 183.588C383.105 183.13 382.734 182.76 382.277 182.76C381.819 182.76 381.448 183.13 381.448 183.588C381.448 184.045 381.819 184.416 382.277 184.416Z" fill="#263238"/>
<path d="M474.273 122.444C474.731 122.444 475.102 122.073 475.102 121.615C475.102 121.158 474.731 120.787 474.273 120.787C473.816 120.787 473.445 121.158 473.445 121.615C473.445 122.073 473.816 122.444 474.273 122.444Z" fill="#263238"/>
<path d="M474.273 137.933C474.731 137.933 475.102 137.563 475.102 137.105C475.102 136.648 474.731 136.277 474.273 136.277C473.816 136.277 473.445 136.648 473.445 137.105C473.445 137.563 473.816 137.933 474.273 137.933Z" fill="#263238"/>
<path d="M474.273 153.43C474.731 153.43 475.102 153.059 475.102 152.601C475.102 152.144 474.731 151.773 474.273 151.773C473.816 151.773 473.445 152.144 473.445 152.601C473.445 153.059 473.816 153.43 474.273 153.43Z" fill="#263238"/>
<path d="M474.273 168.926C474.731 168.926 475.102 168.555 475.102 168.098C475.102 167.64 474.731 167.27 474.273 167.27C473.816 167.27 473.445 167.64 473.445 168.098C473.445 168.555 473.816 168.926 474.273 168.926Z" fill="#263238"/>
<path d="M474.273 184.416C474.731 184.416 475.102 184.045 475.102 183.588C475.102 183.13 474.731 182.76 474.273 182.76C473.816 182.76 473.445 183.13 473.445 183.588C473.445 184.045 473.816 184.416 474.273 184.416Z" fill="#263238"/>
<path d="M442.48 102.954H406.304V111.477H442.48V102.954Z" fill="#455A64"/>
<path d="M408.924 111.484C408.738 110.119 408.676 108.74 408.74 107.364C408.676 105.99 408.738 104.614 408.924 103.251C409.106 104.614 409.167 105.99 409.108 107.364C409.167 108.74 409.105 110.119 408.924 111.484Z" fill="#263238"/>
<path d="M412.626 111.484C412.444 110.119 412.383 108.74 412.442 107.364C412.382 105.99 412.444 104.614 412.626 103.251C412.812 104.614 412.874 105.99 412.81 107.364C412.874 108.74 412.812 110.119 412.626 111.484Z" fill="#263238"/>
<path d="M416.343 111.484C416.161 110.119 416.099 108.74 416.159 107.364C416.099 105.99 416.161 104.614 416.343 103.251C416.525 104.614 416.586 105.99 416.527 107.364C416.586 108.74 416.524 110.119 416.343 111.484Z" fill="#263238"/>
<path d="M420.06 111.484C419.873 110.119 419.812 108.74 419.875 107.364C419.812 105.99 419.873 104.614 420.06 103.251C420.241 104.614 420.303 105.99 420.244 107.364C420.303 108.74 420.241 110.119 420.06 111.484Z" fill="#263238"/>
<path d="M423.79 111.484C423.608 110.119 423.547 108.74 423.606 107.364C423.547 105.99 423.608 104.614 423.79 103.251C423.976 104.614 424.038 105.99 423.974 107.364C424.038 108.74 423.976 110.119 423.79 111.484Z" fill="#263238"/>
<path d="M427.486 111.484C427.304 110.119 427.242 108.74 427.302 107.364C427.242 105.99 427.304 104.614 427.486 103.251C427.668 104.614 427.729 105.99 427.67 107.364C427.729 108.74 427.668 110.119 427.486 111.484Z" fill="#263238"/>
<path d="M431.202 111.484C431.016 110.119 430.955 108.74 431.018 107.364C430.955 105.99 431.016 104.614 431.202 103.251C431.384 104.614 431.446 105.99 431.386 107.364C431.446 108.74 431.384 110.119 431.202 111.484Z" fill="#263238"/>
<path d="M434.912 111.484C434.73 110.119 434.669 108.74 434.728 107.364C434.668 105.99 434.73 104.614 434.912 103.251C435.098 104.614 435.16 105.99 435.096 107.364C435.16 108.74 435.098 110.119 434.912 111.484Z" fill="#263238"/>
<path d="M438.657 111.484C438.475 110.119 438.413 108.74 438.473 107.364C438.413 105.99 438.475 104.614 438.657 103.251C438.839 104.614 438.9 105.99 438.841 107.364C438.9 108.74 438.839 110.119 438.657 111.484Z" fill="#263238"/>
<g opacity="0.3">
<path d="M485.154 129.963C486.031 134.395 486.846 138.572 487.716 143.004C486.863 143.062 486.007 143.062 485.154 143.004C485.154 138.756 485.154 134.218 485.154 129.97" fill="black"/>
</g>
<path d="M376.465 119.789C376.564 119.789 376.465 133.013 376.217 149.317C375.969 165.62 375.714 178.838 375.608 178.838C375.502 178.838 375.608 165.62 375.849 149.31C376.089 132.999 376.358 119.789 376.465 119.789Z" fill="white"/>
<path d="M391.855 180.636C391.749 180.636 391.671 174.053 391.671 165.933C391.671 157.813 391.749 151.229 391.855 151.229C391.961 151.229 392.039 157.813 392.039 165.933C392.039 174.053 391.933 180.636 391.855 180.636Z" fill="white"/>
<path d="M461.381 113.863C461.381 113.969 445.148 114.047 425.135 114.047C405.122 114.047 388.889 113.969 388.889 113.863C388.889 113.757 405.115 113.679 425.135 113.679C445.156 113.679 461.381 113.764 461.381 113.863Z" fill="white"/>
</svg>
