<svg width="808" height="320" viewBox="0 0 808 320" fill="none" xmlns="http://www.w3.org/2000/svg">
<path fill-rule="evenodd" clip-rule="evenodd" d="M410.232 167.624C442.023 166.029 474.902 164.578 504.42 168.586C538.393 173.198 579.853 179.863 584.677 191.306C589.613 203.013 536.446 209.326 526.395 220.712C515.444 233.115 554.041 249.064 525.479 258.356C498.248 267.215 448.681 261.153 410.232 258.503C378.733 256.331 355.249 249.475 326.92 244.668C292.748 238.869 242.103 238.676 227.326 227.465C212.654 216.334 238.278 203.73 259.782 193.734C277.468 185.513 308.031 181.865 335.787 177.048C359.773 172.885 383.123 168.985 410.232 167.624Z" fill="#694ED6" fill-opacity="0.08"/>
<path d="M405.757 206.912L363.789 213.277C361.365 213.644 358.895 213.034 356.92 211.581C354.946 210.127 353.629 207.949 353.26 205.526L337.258 100.316C337.075 99.1146 337.131 97.8895 337.422 96.7102C337.713 95.5308 338.234 94.4204 338.954 93.4422C339.675 92.4641 340.58 91.6375 341.62 91.0095C342.66 90.3816 343.813 89.9646 345.014 89.7825L386.982 83.4145C389.406 83.0469 391.877 83.6569 393.851 85.1104C395.826 86.5639 397.142 88.7419 397.511 91.1657L413.514 196.379C413.696 197.579 413.64 198.805 413.349 199.984C413.058 201.163 412.538 202.274 411.818 203.252C411.097 204.23 410.191 205.057 409.151 205.685C408.112 206.313 406.958 206.73 405.757 206.912Z" fill="#263238"/>
<path d="M387.5 87.1438L379.37 88.382C379.105 88.428 378.852 88.5256 378.626 88.6694C378.399 88.8132 378.203 89.0002 378.048 89.2199C377.894 89.4395 377.785 89.6875 377.726 89.9495C377.668 90.2115 377.662 90.4825 377.708 90.7469L377.931 92.2081C378.024 92.742 377.901 93.291 377.589 93.7344C377.278 94.1778 376.803 94.4794 376.269 94.5729L360.411 96.9879C360.144 97.0241 359.872 97.0071 359.612 96.9379C359.351 96.8688 359.107 96.7488 358.893 96.5849C358.678 96.421 358.499 96.2165 358.364 95.983C358.229 95.7494 358.142 95.4916 358.107 95.2242L357.882 93.7516C357.848 93.4852 357.761 93.2282 357.628 92.9953C357.494 92.7623 357.316 92.5581 357.103 92.3941C356.89 92.2301 356.647 92.1096 356.388 92.0395C356.129 91.9695 355.858 91.9512 355.592 91.9857L345.622 93.504C343.926 93.7615 342.401 94.681 341.382 96.0609C340.363 97.4408 339.933 99.1684 340.186 100.865L355.805 203.559C356.064 205.256 356.986 206.782 358.369 207.8C359.752 208.817 361.482 209.244 363.18 208.987L405.065 202.634C405.906 202.507 406.714 202.215 407.442 201.775C408.171 201.335 408.805 200.756 409.309 200.071C409.814 199.386 410.178 198.608 410.381 197.782C410.585 196.956 410.624 196.097 410.495 195.256L394.877 92.5653C394.617 90.8686 393.694 89.3444 392.31 88.3278C390.927 87.3112 389.197 86.8854 387.5 87.1438Z" fill="white"/>
<path d="M379.055 198.571C379.081 198.73 379.059 198.893 378.993 199.039C378.926 199.186 378.817 199.309 378.681 199.394C378.544 199.479 378.385 199.521 378.224 199.515C378.063 199.51 377.908 199.457 377.777 199.363C377.646 199.269 377.546 199.138 377.49 198.987C377.434 198.836 377.423 198.672 377.46 198.516C377.497 198.359 377.579 198.217 377.697 198.107C377.815 197.997 377.962 197.925 378.121 197.899C378.334 197.865 378.552 197.916 378.727 198.042C378.902 198.168 379.02 198.358 379.055 198.571Z" fill="#263238"/>
<path d="M383.553 197.848C383.579 198.007 383.557 198.17 383.49 198.317C383.423 198.463 383.315 198.587 383.178 198.671C383.041 198.756 382.881 198.798 382.72 198.792C382.56 198.787 382.404 198.733 382.273 198.639C382.143 198.545 382.043 198.414 381.987 198.263C381.931 198.112 381.921 197.947 381.958 197.791C381.995 197.634 382.078 197.492 382.196 197.382C382.314 197.273 382.462 197.201 382.621 197.175C382.834 197.142 383.052 197.193 383.226 197.319C383.401 197.445 383.518 197.636 383.553 197.848Z" fill="#263238"/>
<path d="M388.054 197.128C388.08 197.287 388.058 197.45 387.991 197.597C387.924 197.743 387.815 197.867 387.678 197.951C387.541 198.036 387.382 198.078 387.221 198.072C387.06 198.066 386.905 198.013 386.774 197.919C386.643 197.824 386.544 197.693 386.488 197.542C386.432 197.391 386.422 197.227 386.459 197.071C386.496 196.914 386.579 196.772 386.697 196.662C386.815 196.553 386.963 196.481 387.122 196.455C387.335 196.421 387.552 196.473 387.727 196.599C387.902 196.725 388.019 196.915 388.054 197.128Z" fill="#263238"/>
<path d="M389.33 97.4766C389.333 97.4993 388.277 97.6892 386.974 97.8993C385.671 98.1094 384.612 98.2591 384.608 98.2335C384.604 98.2079 385.665 98.0115 386.961 97.8141C388.257 97.6166 389.324 97.4543 389.33 97.4766Z" fill="#263238"/>
<path d="M389.522 98.6821C389.526 98.7077 388.473 98.8971 387.17 99.1072C385.867 99.3173 384.805 99.4675 384.801 99.4419C384.797 99.4163 385.85 99.2268 387.156 99.0163C388.462 98.8057 389.518 98.6565 389.522 98.6821Z" fill="#263238"/>
<path d="M389.732 99.8868C389.736 99.9124 388.68 100.102 387.377 100.312C386.073 100.522 385.014 100.672 385.01 100.647C385.006 100.621 386.06 100.434 387.363 100.224C388.666 100.014 389.711 99.8667 389.732 99.8868Z" fill="#263238"/>
<path d="M346.915 107.821L347.012 107.807L347.296 107.763L348.305 107.586L348.283 107.616C348.249 107.394 348.212 107.15 348.172 106.885C348.143 106.746 348.122 106.606 348.108 106.465C348.11 106.382 348.14 106.303 348.191 106.238C348.243 106.174 348.314 106.128 348.394 106.107C348.556 106.082 348.701 106.06 348.877 106.033C348.971 106.033 349.061 106.067 349.132 106.128C349.203 106.19 349.249 106.274 349.262 106.367C349.314 106.708 349.369 107.067 349.425 107.436L349.376 107.4L350.65 107.206L350.613 107.255C350.535 106.744 350.454 106.212 350.372 105.669C350.351 105.535 350.328 105.385 350.31 105.265C350.299 105.207 350.273 105.153 350.234 105.108C350.187 105.064 350.136 105.024 350.082 104.989C349.866 104.833 349.653 104.676 349.43 104.527L348.812 104.08C348.713 104.005 348.612 103.933 348.514 103.86C348.416 103.788 348.328 103.708 348.217 103.705C348.166 103.701 348.116 103.707 348.068 103.725C348.02 103.742 347.977 103.769 347.941 103.805C347.874 103.882 347.806 103.986 347.741 104.074L347.353 104.604C347.112 104.932 346.854 105.262 346.675 105.557C346.635 105.717 346.638 105.886 346.685 106.044C346.71 106.203 346.732 106.351 346.754 106.493C346.797 106.778 346.832 107.011 346.864 107.215C346.895 107.42 346.916 107.557 346.934 107.679C346.953 107.801 346.959 107.844 346.959 107.844C346.959 107.844 346.952 107.793 346.936 107.69C346.92 107.588 346.893 107.406 346.867 107.235C346.841 107.065 346.798 106.786 346.742 106.51C346.72 106.365 346.698 106.225 346.672 106.052C346.659 105.97 346.647 105.887 346.634 105.802C346.619 105.709 346.63 105.614 346.665 105.527C346.857 105.206 347.099 104.905 347.342 104.551L347.724 104.019C347.794 103.926 347.85 103.834 347.931 103.737C347.977 103.69 348.033 103.655 348.094 103.633C348.156 103.611 348.222 103.603 348.287 103.61C348.412 103.634 348.528 103.693 348.621 103.78L348.922 103.996L349.542 104.443L350.194 104.905C350.254 104.943 350.309 104.987 350.36 105.037C350.409 105.094 350.443 105.163 350.457 105.237C350.478 105.374 350.501 105.521 350.519 105.644C350.602 106.187 350.683 106.718 350.761 107.23L350.767 107.273L350.722 107.279L349.448 107.473L349.408 107.48L349.402 107.437C349.346 107.067 349.291 106.712 349.24 106.371C349.229 106.295 349.192 106.226 349.136 106.176C349.079 106.125 349.006 106.097 348.93 106.095C348.782 106.118 348.609 106.144 348.467 106.166C348.399 106.181 348.339 106.218 348.295 106.271C348.25 106.324 348.224 106.39 348.22 106.459C348.24 106.59 348.264 106.743 348.282 106.866C348.323 107.13 348.36 107.374 348.394 107.599L348.398 107.625L348.372 107.629L347.346 107.785L347.019 107.835C346.984 107.834 346.949 107.83 346.915 107.821Z" fill="#263238"/>
<path d="M361.38 130.565C361.53 131.551 360.885 132.278 359.702 132.458L358.812 132.593L358.997 133.81L357.98 133.965L357.306 129.544L359.22 129.253C360.397 129.074 361.229 129.575 361.38 130.565ZM360.342 130.723C360.268 130.237 359.909 130 359.284 130.096L358.451 130.222L358.685 131.758L359.518 131.631C360.143 131.535 360.415 131.203 360.342 130.723Z" fill="#263238"/>
<path d="M365.144 130.89L365.439 132.829L364.518 132.969L364.454 132.546C364.365 132.728 364.228 132.882 364.059 132.994C363.89 133.105 363.694 133.169 363.491 133.178C362.695 133.299 362.153 132.931 362.064 132.342C361.974 131.754 362.332 131.26 363.367 131.103L364.152 130.983C364.087 130.56 363.797 130.354 363.265 130.435C362.913 130.485 362.587 130.648 362.336 130.899L361.875 130.265C362.27 129.918 362.759 129.697 363.28 129.63C364.315 129.478 364.987 129.861 365.144 130.89ZM364.292 131.907L364.24 131.56L363.563 131.663C363.103 131.733 362.983 131.923 363.018 132.151C363.052 132.378 363.29 132.543 363.637 132.49C363.794 132.476 363.943 132.412 364.061 132.307C364.18 132.202 364.261 132.062 364.292 131.907Z" fill="#263238"/>
<path d="M365.954 132.428L366.176 131.67C366.565 131.83 366.99 131.881 367.406 131.82C367.861 131.751 368.013 131.605 367.984 131.415C367.898 130.846 365.932 131.727 365.727 130.383C365.629 129.737 366.128 129.196 367.132 129.043C367.584 128.965 368.049 128.999 368.485 129.142L368.264 129.891C367.939 129.77 367.588 129.734 367.245 129.788C366.804 129.855 366.635 130.023 366.662 130.202C366.749 130.771 368.718 129.907 368.922 131.246C369.018 131.877 368.498 132.416 367.483 132.57C366.97 132.659 366.442 132.61 365.954 132.428Z" fill="#263238"/>
<path d="M369.303 131.918L369.522 131.16C369.912 131.319 370.338 131.371 370.755 131.31C371.21 131.24 371.362 131.095 371.333 130.904C371.247 130.336 369.281 131.217 369.076 129.872C368.978 129.227 369.477 128.686 370.481 128.533C370.933 128.455 371.398 128.489 371.834 128.632L371.611 129.382C371.287 129.259 370.936 129.223 370.594 129.278C370.151 129.345 369.984 129.513 370.011 129.692C370.098 130.261 372.067 129.397 372.27 130.736C372.367 131.367 371.847 131.905 370.832 132.06C370.319 132.149 369.791 132.1 369.303 131.918Z" fill="#263238"/>
<path d="M377.914 127.453L377.203 131.052L376.256 131.196L375.17 129.203L374.701 131.433L373.754 131.577L372.009 128.352L372.939 128.21L374.091 130.388L374.574 127.961L375.407 127.834L376.567 130.011L377.044 127.585L377.914 127.453Z" fill="#263238"/>
<path d="M378.289 129.135C378.134 128.111 378.81 127.264 379.891 127.099C380.971 126.935 381.866 127.543 382.022 128.566C382.178 129.59 381.504 130.434 380.424 130.599C379.343 130.763 378.445 130.158 378.289 129.135ZM381.024 128.718C380.985 128.552 380.898 128.401 380.774 128.283C380.65 128.165 380.494 128.086 380.326 128.056C380.158 128.025 379.984 128.044 379.827 128.11C379.669 128.177 379.534 128.288 379.439 128.429C379.343 128.571 379.291 128.738 379.288 128.909C379.286 129.079 379.333 129.247 379.425 129.392C379.516 129.536 379.648 129.651 379.803 129.722C379.959 129.793 380.132 129.817 380.301 129.791C380.423 129.777 380.541 129.736 380.646 129.672C380.751 129.608 380.842 129.522 380.911 129.421C380.98 129.319 381.027 129.203 381.048 129.082C381.069 128.961 381.064 128.836 381.033 128.717L381.024 128.718Z" fill="#263238"/>
<path d="M384.522 126.4L384.661 127.309C384.579 127.322 384.516 127.331 384.439 127.343C383.896 127.426 383.579 127.765 383.679 128.427L383.924 130.031L382.94 130.181L382.42 126.769L383.361 126.626L383.43 127.075C383.544 126.882 383.702 126.72 383.893 126.602C384.083 126.485 384.299 126.415 384.522 126.4Z" fill="#263238"/>
<path d="M388.35 124.546L389.064 129.231L388.114 129.376L388.055 128.986C387.946 129.156 387.8 129.298 387.628 129.402C387.456 129.506 387.262 129.57 387.062 129.588C386.607 129.639 386.15 129.512 385.787 129.233C385.425 128.955 385.183 128.547 385.115 128.095C385.046 127.642 385.154 127.181 385.418 126.807C385.682 126.433 386.08 126.176 386.529 126.089C386.716 126.051 386.91 126.054 387.096 126.099C387.282 126.143 387.456 126.228 387.606 126.347L387.355 124.698L388.35 124.546ZM387.839 127.681C387.799 127.514 387.712 127.363 387.587 127.245C387.462 127.127 387.306 127.048 387.137 127.018C386.968 126.988 386.794 127.008 386.636 127.076C386.478 127.143 386.344 127.255 386.249 127.398C386.154 127.541 386.103 127.709 386.103 127.881C386.102 128.052 386.151 128.22 386.245 128.364C386.338 128.508 386.472 128.621 386.629 128.69C386.786 128.759 386.96 128.781 387.129 128.752C387.249 128.734 387.364 128.692 387.466 128.627C387.569 128.562 387.656 128.476 387.723 128.375C387.79 128.274 387.835 128.16 387.855 128.04C387.875 127.921 387.869 127.798 387.839 127.681Z" fill="#263238"/>
<path d="M397.201 131.742C397.207 131.782 386.694 133.418 373.704 135.396C360.715 137.374 350.186 138.943 350.18 138.903C350.174 138.863 360.687 137.227 373.682 135.248C386.677 133.269 397.194 131.694 397.201 131.742Z" fill="#E0E0E0"/>
<path d="M402.697 175.185C402.704 175.228 392.19 176.861 379.198 178.839C366.206 180.818 355.682 182.389 355.676 182.346C355.669 182.303 366.183 180.67 379.175 178.692C392.167 176.713 402.691 175.145 402.697 175.185Z" fill="#E0E0E0"/>
<path d="M392.557 180.057C392.563 180.097 386.721 181.021 379.508 182.12C372.296 183.218 366.443 184.074 366.437 184.035C366.431 183.995 372.27 183.071 379.486 181.972C386.701 180.873 392.551 180.014 392.557 180.057Z" fill="#E0E0E0"/>
<path d="M356.333 150.851L357.296 151.196L356.998 151.928L356.018 151.534L356.186 152.52L355.419 152.637L355.267 151.639L354.448 152.317L353.962 151.707L354.77 151.09L353.802 150.734L354.093 150.006L355.076 150.406L354.924 149.411L355.692 149.294L355.826 150.292L356.643 149.618L357.146 150.225L356.333 150.851Z" fill="#694ED6"/>
<path d="M366.545 149.297L367.508 149.642L367.209 150.374L366.236 149.979L366.388 150.979L365.618 151.097L365.466 150.099L364.65 150.776L364.174 150.153L365.004 149.532L364.04 149.176L364.33 148.448L365.31 148.848L365.159 147.853L365.895 147.741L366.03 148.739L366.846 148.065L367.349 148.672L366.545 149.297Z" fill="#694ED6"/>
<path d="M376.484 147.782L377.447 148.127L377.148 148.859L376.169 148.464L376.338 149.462L375.571 149.579L375.419 148.581L374.6 149.258L374.113 148.637L374.932 148.021L373.964 147.665L374.255 146.937L375.238 147.337L375.087 146.342L375.846 146.227L375.98 147.224L376.797 146.55L377.299 147.157L376.484 147.782Z" fill="#694ED6"/>
<path d="M386.113 146.316L387.076 146.661L386.786 147.391L385.806 146.996L385.974 147.983L385.206 148.1L385.054 147.102L384.238 147.779L383.741 147.171L384.561 146.555L383.593 146.199L383.884 145.471L384.864 145.872L384.713 144.877L385.48 144.76L385.615 145.757L386.431 145.083L386.934 145.69L386.113 146.316Z" fill="#694ED6"/>
<path d="M395.665 144.861L396.634 145.207L396.335 145.939L395.356 145.545L395.521 146.532L394.753 146.649L394.601 145.651L393.785 146.328L393.296 145.716L394.113 145.1L393.148 144.743L393.439 144.016L394.419 144.416L394.268 143.421L395.035 143.304L395.172 144.301L395.989 143.627L396.492 144.234L395.665 144.861Z" fill="#694ED6"/>
<path d="M358.86 156.803L354.553 157.459C354.02 157.539 353.477 157.405 353.043 157.085C352.609 156.766 352.319 156.288 352.237 155.755L351.072 148.107C350.992 147.575 351.126 147.032 351.446 146.598C351.765 146.165 352.244 145.875 352.777 145.794L357.084 145.138C357.616 145.057 358.159 145.191 358.593 145.51C359.027 145.829 359.317 146.307 359.399 146.839L360.563 154.484C360.645 155.017 360.511 155.561 360.191 155.996C359.872 156.43 359.393 156.721 358.86 156.803ZM352.798 145.936C352.303 146.012 351.859 146.28 351.562 146.683C351.265 147.086 351.14 147.591 351.214 148.086L352.379 155.73C352.455 156.225 352.724 156.67 353.127 156.967C353.531 157.264 354.036 157.388 354.531 157.314L358.838 156.658C359.333 156.582 359.778 156.313 360.075 155.91C360.372 155.506 360.497 155.001 360.421 154.506L359.257 146.858C359.18 146.363 358.911 145.919 358.508 145.623C358.104 145.326 357.6 145.202 357.105 145.278L352.798 145.936Z" fill="#263238"/>
<path d="M368.864 155.279L364.557 155.935C364.292 155.976 364.022 155.965 363.761 155.902C363.501 155.838 363.255 155.724 363.039 155.566C362.823 155.407 362.64 155.208 362.501 154.978C362.362 154.749 362.27 154.495 362.229 154.23L361.065 146.582C360.984 146.05 361.119 145.507 361.438 145.073C361.758 144.639 362.236 144.35 362.769 144.269L367.076 143.613C367.608 143.532 368.151 143.666 368.586 143.985C369.02 144.304 369.31 144.782 369.391 145.314L370.556 152.962C370.637 153.493 370.505 154.035 370.188 154.469C369.871 154.903 369.395 155.194 368.864 155.279ZM362.802 144.412C362.307 144.488 361.863 144.756 361.566 145.159C361.269 145.562 361.144 146.067 361.219 146.562L362.383 154.206C362.459 154.701 362.728 155.146 363.132 155.443C363.535 155.74 364.04 155.864 364.535 155.79L368.842 155.134C369.337 155.058 369.782 154.789 370.079 154.386C370.376 153.982 370.501 153.477 370.425 152.981L369.261 145.334C369.185 144.839 368.915 144.395 368.512 144.099C368.108 143.802 367.604 143.678 367.109 143.754L362.802 144.412Z" fill="#263238"/>
<path d="M378.595 153.797L374.285 154.453C373.752 154.534 373.209 154.399 372.775 154.08C372.341 153.761 372.051 153.282 371.969 152.749L370.805 145.102C370.724 144.569 370.859 144.027 371.178 143.593C371.498 143.159 371.976 142.87 372.509 142.789L376.819 142.133C377.351 142.052 377.893 142.186 378.327 142.505C378.76 142.824 379.05 143.302 379.132 143.834L380.296 151.478C380.336 151.742 380.325 152.012 380.261 152.271C380.198 152.53 380.084 152.775 379.926 152.99C379.768 153.205 379.569 153.387 379.341 153.526C379.112 153.664 378.859 153.756 378.595 153.797ZM372.531 142.931C372.036 143.006 371.591 143.275 371.294 143.678C370.997 144.081 370.872 144.585 370.947 145.08L372.111 152.725C372.187 153.22 372.457 153.665 372.86 153.961C373.263 154.258 373.768 154.383 374.263 154.308L378.573 153.652C379.068 153.576 379.512 153.306 379.809 152.903C380.105 152.5 380.229 151.995 380.154 151.5L378.989 143.853C378.914 143.358 378.645 142.914 378.242 142.617C377.839 142.321 377.335 142.197 376.84 142.272L372.531 142.931Z" fill="#263238"/>
<path d="M388.435 152.297L384.125 152.954C383.592 153.034 383.049 152.9 382.614 152.581C382.18 152.261 381.891 151.783 381.809 151.25L380.644 143.603C380.564 143.07 380.698 142.527 381.018 142.093C381.337 141.66 381.816 141.37 382.348 141.289L386.658 140.633C387.19 140.553 387.733 140.687 388.166 141.006C388.6 141.325 388.889 141.802 388.971 142.334L390.135 149.979C390.176 150.243 390.164 150.512 390.1 150.771C390.037 151.031 389.923 151.275 389.765 151.49C389.607 151.706 389.408 151.888 389.18 152.026C388.952 152.165 388.698 152.257 388.435 152.297ZM382.37 141.432C381.875 141.507 381.43 141.776 381.133 142.179C380.836 142.582 380.712 143.086 380.786 143.581L381.95 151.225C382.027 151.72 382.296 152.165 382.699 152.462C383.103 152.759 383.607 152.883 384.103 152.809L388.412 152.152C388.907 152.076 389.352 151.807 389.648 151.403C389.944 151 390.068 150.495 389.993 150.001L388.828 142.353C388.753 141.859 388.484 141.414 388.081 141.118C387.678 140.821 387.174 140.697 386.679 140.772L382.37 141.432Z" fill="#263238"/>
<path d="M397.987 150.843L393.68 151.499C393.147 151.58 392.604 151.445 392.169 151.126C391.735 150.807 391.446 150.328 391.364 149.795L390.199 142.148C390.119 141.615 390.253 141.072 390.573 140.639C390.892 140.205 391.371 139.916 391.903 139.835L396.21 139.179C396.743 139.098 397.286 139.231 397.72 139.55C398.154 139.869 398.444 140.347 398.526 140.88L399.69 148.524C399.771 149.058 399.637 149.601 399.318 150.036C398.999 150.471 398.52 150.761 397.987 150.843ZM391.925 139.977C391.43 140.052 390.985 140.321 390.688 140.724C390.391 141.127 390.267 141.631 390.341 142.126L391.505 149.771C391.581 150.266 391.85 150.711 392.254 151.008C392.657 151.305 393.162 151.43 393.658 151.354L397.965 150.698C398.46 150.622 398.904 150.353 399.201 149.949C399.498 149.546 399.623 149.041 399.548 148.546L398.383 140.899C398.307 140.404 398.038 139.96 397.634 139.663C397.231 139.367 396.726 139.243 396.231 139.318L391.925 139.977Z" fill="#263238"/>
<path d="M399.077 160.124L357.227 166.498C355.454 166.767 354.236 168.423 354.506 170.196L354.816 172.231C355.086 174.004 356.742 175.222 358.515 174.952L400.365 168.579C402.137 168.309 403.356 166.653 403.086 164.88L402.776 162.845C402.506 161.072 400.85 159.854 399.077 160.124Z" fill="#694ED6"/>
<path d="M372.443 166.767L373.742 166.569C374.678 166.427 375.407 166.898 375.537 167.751C375.667 168.604 375.111 169.27 374.175 169.412L372.876 169.61L372.443 166.767ZM374.061 168.892C374.296 168.856 374.508 168.728 374.649 168.536C374.79 168.345 374.849 168.105 374.813 167.87C374.777 167.634 374.65 167.423 374.458 167.282C374.266 167.141 374.026 167.082 373.791 167.118L373.186 167.21L373.456 168.984L374.061 168.892Z" fill="white"/>
<path d="M375.879 168.047C375.827 167.807 375.849 167.557 375.941 167.33C376.033 167.102 376.191 166.908 376.395 166.771C376.598 166.635 376.839 166.563 377.084 166.564C377.329 166.566 377.569 166.641 377.771 166.78C377.973 166.919 378.129 167.116 378.218 167.344C378.307 167.573 378.325 167.823 378.27 168.062C378.216 168.301 378.09 168.519 377.911 168.686C377.731 168.853 377.505 168.962 377.263 169C377.109 169.034 376.95 169.035 376.795 169.005C376.641 168.975 376.494 168.913 376.364 168.824C376.234 168.735 376.124 168.619 376.041 168.486C375.957 168.352 375.902 168.203 375.879 168.047ZM377.65 167.777C377.627 167.627 377.545 167.491 377.422 167.401C377.299 167.31 377.145 167.272 376.995 167.295C376.844 167.318 376.708 167.4 376.618 167.523C376.528 167.646 376.49 167.8 376.513 167.951C376.536 168.101 376.618 168.237 376.74 168.327C376.863 168.418 377.017 168.456 377.168 168.433C377.319 168.41 377.454 168.328 377.545 168.205C377.635 168.082 377.673 167.928 377.65 167.777Z" fill="white"/>
<path d="M380.943 167.113L381.135 168.37L380.498 168.467L380.321 167.307C380.267 166.951 380.077 166.814 379.796 166.857C379.515 166.9 379.299 167.125 379.36 167.529L379.526 168.615L378.889 168.712L378.554 166.514L379.162 166.421L379.202 166.68C379.282 166.57 379.384 166.478 379.502 166.41C379.62 166.342 379.751 166.299 379.886 166.285C380.403 166.201 380.841 166.442 380.943 167.113Z" fill="white"/>
<path d="M383.738 167.033L382.075 167.287C382.131 167.418 382.231 167.525 382.359 167.588C382.486 167.651 382.632 167.667 382.77 167.632C382.873 167.621 382.972 167.588 383.061 167.537C383.15 167.486 383.228 167.417 383.29 167.334L383.687 167.652C383.59 167.792 383.463 167.908 383.315 167.993C383.168 168.079 383.004 168.13 382.834 168.145C382.072 168.261 381.505 167.859 381.404 167.2C381.378 167.047 381.384 166.89 381.421 166.74C381.457 166.589 381.525 166.447 381.619 166.324C381.713 166.201 381.831 166.098 381.966 166.022C382.102 165.946 382.251 165.899 382.405 165.884C382.556 165.853 382.71 165.855 382.86 165.888C383.01 165.921 383.151 165.985 383.274 166.076C383.397 166.166 383.5 166.282 383.577 166.415C383.653 166.548 383.7 166.695 383.716 166.848C383.731 166.909 383.733 166.979 383.738 167.033ZM382.011 166.924L383.094 166.759C383.054 166.634 382.97 166.527 382.858 166.457C382.746 166.388 382.613 166.361 382.483 166.381C382.352 166.401 382.233 166.466 382.147 166.566C382.061 166.665 382.012 166.792 382.011 166.924Z" fill="white"/>
<path d="M371.529 123.017C376.247 122.298 379.489 117.891 378.77 113.173C378.052 108.455 373.645 105.212 368.927 105.931C364.208 106.649 360.966 111.057 361.685 115.775C362.403 120.493 366.81 123.735 371.529 123.017Z" fill="#694ED6"/>
<path d="M368.481 113.15L368.339 113.172L368.218 112.376C368.151 111.934 368.262 111.483 368.526 111.123C368.791 110.763 369.188 110.523 369.63 110.456C370.072 110.389 370.522 110.5 370.882 110.765C371.242 111.029 371.482 111.426 371.55 111.868L371.648 112.516L371.506 112.538L371.408 111.89C371.346 111.486 371.126 111.123 370.797 110.88C370.468 110.638 370.056 110.537 369.652 110.598C369.248 110.66 368.884 110.879 368.642 111.209C368.4 111.538 368.298 111.95 368.36 112.354L368.481 113.15Z" fill="white"/>
<path d="M372.957 118.17L368.721 118.815C368.535 118.842 368.346 118.795 368.194 118.684C368.043 118.572 367.941 118.405 367.912 118.22L367.267 113.981C367.239 113.795 367.286 113.605 367.398 113.454C367.509 113.302 367.676 113.201 367.862 113.172L372.098 112.527C372.284 112.499 372.473 112.546 372.625 112.658C372.777 112.769 372.878 112.936 372.907 113.122L373.553 117.361C373.58 117.547 373.533 117.736 373.422 117.888C373.31 118.039 373.143 118.141 372.957 118.17ZM367.884 113.314C367.733 113.337 367.597 113.419 367.507 113.542C367.417 113.664 367.379 113.818 367.402 113.969L368.047 118.208C368.07 118.358 368.152 118.494 368.275 118.584C368.398 118.675 368.552 118.713 368.702 118.69L372.938 118.045C373.089 118.022 373.225 117.94 373.315 117.817C373.405 117.694 373.443 117.54 373.42 117.389L372.773 113.142C372.75 112.991 372.668 112.856 372.546 112.765C372.423 112.675 372.269 112.637 372.118 112.66L367.884 113.314Z" fill="white"/>
<path d="M370.451 115.807C370.319 115.827 370.184 115.807 370.064 115.751C369.943 115.694 369.842 115.603 369.773 115.489C369.705 115.376 369.671 115.244 369.677 115.111C369.683 114.978 369.728 114.85 369.807 114.743C369.886 114.635 369.995 114.554 370.12 114.509C370.245 114.463 370.381 114.456 370.51 114.488C370.639 114.52 370.756 114.589 370.846 114.687C370.936 114.786 370.994 114.908 371.014 115.04C371.041 115.216 370.997 115.396 370.891 115.54C370.785 115.684 370.627 115.78 370.451 115.807ZM370.27 114.621C370.166 114.637 370.07 114.683 369.993 114.754C369.915 114.824 369.861 114.917 369.836 115.018C369.811 115.12 369.817 115.227 369.853 115.325C369.888 115.424 369.953 115.509 370.037 115.571C370.122 115.633 370.223 115.668 370.328 115.673C370.432 115.677 370.536 115.65 370.625 115.596C370.715 115.541 370.786 115.461 370.83 115.366C370.874 115.271 370.889 115.165 370.872 115.062C370.863 114.992 370.84 114.925 370.804 114.865C370.768 114.804 370.721 114.751 370.665 114.709C370.609 114.667 370.545 114.637 370.477 114.62C370.409 114.602 370.338 114.599 370.268 114.61L370.27 114.621Z" fill="white"/>
<path d="M370.487 115.699L370.344 115.721L370.527 116.92L370.669 116.899L370.487 115.699Z" fill="white"/>
<path d="M434.139 152.831C432.715 170.035 421.589 207.515 413.825 213.91C408.816 218.024 387.345 222.591 376.093 222.608C371.477 222.608 368.051 190.988 375.002 190.535C386.946 189.76 395.398 188.669 398.58 187.026C401.057 185.744 407.277 173.816 424.127 151.085C430.347 142.622 434.925 143.167 434.139 152.831Z" fill="#D3766A"/>
<path d="M382.172 221.943C381.588 222.09 373.311 224.158 368.416 224.458C364.76 224.682 354.229 225.047 353.58 221.053C353.138 218.325 359.309 217.381 363.653 216.617C365.944 216.213 369.016 214.604 368.705 213.114C368.16 210.522 362.229 211.673 358.224 212.939C350.47 215.384 339.726 220.507 336.321 216.088C335.034 214.418 337.413 212.437 340.626 210.691C335.645 212.448 330.488 213.649 328.988 211.848C328.12 210.822 328.317 209.726 329.179 208.612C327.733 208.749 326.56 208.394 325.905 207.33C324.814 205.529 326.003 203.511 328.06 201.595C327.802 201.505 327.569 201.355 327.379 201.158C327.19 200.961 327.049 200.722 326.969 200.46C325.01 195.206 343.016 185.428 348.473 185.368C364.586 185.161 380.562 190.142 380.562 190.142C385.489 196.292 382.183 221.932 382.172 221.943Z" fill="#D3766A"/>
<path d="M362.834 202.806C359.066 202.561 355.289 203.119 351.752 204.443C347.3 206.129 344.053 208.547 340.119 210.838C340.102 210.852 340.09 210.872 340.086 210.894C340.082 210.916 340.086 210.938 340.097 210.957C340.109 210.976 340.126 210.991 340.147 210.998C340.168 211.005 340.191 211.005 340.212 210.997C342.083 209.905 349.717 205.96 351.67 205.109C355.179 203.523 359.002 202.756 362.851 202.866C362.878 202.877 362.878 202.812 362.834 202.806Z" fill="#263238"/>
<path d="M361.443 195.675C357.176 195.877 352.805 196.062 348.647 197.126C344.097 198.289 340.141 200.946 336.261 203.527C333.937 205.066 331.645 206.653 329.386 208.29C329.293 208.361 329.386 208.52 329.479 208.454C333.422 205.795 337.445 203.258 341.549 200.842C345.345 198.574 349.553 197.081 353.929 196.45C356.428 196.09 358.949 195.904 361.465 195.751C361.486 195.751 361.492 195.675 361.443 195.675Z" fill="#263238"/>
<path d="M358.42 189.034C354.333 188.963 350.781 188.881 346.841 190.201C341.641 191.942 336.174 195.62 334.253 196.929C332.125 198.37 330.052 199.887 328 201.431C327.918 201.496 328.028 201.644 328.115 201.578C332.768 198.225 337.632 195.176 342.678 192.449C345.063 191.116 347.64 190.159 350.317 189.612C352.999 189.199 355.712 189.016 358.425 189.066L358.42 189.034Z" fill="#263238"/>
<path d="M428.088 192.678L406.519 171.54C406.519 171.54 419.363 153.304 428.028 145.349C432.884 140.88 436.415 144.596 436.387 150.56C436.289 171.436 428.088 192.678 428.088 192.678Z" fill="#694ED6"/>
<path d="M428.088 192.678L406.519 171.54C406.519 171.54 419.363 153.304 428.028 145.349C432.884 140.88 436.415 144.596 436.387 150.56C436.289 171.436 428.088 192.678 428.088 192.678Z" fill="#694ED6"/>
<path opacity="0.1" d="M434.827 154.276C435.318 154.44 435.798 154.62 436.256 154.821C436.273 154.554 436.289 154.281 436.289 154.008C435.775 153.873 435.248 153.791 434.718 153.763C434.69 153.643 434.668 153.517 434.641 153.397C434.639 150.207 434.357 147.023 433.801 143.881C433.348 143.589 432.827 143.418 432.289 143.385C427.296 149.755 423.151 156.747 419.958 164.185C416.804 162.597 414.239 162.848 412.013 164.065C411.626 164.561 411.26 165.047 410.922 165.505C413.612 163.705 416.449 163.497 419.767 164.332L419.63 164.447C416.951 164.076 414.221 164.505 411.784 165.68C411.197 165.957 410.634 166.28 410.098 166.646L409.852 166.973C410.323 166.629 410.813 166.314 411.32 166.029C413.861 164.681 416.752 164.136 419.609 164.469C416.714 165.146 413.902 166.136 411.222 167.42C410.166 167.981 409.143 168.604 408.161 169.287L407.997 169.51C409.05 168.796 410.143 168.144 411.271 167.557C413.836 166.226 416.646 165.587 419.374 164.66C418.07 165.734 416.744 166.749 415.342 167.693V167.721C416.709 166.914 418.012 166.001 419.238 164.992C417.197 166.973 414.845 169.216 412.362 170.361C410.611 171.098 408.78 171.629 406.906 171.944L407.321 172.348C409.449 171.998 412.008 171.442 413.476 170.673C415.778 169.461 417.606 167.366 419.418 165.44C418.345 167.968 417.355 170.514 416.449 173.079L416.111 173.373C416.103 173.368 416.093 173.364 416.083 173.363C416.074 173.362 416.064 173.364 416.054 173.368C416.045 173.371 416.037 173.377 416.031 173.385C416.024 173.393 416.02 173.402 416.018 173.412C416.021 173.426 416.021 173.441 416.018 173.455C414.643 174.572 413.365 175.805 412.199 177.138L412.826 177.76C413.432 177.04 414.081 176.364 414.709 175.66C414.185 176.467 413.688 177.302 413.225 178.148L413.361 178.279C413.99 177.1 414.683 175.943 415.44 174.809C415.604 174.607 415.762 174.405 415.92 174.192L415.887 174.465C415.162 175.862 414.452 177.264 413.77 178.683L413.819 178.726C414.469 177.318 415.156 175.933 415.876 174.558C415.734 176.397 415.495 178.227 415.162 180.041L415.298 180.178C415.669 178.277 415.913 176.354 416.029 174.421C416.182 176.593 416.575 178.901 416.182 181.045L416.902 181.749C417.47 179.097 416.717 176.178 416.597 173.564V173.504C421.371 163.126 425.954 152.579 433.108 143.625C434.093 149.458 434.073 155.417 433.048 161.244C430.352 161.036 427.924 161.457 425.955 163.497C423.316 166.274 421.614 169.808 421.087 173.603C421.08 173.617 421.076 173.633 421.076 173.649C421.076 173.665 421.08 173.681 421.087 173.695C421.102 173.727 421.125 173.753 421.154 173.772C421.183 173.791 421.217 173.8 421.251 173.8C421.286 173.8 421.319 173.791 421.348 173.772C421.377 173.753 421.4 173.727 421.415 173.695C426.822 171.917 430.074 168.888 432.437 164.278C431.695 167.596 430.744 170.863 429.589 174.061C424.252 176.833 425.562 182.764 425.141 187.915C425.131 188.062 425.354 188.133 425.398 187.98C425.414 187.926 425.442 187.871 425.442 187.811C430.325 184.194 432.191 179.256 430.511 173.281C430.5 173.243 430.482 173.207 430.456 173.177C432.845 168.056 434.225 162.522 434.521 156.879C434.697 158.294 435.099 159.672 435.711 160.96C435.769 160.465 435.823 159.969 435.874 159.47C435.486 158.192 435.203 156.883 435.029 155.558C434.974 155.22 434.914 154.887 434.854 154.549C434.848 154.503 434.838 154.457 434.827 154.412C434.829 154.401 434.829 154.39 434.827 154.38V154.276Z" fill="black"/>
<path opacity="0.1" d="M408.592 173.57L428.088 192.668C428.088 192.668 436.273 171.426 436.387 150.555C436.387 148.323 435.913 146.408 435.045 145.098L408.592 173.57Z" fill="black"/>
<path d="M410.595 168.893C414.18 171.867 423.69 180.221 429.147 186.458C429.179 186.496 429.054 186.632 429.016 186.605C423.69 182.104 413.738 172.375 410.409 169.101C410.344 169.041 410.529 168.812 410.595 168.893Z" fill="#263238"/>
<path d="M485.605 224.78L411.397 224.589L415.887 196.641C415.887 196.641 409.471 188.843 410.682 180.38C412.013 171.104 428.688 147.642 430.112 146.294C435.776 140.985 441.702 139.566 447.087 142.349C465.601 151.898 485.605 224.78 485.605 224.78Z" fill="#694ED6"/>
<g opacity="0.1">
<path d="M462.447 224.725H463.353C462.575 224.098 461.721 223.571 460.81 223.159C458.148 221.947 455.654 222.269 452.838 222.771C453.078 223.478 453.448 224.133 453.93 224.703H454.71C454.35 224.321 454.001 223.917 453.619 223.508V223.475L453.324 223.164L453.815 223.137C456.44 222.979 458.595 222.548 461.285 223.994C461.688 224.212 462.076 224.456 462.447 224.725Z" fill="black"/>
<path d="M465.577 224.725H465.579V224.73C465.578 224.728 465.577 224.727 465.577 224.725H464.734C463.943 222.93 463.292 221.076 462.786 219.181H462.737C460.396 218.139 457.76 216.698 456.582 214.27C455.403 211.842 455.85 208.377 456.123 205.764C456.125 205.728 456.14 205.695 456.165 205.671C456.191 205.646 456.224 205.633 456.26 205.633C456.281 205.632 456.302 205.636 456.321 205.646C456.34 205.655 456.357 205.67 456.369 205.687C460.456 209.119 463.871 212.928 463.009 218.461C463.689 220.616 464.548 222.712 465.577 224.725Z" fill="black"/>
<path d="M463.904 177.144C463.975 174.307 464.968 171.803 465.879 169.233V169.211C465.819 169.091 465.787 168.976 465.716 168.878C464.766 171.562 463.904 174.367 463.904 177.144Z" fill="black"/>
<path d="M480.099 212.726C480.688 212.584 481.283 212.426 481.872 212.24V212.219C481.812 212.038 481.758 211.853 481.747 211.76C481.316 211.918 480.879 212.06 480.432 212.202L480.355 212.229C480.426 212.066 480.497 211.902 480.563 211.733V211.706C480.792 211.138 480.988 210.571 481.174 209.998C481.108 209.785 481.043 209.567 480.972 209.348C480.743 210.178 480.53 210.98 480.284 211.815C480.481 210.76 480.634 209.698 480.743 208.628C480.519 207.859 480.241 207.068 479.973 206.26C479.401 212.137 477.786 217.865 475.205 223.175C475.363 209.578 470.747 196.122 463.904 183.889C467.669 182.028 468.864 179.267 468.897 176.157C468.7 175.677 468.499 175.207 468.297 174.733C468.444 178.552 466.867 181.253 463.893 183.649V183.474C465.811 181.555 467.119 179.112 467.653 176.451C467.829 175.589 467.918 174.712 467.92 173.832C467.871 173.712 467.816 173.592 467.767 173.478C467.797 174.273 467.759 175.068 467.653 175.857C467.198 178.698 465.891 181.333 463.904 183.414C465.108 180.694 466.012 177.851 466.6 174.935C466.781 173.829 466.894 172.714 466.938 171.595L466.856 171.41C466.786 172.584 466.651 173.753 466.452 174.913C465.967 177.761 464.783 180.396 463.882 183.125C463.801 181.439 463.79 179.764 463.882 178.078H463.85C463.676 179.661 463.625 181.255 463.697 182.846C463.348 180.02 462.971 176.79 463.55 174.116C464.027 172.241 464.723 170.428 465.623 168.714L465.377 168.169C464.319 170.166 462.949 172.965 462.649 174.809C462.229 177.374 462.802 180.091 463.249 182.705C461.885 180.329 460.45 178.007 458.944 175.737C458.917 175.589 458.917 175.442 458.917 175.295V175.295C458.925 175.289 458.931 175.282 458.936 175.273C458.94 175.265 458.942 175.255 458.942 175.246C458.942 175.236 458.94 175.226 458.936 175.218C458.931 175.209 458.925 175.202 458.917 175.196L458.884 175.164C458.693 172.234 458.491 169.309 457.002 166.69C455.283 163.667 452.358 161.337 449.63 159.247C449.625 159.209 449.466 159.302 449.466 159.302C449.445 162.636 449.177 166.783 450.923 169.778C452.538 172.545 455.91 173.838 458.437 175.557C458.453 175.584 458.491 175.584 458.491 175.584C463.904 185.646 469.573 195.647 472.416 206.751C467.165 204.025 462.418 200.421 458.382 196.095C460.177 194.049 461.307 191.861 460.865 189.056C460.24 185.284 458.448 181.804 455.741 179.103C455.716 179.081 455.683 179.069 455.649 179.071C455.615 179.065 455.581 179.068 455.55 179.081C455.518 179.093 455.491 179.114 455.471 179.142C455.451 179.169 455.439 179.201 455.437 179.235C455.434 179.269 455.442 179.303 455.458 179.332C453.613 184.707 454.083 189.138 456.342 193.803C454.139 191.205 452.102 188.471 450.241 185.618C451.245 179.682 445.723 177.161 441.86 173.723C441.751 173.625 441.56 173.761 441.653 173.892L441.762 174.029C441.707 180.102 444.528 184.565 450.312 186.824C450.35 186.832 450.389 186.832 450.427 186.824C453.071 191.816 456.65 196.252 460.969 199.892C459.548 199.058 457.981 198.502 456.352 198.255C453.15 197.835 450.585 199.423 447.748 200.64L447.671 200.673H447.633C447.585 200.691 447.544 200.723 447.516 200.765C447.487 200.807 447.471 200.856 447.471 200.907C447.471 200.958 447.487 201.008 447.516 201.05C447.544 201.092 447.585 201.124 447.633 201.142C452.397 203.614 458.999 206.915 463.309 201.851L463.648 202.015C466.401 204.087 469.343 205.897 472.433 207.422C472.482 207.446 472.536 207.457 472.591 207.455C472.825 208.432 473.049 209.414 473.24 210.407C474.139 215.14 474.451 219.965 474.168 224.774H475.123C475.155 224.474 475.155 224.212 475.155 223.928C477.588 220.596 479.264 216.773 480.066 212.726H480.099Z" fill="black"/>
</g>
<path d="M428.732 194.507C432.052 194.812 435.346 195.359 438.586 196.144C440.19 196.559 441.767 197.044 443.339 197.563C444.124 197.819 444.916 198.054 445.707 198.278C446.53 198.541 447.382 198.702 448.244 198.758C448.26 198.758 448.275 198.764 448.287 198.775C448.298 198.787 448.304 198.802 448.304 198.818C448.304 198.834 448.298 198.849 448.287 198.86C448.275 198.871 448.26 198.878 448.244 198.878C447.429 198.918 446.613 198.903 445.8 198.834C445.014 198.739 444.236 198.591 443.47 198.392C441.833 197.988 440.196 197.514 438.597 197.093C435.323 196.248 432.049 195.402 428.694 194.796C428.675 194.794 428.656 194.788 428.64 194.778C428.623 194.768 428.609 194.756 428.597 194.74C428.585 194.725 428.577 194.708 428.572 194.689C428.567 194.671 428.566 194.652 428.568 194.633C428.571 194.614 428.577 194.595 428.586 194.579C428.596 194.562 428.609 194.548 428.624 194.536C428.639 194.524 428.657 194.516 428.675 194.511C428.694 194.506 428.713 194.505 428.732 194.507Z" fill="#263238"/>
<path d="M420.531 197.453C423.264 197.165 426.011 197.032 428.759 197.055C430.14 197.055 431.487 197.17 432.873 197.301C433.528 197.366 434.177 197.437 434.832 197.524C435.487 197.612 436.251 197.803 436.971 197.884C437.047 197.884 437.047 198.01 436.971 198.004C436.289 197.944 435.596 198.004 434.914 198.004L432.862 197.95C431.493 197.917 430.134 197.895 428.748 197.852C426.02 197.759 423.292 197.693 420.525 197.693C420.378 197.677 420.389 197.464 420.531 197.453Z" fill="#263238"/>
<path d="M456.096 150.32C474.599 173.898 495.601 217.724 489.681 226.214C483.084 235.67 456.822 206.025 457.897 204.656C458.808 203.483 450.951 175.12 445.412 154.527C439.874 133.935 451.524 144.487 456.096 150.32Z" fill="#D3766A"/>
<path d="M478.822 178.635L448.762 181.112C448.762 181.112 443.399 159.439 443.055 147.664C442.864 141.062 446.716 141.16 451.202 145.089C466.878 158.856 478.822 178.635 478.822 178.635Z" fill="#694ED6"/>
<path opacity="0.1" d="M466.878 166.002C466.878 166.002 466.807 165.734 466.791 165.663C466.791 165.631 466.791 165.62 466.736 165.663C466.681 165.707 463.102 171.578 462.589 174.727C462.365 176.481 462.417 178.259 462.742 179.998L463.348 179.948C463.113 177.972 463.168 175.972 463.511 174.012C464.144 171.104 465.628 168.812 466.649 166.171V166.302C465.377 169.734 463.921 173.472 463.882 177.155C463.975 173.373 465.705 170.187 466.692 166.662C466.961 169.379 466.856 172.12 466.381 174.808C466.054 176.515 465.575 178.19 464.952 179.812H465.186C465.773 178.198 466.222 176.537 466.529 174.847C466.752 173.438 466.879 172.016 466.911 170.591C466.949 169.685 467.003 168.746 466.976 167.819C467.44 170.449 467.953 173.133 467.582 175.769C467.386 177.142 466.968 178.475 466.343 179.714H466.447C466.955 178.647 467.336 177.524 467.582 176.369C467.934 174.445 467.945 172.475 467.615 170.547C467.9 171.73 468.098 172.931 468.209 174.143C468.405 176.037 468.055 177.947 467.2 179.648L468.166 179.572C469.852 175.627 468.073 170.596 466.878 166.002ZM463.806 177.935C463.735 178.584 463.686 179.234 463.659 179.888H463.779C463.779 179.245 463.806 178.601 463.839 177.951C463.844 177.919 463.811 177.913 463.811 177.935H463.806ZM458.895 175.621C458.895 175.474 458.895 175.327 458.868 175.18C458.876 175.174 458.882 175.167 458.887 175.158C458.891 175.15 458.893 175.14 458.893 175.13C458.893 175.121 458.891 175.111 458.887 175.103C458.882 175.094 458.876 175.087 458.868 175.081L458.835 175.049C458.644 172.118 458.442 169.194 456.953 166.575C455.234 163.552 452.304 161.222 449.581 159.132C449.581 159.094 449.406 159.176 449.417 159.187C449.417 162.521 449.128 166.667 450.874 169.663C452.511 172.429 455.861 173.723 458.388 175.441C458.388 175.441 458.426 175.441 458.442 175.469L460.947 180.112L461.678 180.052C460.779 178.553 459.848 177.077 458.884 175.621H458.895ZM456.063 166.444C457.22 168.457 457.46 170.574 457.88 172.686C456.163 167.893 453.515 163.487 450.088 159.721C452.336 161.757 454.497 163.743 456.052 166.444H456.063ZM451.654 169.172C450.203 166.58 449.936 162.357 449.63 159.383C450.307 162.291 450.907 165.489 452.331 168.113C453.679 170.596 455.97 172.549 458.071 174.454C455.758 172.975 453.024 171.66 451.643 169.199L451.654 169.172ZM449.761 159.547C452.817 164.282 455.583 169.198 458.044 174.268C455.954 172.304 453.679 170.389 452.336 167.841C450.994 165.292 450.509 162.335 449.75 159.574L449.761 159.547ZM458.126 174.317C455.806 169.313 453.11 164.492 450.061 159.896C453.578 163.98 456.31 168.679 458.12 173.755C458.18 174.006 458.251 174.257 458.322 174.503L458.126 174.317ZM457.034 180.407C456.627 179.894 456.184 179.411 455.709 178.961C455.683 178.938 455.65 178.927 455.616 178.928C455.582 178.922 455.548 178.926 455.517 178.938C455.485 178.951 455.458 178.972 455.438 178.999C455.418 179.027 455.406 179.059 455.404 179.093C455.402 179.126 455.409 179.16 455.425 179.19C455.261 179.659 455.119 180.123 454.994 180.581L455.539 180.538C455.572 180.319 455.599 180.107 455.627 179.888C455.627 179.932 455.654 179.976 455.665 180.019C455.665 180.189 455.665 180.358 455.638 180.527H455.752C455.752 180.445 455.752 180.363 455.752 180.281C455.752 180.363 455.801 180.44 455.823 180.521H455.97C455.894 180.292 455.812 180.063 455.725 179.839C455.725 179.801 455.725 179.763 455.725 179.725C455.834 179.992 455.949 180.27 456.074 180.516H456.189C456.101 180.347 456.02 180.178 455.938 180.008L456.271 180.51L457.034 180.407ZM448.304 179.103C448.479 179.85 448.615 180.412 448.697 180.74C448.762 180.849 448.822 180.958 448.877 181.072L449.608 181.012C449.251 180.331 448.807 179.698 448.288 179.13L448.304 179.103ZM448.926 143.75C448.927 143.734 448.927 143.718 448.926 143.701C448.986 143.625 449.052 143.543 449.106 143.461C448.981 143.379 448.85 143.303 448.724 143.232L448.222 143.952C445.853 145.206 444.057 147.324 443.208 149.867C443.246 150.413 443.29 150.958 443.344 151.504C443.432 151.144 443.519 150.789 443.617 150.413C444.403 147.477 446.089 146.009 448.277 144.274C448.318 144.288 448.362 144.288 448.402 144.274C448.423 144.271 448.443 144.264 448.461 144.252C448.479 144.241 448.494 144.226 448.506 144.209C448.506 144.269 448.533 144.323 448.544 144.383C449.117 146.97 449.221 149.84 447.567 152.022C446.468 153.33 445.2 154.486 443.797 155.46C443.824 155.667 443.852 155.875 443.884 156.087C445.789 154.903 447.797 153.468 448.746 151.597C449.925 149.245 449.488 146.271 448.91 143.778L448.926 143.75ZM448.844 144.029C448.893 143.985 448.844 143.903 448.768 143.947L448.528 144.165C448.528 144.034 448.528 143.903 448.555 143.772C448.552 143.764 448.546 143.757 448.539 143.751C448.532 143.746 448.523 143.744 448.514 143.744C448.505 143.744 448.497 143.746 448.489 143.751C448.482 143.757 448.476 143.764 448.473 143.772C448.473 143.93 448.446 144.089 448.43 144.252L448.381 144.301C446.041 146.463 444.319 149.209 443.393 152.257C443.393 152.328 443.393 152.399 443.393 152.47C443.684 151.487 444.062 150.532 444.523 149.616C445.517 147.684 446.824 145.931 448.391 144.427C448.391 144.454 448.391 144.487 448.391 144.514C447.26 146.043 446.296 147.69 445.516 149.425C446.312 147.711 447.272 146.078 448.381 144.547C448.173 146.871 447.873 149.158 446.7 151.242C445.865 152.635 444.859 153.919 443.704 155.062C443.702 155.111 443.702 155.16 443.704 155.209C445.042 153.977 446.163 152.529 447.022 150.926C448.037 148.912 448.321 146.626 448.468 144.378L448.533 144.29C448.533 144.29 448.533 144.252 448.501 144.29L448.462 144.351V144.318L448.844 144.029ZM444.703 151.062C444.305 151.859 443.906 152.65 443.524 153.452C443.524 153.517 443.524 153.577 443.524 153.643C443.901 152.781 444.283 151.919 444.703 151.073C444.714 151.089 444.692 151.073 444.686 151.089L444.703 151.062Z" fill="black"/>
<path d="M449.417 176.294C454.012 175.53 466.529 173.811 474.806 173.762C474.855 173.762 474.877 173.953 474.806 173.958C467.926 175.05 454.072 176.212 449.428 176.572C449.368 176.583 449.335 176.305 449.417 176.294Z" fill="#263238"/>
<path d="M452.424 180.817C451.198 180.817 449.972 180.842 448.746 180.893L448.981 181.068C448.435 177.756 447.742 174.476 447 171.208C446.258 167.939 445.44 164.66 444.463 161.463C444.921 164.791 445.554 168.087 446.225 171.372C446.896 174.656 447.677 177.919 448.544 181.166L448.593 181.368L448.779 181.341C449.996 181.188 451.213 181.019 452.424 180.817Z" fill="#263238"/>
<path d="M445.805 168.027C445.606 167.342 445.327 166.683 444.976 166.063C444.633 165.436 444.241 164.838 443.803 164.273C443.836 164.634 443.92 164.989 444.054 165.326C444.175 165.662 444.324 165.987 444.501 166.298C444.841 166.94 445.281 167.524 445.805 168.027Z" fill="#263238"/>
<path d="M444.092 145.431C443.934 146.855 438.39 156.628 432.033 157.081C429.96 157.222 428.672 145.938 428.672 145.938L428.383 145.125L424.394 133.765L437.047 123.354L438.886 121.952C438.886 121.952 439.77 125.133 440.834 129.105C440.889 129.291 440.938 129.471 440.987 129.651C441.036 129.831 441.118 130.082 441.173 130.295C441.336 130.884 441.505 131.49 441.658 132.095C441.778 132.554 441.898 133.001 442.002 133.487C442.106 133.972 442.231 134.453 442.351 134.938C443.415 139.784 444.152 144.831 444.092 145.431Z" fill="#D3766A"/>
<path d="M440.834 129.105C440.047 132.52 438.526 135.722 436.375 138.489C434.225 141.255 431.497 143.52 428.383 145.125L424.394 133.765L437.047 123.354L438.886 121.952C438.886 121.952 439.77 125.16 440.834 129.105Z" fill="#263238"/>
<path d="M442.035 124.07C442.412 124.515 442.697 125.031 442.875 125.587C443.677 128.113 442.548 130.71 441.129 132.767C439.607 134.95 437.468 136.952 436.731 139.583C436.388 140.609 436.435 141.726 436.862 142.72C437.408 143.811 438.499 144.357 439.618 144.679C440.736 145.001 442.275 145.159 443.082 146.212C443.379 146.666 443.564 147.184 443.623 147.724C443.682 148.263 443.613 148.809 443.421 149.317C442.613 151.93 439.798 153.295 438.122 155.319C436.321 157.455 435.207 160.085 434.925 162.865C434.683 165.469 435.204 168.088 436.425 170.401C437.009 171.533 437.753 172.575 438.635 173.494C439.623 174.509 440.818 175.295 441.849 176.261C442.88 177.227 443.71 178.372 443.672 179.753C443.672 180.817 441.489 184.118 436.966 185.755C436.644 185.87 436.873 186.448 437.244 186.448C437.956 186.461 438.669 186.43 439.377 186.355C442.303 186.054 445.115 185.062 447.582 183.461C450.048 181.859 452.099 179.695 453.564 177.145C455.11 174.39 455.957 171.299 456.031 168.142C456.074 166.39 455.976 164.617 456.314 162.887C456.644 161.374 457.331 159.961 458.317 158.767C460.156 156.448 462.535 154.593 463.97 151.958C465.224 149.579 465.869 146.926 465.847 144.237C465.817 141.475 465.192 138.751 464.015 136.252C462.838 133.753 461.137 131.537 459.026 129.755C454.836 126.138 441.827 123.819 442.035 124.07Z" fill="#263238"/>
<path d="M442.149 124.212C442.823 125.147 443.273 126.224 443.464 127.36C443.574 128.4 443.42 129.451 443.017 130.416C442.155 132.599 440.496 134.236 438.908 135.872C437.419 137.428 435.918 139.146 435.574 141.356C435.405 142.302 435.508 143.276 435.869 144.166C436.322 145.113 437.133 145.841 438.122 146.191C439.912 146.916 442.406 147.282 443.093 149.394C443.781 151.505 442.046 153.437 440.818 154.877C437.822 158.397 433.414 162.516 434.603 167.662C435.209 170.264 436.917 172.704 438.657 174.679C439.912 176.108 441.516 177.898 441.178 179.955C441.178 180.032 441.053 179.993 441.063 179.922C441.385 177.74 439.47 176.223 438.122 174.821C436.495 173.172 435.199 171.227 434.303 169.091C433.471 166.933 433.52 164.535 434.439 162.413C435.334 160.203 436.829 158.353 438.401 156.591C439.208 155.685 440.038 154.795 440.812 153.862C441.577 153.059 442.153 152.095 442.499 151.041C442.645 150.512 442.618 149.949 442.422 149.435C442.225 148.922 441.87 148.485 441.407 148.188C440.463 147.538 439.345 147.293 438.286 146.894C437.327 146.589 436.477 146.011 435.842 145.23C435.36 144.565 435.06 143.787 434.969 142.971C434.801 141.115 435.332 139.262 436.458 137.777C437.975 135.649 440.158 134.083 441.636 131.927C442.444 130.838 442.942 129.55 443.077 128.201C443.159 126.777 442.531 125.582 441.92 124.348C441.915 124.32 441.918 124.29 441.93 124.264C441.942 124.237 441.962 124.215 441.987 124.2C442.012 124.185 442.041 124.178 442.07 124.18C442.099 124.182 442.127 124.194 442.149 124.212Z" fill="#263238"/>
<path d="M461.449 129.69C465.77 133.264 467.451 139.179 466.469 144.586C465.88 147.605 464.582 150.44 462.682 152.858C460.941 155.128 458.862 157.223 457.618 159.837C456.26 162.739 456.734 165.872 456.74 168.965C456.75 171.463 456.217 173.934 455.179 176.206C453.142 180.626 449.438 184.061 444.878 185.76C444.304 185.975 443.72 186.157 443.126 186.306C443.118 186.31 443.109 186.311 443.1 186.311C443.091 186.311 443.083 186.309 443.075 186.305C443.067 186.301 443.06 186.296 443.054 186.289C443.049 186.282 443.045 186.274 443.043 186.265C443.041 186.257 443.041 186.248 443.042 186.239C443.044 186.23 443.048 186.222 443.053 186.215C443.059 186.208 443.066 186.202 443.073 186.198C443.081 186.194 443.09 186.192 443.099 186.191C447.775 184.947 451.682 181.504 453.924 177.265C455.037 175.175 455.709 172.88 455.9 170.52C456.123 167.607 455.485 164.666 456.091 161.79C456.636 159.062 458.42 156.852 460.156 154.779C462.054 152.514 463.91 150.272 464.963 147.472C466.922 142.278 466.245 136.188 462.638 131.861C458.611 127.032 452.233 125.592 446.269 124.986L443.874 124.752C443.786 124.752 443.781 124.604 443.874 124.61C449.963 124.921 456.565 125.652 461.449 129.69Z" fill="#263238"/>
<path d="M443.219 120.959C444.146 121.167 445.161 122.122 445.178 122.76C445.194 123.399 442.193 127.333 440.965 127.431C439.738 127.529 439.23 125.308 439.23 125.308L443.219 120.959Z" fill="#694ED6"/>
<path d="M405.504 118.612C407.725 139.625 420.553 140.678 425.076 140.198C429.185 139.762 443.121 137.759 443.082 116.626C443.044 95.4933 432.584 89.8896 423.134 90.3806C413.683 90.8717 403.283 97.605 405.504 118.612Z" fill="#D3766A"/>
<path d="M407.817 116.354C408.279 116.209 408.733 116.037 409.176 115.842C409.678 115.732 410.13 115.457 410.458 115.061C410.538 114.917 410.568 114.751 410.543 114.588C410.518 114.425 410.44 114.275 410.322 114.161C410.052 113.971 409.736 113.856 409.407 113.829C409.078 113.803 408.747 113.864 408.45 114.008C407.804 114.205 407.254 114.635 406.906 115.214C406.834 115.351 406.803 115.506 406.818 115.66C406.833 115.815 406.892 115.961 406.989 116.082C407.085 116.203 407.215 116.293 407.362 116.342C407.51 116.39 407.668 116.394 407.817 116.354Z" fill="#263238"/>
<path d="M422.048 114.139C421.563 114.137 421.078 114.109 420.596 114.058C420.082 114.099 419.568 113.97 419.134 113.692C419.016 113.576 418.939 113.425 418.915 113.261C418.891 113.098 418.922 112.931 419.003 112.786C419.204 112.526 419.47 112.323 419.775 112.199C420.08 112.076 420.412 112.035 420.738 112.082C421.415 112.08 422.068 112.329 422.571 112.781C422.68 112.89 422.755 113.028 422.787 113.179C422.819 113.33 422.807 113.487 422.751 113.63C422.696 113.774 422.6 113.899 422.475 113.989C422.35 114.08 422.202 114.132 422.048 114.139Z" fill="#263238"/>
<path d="M419.532 119.731C419.532 119.677 419.652 119.786 419.658 119.846C419.794 121.27 420.203 122.874 421.535 123.18C421.578 123.18 421.584 123.261 421.535 123.261C419.952 123.245 419.434 121.106 419.532 119.731Z" fill="#263238"/>
<path d="M420.607 118.068C422.866 117.599 423.636 122.15 421.54 122.586C419.445 123.023 418.714 118.483 420.607 118.068Z" fill="#263238"/>
<path d="M421.54 118.176C421.982 118.367 422.451 118.76 422.937 118.722C423.423 118.683 423.837 118.138 424.127 117.63C424.154 117.576 424.198 117.63 424.208 117.668C424.372 118.541 424.208 119.491 423.275 119.78C422.342 120.069 421.698 119.371 421.333 118.531C421.267 118.367 421.366 118.099 421.54 118.176Z" fill="#263238"/>
<path d="M411.648 120.758C411.648 120.708 411.549 120.845 411.56 120.899C411.855 122.302 411.953 123.955 410.764 124.648C410.726 124.648 410.764 124.741 410.764 124.724C412.313 124.228 412.15 122.04 411.648 120.758Z" fill="#263238"/>
<path d="M410.131 119.507C407.834 119.736 408.461 124.309 410.584 124.102C412.706 123.894 412.051 119.316 410.131 119.507Z" fill="#263238"/>
<path d="M409.22 119.94C408.887 120.234 408.592 120.72 408.161 120.813C407.73 120.906 407.228 120.469 406.846 120.038C406.808 119.994 406.775 120.038 406.781 120.098C406.879 120.971 407.293 121.844 408.156 121.899C409.018 121.953 409.4 121.118 409.487 120.218C409.509 120.054 409.351 119.825 409.22 119.94Z" fill="#263238"/>
<path d="M422.73 130.071C422.501 130.491 422.31 131.037 421.829 131.233C421.317 131.379 420.78 131.417 420.253 131.343C420.209 131.343 420.176 131.403 420.22 131.43C420.497 131.638 420.826 131.767 421.171 131.804C421.515 131.84 421.864 131.783 422.179 131.637C422.435 131.478 422.638 131.246 422.763 130.971C422.887 130.696 422.927 130.391 422.877 130.093C422.877 130.017 422.762 130.022 422.73 130.071Z" fill="#263238"/>
<path d="M415.724 126.923C415.724 126.923 415.953 129.068 416.198 130.045C416.198 130.137 416.466 130.121 416.804 130.045C416.804 130.045 416.804 130.045 416.842 130.045C417.72 129.987 418.565 129.689 419.284 129.184C420.004 128.679 420.571 127.986 420.924 127.18C420.967 127.065 420.815 127 420.744 127.082C419.709 128.243 418.327 129.041 416.804 129.357C416.668 129.101 416.531 125.674 416.373 125.701C415.631 125.957 414.926 126.311 414.278 126.754C413.667 122.307 413.776 117.795 413.105 113.37C413.105 113.333 413.09 113.299 413.065 113.273C413.039 113.248 413.004 113.233 412.968 113.233C412.932 113.233 412.897 113.248 412.872 113.273C412.846 113.299 412.832 113.333 412.832 113.37C412.384 118.089 412.974 123.229 413.486 127.84C413.546 128.435 415.374 127.185 415.724 126.923Z" fill="#263238"/>
<path d="M413.694 98.0748C413.694 98.0748 413.759 101.398 415.451 103.329C418.932 107.302 424.099 104.535 426.495 105.818C428.737 107.018 429.119 110.728 431.198 111.972C434.079 113.702 436.829 111.934 437.642 113.418C438.455 114.903 440.872 118.236 443.071 118.329C445.27 118.422 445.892 83.1623 418.828 90.5012C415.574 91.1646 412.559 92.6912 410.098 94.921C404.887 99.8918 405.138 111.961 405.138 111.961C405.138 111.961 405.225 111.781 405.902 110.728C406.857 109.244 407.053 108.066 407.774 107.072C408.914 105.512 409.842 105.719 411.047 104.17C412.859 101.769 413.694 98.0748 413.694 98.0748Z" fill="#263238"/>
<path d="M413.683 96.4971C413.644 97.9273 413.77 99.3573 414.059 100.759C414.262 102.144 414.839 103.448 415.729 104.529C416.729 105.469 418.036 106.014 419.407 106.062C420.787 106.171 422.206 105.915 423.706 106.062C424.482 106.137 425.222 106.424 425.845 106.892C426.41 107.402 426.868 108.02 427.193 108.709C427.853 109.985 428.519 111.24 429.687 111.955C430.27 112.319 430.926 112.551 431.608 112.635C432.291 112.719 432.983 112.653 433.637 112.441C434.963 112.07 436.322 111.279 437.784 111.497C436.311 111.399 435.089 112.261 433.735 112.757C433.035 113.016 432.286 113.119 431.541 113.058C430.796 112.996 430.074 112.773 429.425 112.403C428.05 111.666 427.324 110.22 426.658 109.003C426.363 108.393 425.949 107.848 425.442 107.399C424.908 107.016 424.28 106.786 423.625 106.733C422.271 106.564 420.831 106.799 419.358 106.668C418.609 106.614 417.873 106.444 417.175 106.166C416.457 105.91 415.816 105.474 415.314 104.9C414.415 103.716 413.858 102.308 413.705 100.829C413.527 99.3912 413.52 97.937 413.683 96.4971Z" fill="#263238"/>
<path d="M413.519 97.8455C413.617 99.1854 413.535 100.533 413.274 101.85C413.044 103.224 412.412 104.499 411.457 105.512C410.955 105.977 410.407 106.388 409.82 106.739C409.316 107.075 408.917 107.546 408.668 108.098C408.496 108.749 408.26 109.381 407.965 109.986C407.616 110.57 407.138 111.067 406.568 111.437C407.034 110.982 407.405 110.439 407.659 109.839C407.891 109.224 408.061 108.588 408.166 107.94C408.397 107.251 408.841 106.653 409.432 106.232C409.973 105.88 410.482 105.482 410.955 105.043C411.815 104.102 412.421 102.959 412.717 101.72C413.072 100.448 413.34 99.1535 413.519 97.8455Z" fill="#263238"/>
<path d="M439.481 118.613C439.481 118.613 442.755 111.263 445.996 112.311C449.237 113.358 447.666 123.398 444.468 125.352C444.075 125.63 443.63 125.827 443.159 125.929C442.688 126.031 442.201 126.036 441.728 125.945C441.255 125.854 440.805 125.667 440.406 125.398C440.006 125.128 439.666 124.78 439.405 124.375L439.481 118.613Z" fill="#D3766A"/>
<path d="M445.472 115.164C445.527 115.164 445.549 115.224 445.505 115.251C443.279 116.697 442.444 119.185 442.007 121.685C442.553 120.648 443.432 119.971 444.796 120.593C444.867 120.626 444.828 120.735 444.757 120.735C444.306 120.68 443.85 120.767 443.45 120.985C443.051 121.202 442.73 121.538 442.531 121.946C442.205 122.625 441.953 123.337 441.778 124.069C441.707 124.304 441.293 124.265 441.331 123.998C441.331 123.998 441.331 123.96 441.331 123.944C440.687 120.893 442.226 116.113 445.472 115.164Z" fill="#263238"/>
<path d="M489.282 226.978C482.189 231.256 458.317 228.473 426.38 221.211C421.96 220.207 432.502 189.563 437.293 190.409C443.295 191.457 466.414 196.82 468.057 197.426C481.878 202.533 494.078 224.075 489.282 226.978Z" fill="#D3766A"/>
<path d="M445.434 193.398C445.434 193.398 443.513 192.689 433.975 187.292C427.384 183.56 408.936 178.687 392.419 192.116C386.09 197.267 386.935 203.951 394.46 199.755C399.758 196.808 403.19 194.298 405.176 193.84C405.176 193.84 401.635 202.418 404.5 206.968C407.015 210.955 409.808 214.758 412.859 218.35C413.642 217.942 414.398 217.484 415.123 216.981C416.414 218.67 418.155 219.961 420.146 220.706C422.137 221.451 424.298 221.62 426.38 221.193L445.434 193.398Z" fill="#D3766A"/>
<path d="M427.117 184.74C423.226 185.537 415.042 187.365 408.816 191.184C401.93 195.44 389.816 205.507 392.992 210.554C395.333 214.259 400.298 210.822 400.298 210.822C400.298 210.822 396.168 216.038 399.016 218.919C401.613 221.549 405.296 218.657 405.296 218.657C405.296 218.657 403.332 222.253 406.322 224.299C409.913 226.766 413.416 218.843 419.232 218.177C420.558 218.052 427.117 184.74 427.117 184.74Z" fill="#D3766A"/>
<path d="M414.529 197.731C410.998 199.085 403.758 204.214 400.309 210.685C400.233 210.827 400.309 210.969 400.402 210.849C404.584 205.939 409.348 201.556 414.589 197.797C414.605 197.77 414.572 197.731 414.529 197.731Z" fill="#263238"/>
<path d="M418.632 204.825C415.702 206.303 408.472 211.918 405.209 218.597C405.133 218.75 405.209 218.881 405.307 218.761C409.221 213.644 413.706 208.99 418.676 204.89C418.708 204.825 418.665 204.787 418.632 204.825Z" fill="#263238"/>
<path d="M405.307 218.74C404.228 219.508 402.953 219.953 401.63 220.022C400.958 220.034 400.295 219.864 399.712 219.528C399.13 219.193 398.65 218.705 398.323 218.118C398.027 217.509 397.892 216.835 397.93 216.159C397.98 215.492 398.12 214.835 398.345 214.205C398.798 212.953 399.452 211.782 400.282 210.741L400.495 210.975C399.453 211.698 398.277 212.205 397.035 212.465C396.406 212.601 395.755 212.601 395.126 212.465C394.487 212.304 393.907 211.968 393.45 211.494C392.997 211.021 392.664 210.447 392.479 209.818C392.312 209.19 392.275 208.535 392.37 207.892C392.595 206.643 393.07 205.451 393.767 204.389C394.44 203.333 395.226 202.354 396.113 201.47C396.97 200.581 397.854 199.713 398.749 198.862C400.524 197.124 402.393 195.485 404.347 193.951L404.614 194.415C402.801 195.227 401.035 196.137 399.322 197.143C398.465 197.645 397.646 198.185 396.844 198.78C396.025 199.377 395.156 199.903 394.247 200.351C393.335 200.813 392.361 201.141 391.355 201.323C390.833 201.413 390.3 201.413 389.778 201.323C389.229 201.218 388.737 200.917 388.392 200.477C388.061 200.036 387.879 199.501 387.874 198.949C387.865 198.421 387.952 197.896 388.13 197.4C388.485 196.441 388.992 195.546 389.631 194.748C390.903 193.182 392.397 191.81 394.067 190.677C395.698 189.519 397.409 188.476 399.185 187.556C402.727 185.688 406.561 184.439 410.524 183.862C406.591 184.526 402.801 185.857 399.316 187.796C397.562 188.732 395.876 189.79 394.269 190.961C392.648 192.092 391.202 193.455 389.975 195.004C389.373 195.77 388.899 196.629 388.572 197.547C388.256 198.436 388.207 199.478 388.769 200.182C389.331 200.886 390.351 201.001 391.279 200.853C392.229 200.677 393.149 200.36 394.007 199.915C394.887 199.478 395.727 198.965 396.517 198.382C397.326 197.784 398.166 197.229 399.032 196.717C400.757 195.699 402.543 194.788 404.38 193.989L406.562 193.023L404.674 194.371C402.736 195.879 400.878 197.487 399.109 199.189C398.214 200.033 397.337 200.895 396.479 201.776C395.61 202.631 394.839 203.581 394.182 204.608C393.515 205.61 393.059 206.736 392.839 207.92C392.748 208.499 392.774 209.091 392.916 209.66C393.071 210.224 393.361 210.74 393.761 211.166C394.16 211.59 394.668 211.894 395.229 212.045C395.805 212.183 396.405 212.196 396.986 212.083C398.176 211.852 399.307 211.386 400.315 210.713L401.16 210.168L400.527 210.942C399.712 211.95 399.062 213.081 398.601 214.293C398.373 214.896 398.224 215.527 398.159 216.17C398.11 216.808 398.224 217.449 398.492 218.03C398.795 218.602 399.248 219.08 399.801 219.414C400.355 219.749 400.988 219.927 401.635 219.929C402.947 219.888 404.22 219.476 405.307 218.74Z" fill="#263238"/>
<path d="M479.204 205.839C478.113 204.611 474.954 200.726 469.928 198.2C465.53 196.017 459.272 194.833 456.009 194.44C455.927 194.44 455.889 194.522 455.971 194.55C458.786 195.51 464.521 196.732 469.23 199.002C472.845 200.813 476.175 203.142 479.117 205.915C479.171 205.964 479.253 205.915 479.204 205.839Z" fill="#263238"/>
<path d="M439.268 222.417H366.004V225.702H439.268V222.417Z" fill="#455A64"/>
<path d="M402.879 222.417H366.004V225.702H402.879V222.417Z" fill="#37474F"/>
<path d="M400.642 225.697H329.239L319.908 177.205H391.306L400.642 225.697Z" fill="#37474F"/>
<path d="M397.739 225.697H326.336L317 177.205H388.403L397.739 225.697Z" fill="#455A64"/>
<path d="M361.716 201.454C361.779 202.009 361.723 202.57 361.551 203.102C361.379 203.633 361.096 204.122 360.721 204.535C360.345 204.948 359.886 205.276 359.374 205.498C358.861 205.719 358.307 205.829 357.749 205.819C356.563 205.798 355.426 205.341 354.555 204.536C353.683 203.731 353.138 202.634 353.024 201.454C352.96 200.899 353.015 200.337 353.186 199.805C353.358 199.273 353.641 198.784 354.016 198.371C354.392 197.957 354.852 197.629 355.365 197.408C355.878 197.187 356.432 197.078 356.99 197.089C358.176 197.111 359.312 197.568 360.183 198.373C361.054 199.177 361.6 200.274 361.716 201.454Z" fill="white"/>
</svg>
